<?xml version="1.0" standalone="no"?>
<!DOCTYPE svg PUBLIC "-//W3C//DTD SVG 1.1//EN" "http://www.w3.org/Graphics/SVG/1.1/DTD/svg11.dtd" >
<svg>
<metadata>
Created by FontForge 20090914 at Mon Apr 30 10:05:07 2012
 By ffonts
Elementary Gothic Bookhand&#194;&#169; Bill Roach / W.K. Roach. 2012. OFL / SIL 1.1
</metadata>
<defs>
<font id="ElementaryGothicBookhand-Regular" horiz-adv-x="1014" >
  <font-face 
    font-family="Elementary Gothic Bookhand"
    font-weight="400"
    font-stretch="normal"
    units-per-em="1024"
    panose-1="2 0 5 0 0 0 0 0 0 0"
    ascent="819"
    descent="-205"
    x-height="747"
    cap-height="1423"
    bbox="-375 -450 2095 1768"
    underline-thickness="150"
    underline-position="-142"
    unicode-range="U+0020-U+F002"
  />
<missing-glyph horiz-adv-x="1024" 
d="M100 0h824v1434h-824v-1434zM150 50v1334h724v-1334h-724zM325 1148v-45c20 17 39 30 56 40c21 12 44 17 69 17c39 0 69 -11 91 -33s33 -52 33 -90c0 -50 -27 -122 -82 -217c-54 -94 -81 -167 -81 -218c0 -34 12 -83 35 -148h32c-16 64 -24 108 -24 133c0 32 12 65 36 99
c24 35 57 79 99 132c43 54 72 97 87 130c16 34 23 66 23 98c0 54 -18 96 -56 128c-37 32 -86 47 -148 47c-39 0 -76 -10 -112 -30c-18 -10 -37 -24 -58 -43zM389 334c-7 -8 -11 -15 -11 -22c0 -6 3 -12 7 -18l61 -71c6 -6 13 -10 20 -10c5 0 12 5 21 14l56 62
c7 8 10 15 10 22c0 6 -3 13 -9 20l-56 60c-8 8 -15 11 -22 11c-6 0 -12 -3 -20 -10z" />
    <glyph glyph-name=".notdef" horiz-adv-x="1024" 
d="M100 0h824v1434h-824v-1434zM150 50v1334h724v-1334h-724zM325 1148v-45c20 17 39 30 56 40c21 12 44 17 69 17c39 0 69 -11 91 -33s33 -52 33 -90c0 -50 -27 -122 -82 -217c-54 -94 -81 -167 -81 -218c0 -34 12 -83 35 -148h32c-16 64 -24 108 -24 133c0 32 12 65 36 99
c24 35 57 79 99 132c43 54 72 97 87 130c16 34 23 66 23 98c0 54 -18 96 -56 128c-37 32 -86 47 -148 47c-39 0 -76 -10 -112 -30c-18 -10 -37 -24 -58 -43zM389 334c-7 -8 -11 -15 -11 -22c0 -6 3 -12 7 -18l61 -71c6 -6 13 -10 20 -10c5 0 12 5 21 14l56 62
c7 8 10 15 10 22c0 6 -3 13 -9 20l-56 60c-8 8 -15 11 -22 11c-6 0 -12 -3 -20 -10z" />
    <glyph glyph-name="glyph1" horiz-adv-x="0" 
 />
    <glyph glyph-name="glyph2" horiz-adv-x="508" 
 />
    <glyph glyph-name="space" unicode=" " horiz-adv-x="508" 
 />
    <glyph glyph-name="space" unicode="&#xa0;" horiz-adv-x="508" 
 />
    <glyph glyph-name="exclam" unicode="!" horiz-adv-x="672" 
d="M359 1473l-51 -5c-50 -56 -75 -156 -75 -302c0 -234 20 -466 60 -694l-5 -174v-6l10 -10h51l5 5c74 458 110 788 110 990c-11 131 -41 196 -90 196h-15zM323 112c-36 -18 -55 -39 -55 -63c0 -20 20 -38 60 -53c31 18 46 36 46 53c-9 42 -26 63 -51 63z" />
    <glyph glyph-name="quotedbl" unicode="&#x22;" horiz-adv-x="672" 
d="M468 1558c-42 -30 -63 -60 -63 -90c12 -49 17 -134 17 -256v-71c0 -18 10 -31 29 -40h5c40 0 64 112 74 336c-12 81 -33 121 -62 121zM218 1553c-49 -17 -74 -40 -74 -70c13 -258 32 -387 57 -387c15 6 30 33 45 80c8 159 22 263 40 312c-16 44 -38 65 -68 65z" />
    <glyph glyph-name="numbersign" unicode="#" horiz-adv-x="1336" 
d="M1002 1473c-18 0 -44 -23 -78 -71c-28 -164 -49 -266 -63 -305c0 -42 -94 -63 -282 -63l-21 8v16c0 33 20 140 58 321c-8 52 -23 78 -47 78l-26 -8l-73 -329c0 -67 -26 -101 -79 -101h-162c-27 0 -48 -18 -62 -55v-24c0 -26 42 -39 125 -39h52l79 8v-31l-37 -259
c0 -31 -64 -47 -193 -47c-57 0 -95 -57 -115 -172l16 -16c33 26 90 39 172 39h78v-31l-57 -376l16 -16h26c36 0 73 136 109 407c0 32 100 47 298 47c0 -58 -15 -180 -47 -368c0 -57 18 -86 52 -86c12 0 25 8 37 24c44 268 73 414 88 438l246 -15l16 7v16
c-24 94 -66 141 -126 141h-115l-5 8c18 142 33 233 47 274c0 32 79 47 235 47c52 0 91 29 115 86v8c0 12 -16 28 -47 47l-172 -8c-62 0 -94 8 -94 24v31l52 314c0 21 -5 31 -16 31zM470 588c0 54 16 148 47 282c0 32 92 47 276 47h42c-6 -73 -22 -167 -47 -282
c0 -31 -40 -47 -120 -47h-198z" />
    <glyph glyph-name="dollar" unicode="$" horiz-adv-x="1061" 
d="M221 1469h-5c-119 -21 -179 -63 -179 -126v-5l10 -21h5c31 38 70 57 118 57h10c0 -17 -11 -36 -35 -57c-75 -125 -113 -236 -113 -332v-21c19 -150 77 -226 174 -226c33 0 110 28 230 84h10l6 -78v-100c0 -228 -3 -412 -11 -552h-20c-102 82 -154 164 -154 247v37
c0 41 18 93 52 157v16c0 6 -8 12 -26 16l-92 -16c-72 -47 -108 -112 -108 -194v-16c6 -50 45 -120 118 -210c120 -91 219 -137 297 -137h25c70 0 137 14 200 42c205 114 307 295 307 541c0 69 -15 148 -46 237c-62 144 -144 215 -246 215h-5c-22 0 -74 -14 -158 -42h-6v32
l6 142l5 5l61 -5h15c22 0 44 9 67 26c88 64 146 146 174 247v5c-58 -56 -104 -84 -138 -84l-56 6c-227 74 -391 110 -492 110zM165 1133c0 99 40 174 118 226h30c16 0 49 -17 98 -53c28 -14 41 -59 41 -137v-115c0 -98 -7 -147 -21 -147h-51c-45 0 -101 33 -169 99
c-30 0 -46 43 -46 127zM579 896c46 25 81 37 103 37h82c55 -61 82 -150 82 -268c0 -218 -77 -409 -231 -573h-15c-17 43 -26 194 -26 452v142z" />
    <glyph glyph-name="percent" unicode="%" horiz-adv-x="1610" 
d="M1421 1436l-6 -5c-136 -8 -216 -16 -242 -26c-166 -7 -249 -16 -249 -26v-5c49 -34 74 -55 74 -63v-31c-52 -155 -236 -482 -553 -982c-104 -190 -204 -285 -298 -285v-21l112 -11h81l298 -10l19 10l-7 16c-53 10 -80 19 -80 26v31c0 45 46 142 136 291l498 790
c66 140 146 235 242 285c0 6 -8 11 -25 16zM483 1280c-166 0 -271 -109 -317 -327c0 -64 23 -118 68 -161c0 -32 73 -62 218 -88c111 0 192 95 242 285c0 51 -4 86 -12 104c0 89 -66 151 -199 187zM352 833c0 254 40 380 118 380c40 -13 65 -91 75 -234
c0 -86 -35 -164 -106 -234c-32 0 -61 30 -87 88zM1210 652c-19 0 -60 -14 -124 -42c-120 -98 -181 -193 -181 -286l19 -135c51 -128 134 -192 249 -192c34 9 76 26 124 52c100 124 149 237 149 338c-28 177 -106 265 -236 265zM1086 236c0 154 40 270 118 348h6
c31 -12 50 -75 56 -187v-52c0 -127 -45 -222 -137 -286h-19c-16 27 -24 83 -24 167v10z" />
    <glyph glyph-name="ampersand" unicode="&#x26;" horiz-adv-x="1683" 
d="M771 1460c-66 0 -112 -11 -137 -33c-98 -43 -148 -115 -148 -217v-16c0 -70 20 -169 60 -298v-6c-153 0 -272 -81 -357 -244c-19 0 -43 -88 -71 -266c23 -125 65 -217 126 -276c111 -80 201 -120 269 -120c102 0 247 78 434 234c166 -152 282 -232 346 -239
c46 0 110 20 192 60c59 52 88 95 88 130v5c-29 87 -58 130 -88 130l-5 -5c-31 -148 -64 -222 -99 -222c-39 0 -120 58 -242 173c-62 43 -93 74 -93 92v11c88 123 132 223 132 299c0 77 -35 129 -105 157h-11c-65 -50 -98 -89 -98 -119v-6c44 -29 65 -72 65 -130v-76
c0 -22 -9 -49 -27 -81c-14 0 -28 7 -44 21c-88 88 -171 191 -247 310c-69 44 -104 168 -104 374c0 52 15 110 44 174c0 61 53 106 159 135h159c42 -3 84 -21 126 -54c37 -23 55 -79 55 -168h22c19 65 65 134 137 206v5l-11 17l-54 -22h-116c-90 44 -171 65 -241 65h-116z
M288 467c0 98 19 183 55 255c46 84 105 125 176 125c41 0 74 -20 99 -60c51 -163 148 -335 291 -515v-22l-44 -54c-49 -50 -137 -87 -264 -109c-69 0 -128 19 -176 55c-42 0 -87 82 -137 244v81z" />
    <glyph glyph-name="quoteright" unicode="'" horiz-adv-x="346" 
d="M186 1566l-32 -2c-31 -22 -47 -61 -47 -119c0 -92 13 -184 38 -274l-3 -69v-2l6 -4h32l3 2c46 181 69 311 69 391c-7 52 -26 77 -57 77h-9z" />
    <glyph glyph-name="parenleft" unicode="(" horiz-adv-x="758" 
d="M578 1513c-10 42 -24 62 -40 62h-16c0 -24 -29 -78 -87 -164c-164 -306 -247 -564 -247 -774v-41c0 -284 80 -555 239 -815c98 -104 172 -157 222 -157l24 21h8c-196 192 -294 471 -294 835c0 263 37 562 111 896z" />
    <glyph glyph-name="parenright" unicode=")" horiz-adv-x="758" 
d="M270 1579c-16 0 -29 -20 -40 -62l80 -137c74 -334 111 -633 111 -896c0 -364 -98 -643 -294 -835h8l24 -21c51 0 125 53 222 157c160 260 239 531 239 815v41c0 210 -82 468 -246 774c-58 86 -88 140 -88 164h-16z" />
    <glyph glyph-name="asterisk" unicode="*" horiz-adv-x="1024" 
d="M517 1591l-23 -20c-24 0 -37 -46 -37 -139v-130l-4 -4c-30 0 -102 41 -216 122c-18 -10 -28 -24 -28 -40v-4c0 -12 8 -25 23 -41c85 -36 149 -77 193 -122c-84 -64 -152 -110 -202 -138c22 -27 37 -41 46 -41h4l28 4c88 60 140 90 156 90h5c0 -146 19 -220 55 -220
c28 0 41 21 41 61v114c0 30 5 45 14 45h5l156 -61h14c27 14 41 24 41 28v8c-128 73 -196 114 -202 122l69 49c86 48 128 86 128 114l-9 36h-9c-78 -53 -138 -89 -179 -109l-14 4c0 182 -17 272 -51 272h-4z" />
    <glyph glyph-name="plus" unicode="+" 
d="M478 1174c-39 -2 -59 -11 -59 -25v-6l5 -6c34 0 55 -123 63 -369l-32 -6h-221c-67 0 -121 27 -162 80h-9l-5 -6c12 -77 23 -177 32 -301h9l36 73c0 46 113 68 338 68c-10 -348 -25 -523 -45 -523l5 -18l122 25l36 -7c18 5 27 11 27 19v6l-9 12c-45 17 -68 85 -68 203v19
l5 246c10 12 96 18 257 18h36c23 0 58 -34 104 -104h4l5 6l-5 203l5 73l-14 19h-4l-14 -31c-22 -49 -116 -74 -280 -74h-94l-5 74v209c12 66 33 98 63 98v19l-22 6h-104z" />
    <glyph glyph-name="comma" unicode="," horiz-adv-x="557" 
d="M297 262c-58 0 -104 -52 -138 -158v-17l73 -79v-97c0 -41 -10 -93 -32 -157c18 -35 31 -53 40 -53c12 0 17 9 17 26c62 86 116 223 162 412v27c-39 64 -80 96 -122 96z" />
    <glyph glyph-name="hyphen" unicode="-" horiz-adv-x="670" 
d="M565 561c-12 -14 -34 -21 -68 -21h-82c-50 0 -105 -3 -163 -10l-131 17h-7c-14 0 -22 -4 -24 -13l9 -93l-3 -20l6 -7h3c16 18 29 27 37 27h52l132 7h128c64 -4 104 -10 120 -17h6l3 10l-3 14v3c0 69 -5 103 -15 103z" />
    <glyph glyph-name="hyphen" unicode="&#xad;" horiz-adv-x="670" 
d="M565 561c-12 -14 -34 -21 -68 -21h-82c-50 0 -105 -3 -163 -10l-131 17h-7c-14 0 -22 -4 -24 -13l9 -93l-3 -20l6 -7h3c16 18 29 27 37 27h52l132 7h128c64 -4 104 -10 120 -17h6l3 10l-3 14v3c0 69 -5 103 -15 103z" />
    <glyph glyph-name="period" unicode="." horiz-adv-x="557" 
d="M288 254h-6c-76 -45 -114 -104 -114 -176c0 -36 30 -62 90 -78c100 30 149 75 149 134c-44 80 -83 120 -119 120z" />
    <glyph glyph-name="slash" unicode="/" horiz-adv-x="569" 
d="M653 1460c-31 -14 -92 -26 -182 -36v-16l27 -41v-20c0 -52 -43 -201 -129 -449c-44 -136 -91 -265 -142 -387c-55 -168 -104 -298 -148 -392c0 -7 -26 -40 -79 -98v-11l56 -10h66c46 0 69 7 69 21v5l-23 41c0 14 8 40 23 77c168 459 291 834 369 1125
c12 62 49 121 109 176l-10 15h-6z" />
    <glyph glyph-name="zero" unicode="0" 
d="M535 1456c-47 0 -92 -10 -134 -31c-212 -122 -319 -409 -319 -862c0 -195 62 -362 184 -501c48 -54 109 -87 183 -99h11c132 0 243 63 335 188c94 195 140 400 140 616v42c0 170 -23 318 -70 443c-50 136 -153 204 -308 204h-22zM287 824c0 165 33 308 97 428
c40 98 96 147 168 147h70c17 0 37 -36 59 -110c40 -56 60 -231 60 -527l-17 -204c-20 -221 -54 -378 -102 -470c0 -45 -59 -71 -178 -78c-14 6 -22 13 -22 21c-90 100 -135 365 -135 793z" />
    <glyph glyph-name="one" unicode="1" 
d="M422 1469l-12 -11c-68 -120 -131 -189 -190 -207c-106 -17 -160 -29 -160 -37v-6c36 -40 91 -70 166 -90l135 26h12l7 -16l-7 -995c0 -39 -38 -78 -116 -117v-5c0 -6 11 -12 31 -16l56 5c20 0 32 -5 36 -16l49 11h160l56 10l54 -5l19 5v11l-37 32c-44 0 -67 352 -67 1054
c0 145 7 251 19 319c-26 32 -55 48 -87 48h-124z" />
    <glyph glyph-name="two" unicode="2" horiz-adv-x="1111" 
d="M486 1436l-152 -37c-90 -43 -136 -98 -136 -166l6 -32c42 -90 92 -135 152 -135c40 7 67 17 79 31c0 20 -7 39 -22 57l-29 -26c-18 0 -28 11 -28 32v15c0 52 55 78 164 78h96c128 -37 191 -99 191 -187v-11c0 -56 -47 -172 -141 -349c-110 -182 -194 -308 -253 -376h-6
c-87 32 -147 47 -181 47h-17c-96 0 -156 -69 -180 -208v-16c15 -100 68 -151 158 -151c30 0 74 21 130 62c54 70 86 105 96 105l22 -11c174 -146 309 -219 406 -219l96 16c94 52 141 96 141 130c0 69 -79 130 -237 183c-18 -2 -28 -8 -28 -16v-10l6 -6c64 -24 95 -57 95 -99
c0 -38 -33 -57 -101 -57c-112 0 -223 66 -333 198c0 10 53 93 158 250c99 128 191 316 276 564c0 42 -5 80 -16 114c-69 154 -206 230 -412 230zM131 122c32 73 70 109 112 109h40c28 0 43 -5 45 -16v-5c-26 -40 -66 -79 -119 -115h-33c-28 0 -43 6 -45 16v11z" />
    <glyph glyph-name="three" unicode="3" 
d="M356 1456h-71c-140 -52 -211 -109 -211 -173c0 -70 58 -118 173 -142c27 0 55 16 83 47v16l-128 -6c-22 0 -37 7 -45 21v16c15 70 56 105 122 105h109c132 -55 198 -123 198 -205c0 -124 -49 -199 -147 -226c-136 -17 -205 -33 -205 -47v-16c208 -88 346 -152 416 -194
c107 -100 160 -193 160 -279c0 -60 -8 -106 -25 -136c-26 -122 -103 -184 -231 -184l-70 5c-99 0 -180 41 -244 121c0 46 9 88 26 126c47 26 70 41 70 47v11l-38 10l-38 -10l-64 10l-39 -5c-51 -16 -77 -49 -77 -100l7 -42c46 -150 214 -226 506 -226l64 11
c196 105 294 250 294 436l-19 63c-32 121 -111 226 -237 315c-110 44 -166 68 -166 74c162 109 243 198 243 268l-7 58c-45 154 -181 231 -409 231z" />
    <glyph glyph-name="four" unicode="4" 
d="M787 1473c-44 -20 -154 -35 -330 -47v-10c33 -25 49 -67 49 -126l-18 -521c0 -23 -70 -49 -212 -78h-13c80 217 119 379 119 485v62c-38 150 -107 225 -206 225c-71 0 -115 -48 -131 -146c0 -24 38 -51 112 -79c9 0 15 11 19 32l-13 31c0 27 21 43 63 47h50
c21 0 33 -28 37 -84c0 -50 -29 -166 -87 -349c-104 -289 -156 -445 -156 -469c0 -14 11 -24 31 -32l19 6c189 142 301 213 337 213h6l6 -5c0 -392 -18 -589 -56 -589c-74 -4 -112 -13 -112 -26v-11l50 -10l380 5c21 0 33 6 37 16c-54 28 -81 105 -81 229v230l7 219h6l6 5
h137l50 -10h13l37 10c0 17 -10 31 -31 42c-117 18 -192 31 -225 41l44 527c16 74 41 123 75 146z" />
    <glyph glyph-name="five" unicode="5" 
d="M525 1436c-282 -3 -424 -10 -424 -21h-7c28 -140 42 -237 42 -291l-14 -185l-7 -16l7 -15h14c37 24 55 41 55 52c70 48 147 78 230 90h70l62 -10c93 -68 139 -204 139 -407c0 -130 -25 -255 -76 -375c-68 -148 -140 -222 -216 -222h-14c-63 0 -105 37 -125 111v31
c0 21 10 39 28 53c93 64 139 105 139 122c0 24 -60 49 -181 74h-14c-79 0 -132 -61 -160 -185c0 -25 10 -57 28 -95c90 -106 195 -159 313 -159h28c44 0 92 11 146 32c237 112 358 339 362 681c-9 75 -23 130 -42 164c-71 156 -217 233 -438 233l-98 -6l-7 27v227l7 37
l140 5h69c21 0 56 -19 105 -58c43 -66 73 -100 90 -100c14 3 21 14 21 32v84l14 69c0 11 -9 18 -28 21l-42 -5z" />
    <glyph glyph-name="six" unicode="6" 
d="M684 1468c-180 0 -326 -91 -438 -273c-109 -228 -164 -434 -164 -616v-73c0 -192 72 -345 216 -458c44 -45 107 -68 190 -68l72 5c253 52 379 196 379 431l-7 32c-56 193 -156 289 -300 289h-14c-123 0 -230 -36 -320 -110h-13v21c0 73 7 138 19 194
c107 376 238 563 393 563h33c40 0 75 -15 104 -47v-42l-6 -27c-81 -32 -131 -64 -151 -94v-21c30 -32 56 -48 79 -48h19c92 0 144 49 157 147l-13 43c-48 102 -127 152 -235 152zM265 485l7 21c72 109 142 163 209 163h39c34 0 77 -17 131 -53c34 0 69 -70 105 -210l-7 -105
c-48 -182 -122 -274 -222 -274h-20l-39 6c-135 70 -203 221 -203 452z" />
    <glyph glyph-name="seven" unicode="7" 
d="M916 1444l-533 -15c-147 0 -239 -77 -275 -232l6 -36c64 -96 133 -144 208 -144l55 5c54 17 80 44 80 82v10l-6 6l-43 -6c-94 18 -141 70 -141 155v10c0 16 13 33 37 52c46 42 162 62 348 62l25 -11c-12 -136 -91 -315 -239 -535c-212 -286 -318 -552 -318 -798
c-35 -14 -53 -25 -55 -31v-11l6 -5c12 0 18 -3 18 -10l92 10h147c82 0 123 7 123 21c-69 56 -104 102 -104 139v41c11 47 33 109 67 185l373 608c58 107 107 237 147 391c0 19 -6 38 -18 57z" />
    <glyph glyph-name="eight" unicode="8" 
d="M696 1448c-106 0 -218 -47 -336 -141c-92 -114 -139 -221 -139 -320c0 -38 18 -113 52 -225v-21c-135 -150 -203 -274 -203 -372v-11c0 -36 85 -121 255 -256c98 -72 202 -114 313 -126l98 5c116 0 194 70 232 210c-22 96 -86 214 -191 356c-139 146 -209 226 -209 241
v16l6 5c244 228 365 390 365 487v21c-47 88 -128 131 -243 131zM354 1165l6 37c102 133 193 199 272 199h87c70 -23 104 -51 104 -84v-16c0 -66 -115 -195 -347 -387h-18c-54 70 -89 140 -104 209v42zM203 379c0 102 47 187 139 257c44 -22 89 -67 134 -136
c220 -209 330 -338 330 -388c-14 -48 -85 -73 -215 -73c-89 0 -172 33 -249 99c-92 51 -139 131 -139 241z" />
    <glyph glyph-name="nine" unicode="9" 
d="M527 1460l-43 -5c-253 -62 -380 -214 -380 -457c0 -114 38 -201 112 -262c116 -70 203 -105 261 -105l143 16h19c0 -124 -39 -258 -118 -404c-94 -133 -179 -200 -255 -200h-31c-54 11 -81 39 -81 84v16c0 40 42 98 124 173l-37 32h-6c-80 0 -144 -51 -193 -153l31 -115
c70 -56 136 -84 199 -84h25c188 0 347 126 479 378c69 138 117 328 143 572l-6 26v42l-13 142c-78 203 -202 304 -373 304zM278 1030c0 42 15 116 44 220c75 102 145 152 211 152h44l19 -15c36 0 62 -159 80 -478v-10l-6 -105c0 -55 -43 -92 -130 -111h-112
c-100 46 -150 161 -150 347z" />
    <glyph glyph-name="colon" unicode=":" horiz-adv-x="557" 
d="M311 166l-24 1h-30c-32 -14 -55 -42 -69 -84c14 -39 37 -73 69 -101c65 0 108 17 128 51v35c4 9 5 18 5 27c-9 46 -32 68 -68 68c-6 -3 -10 -2 -11 3zM323 996l-24 1h-30c-32 -14 -55 -42 -69 -84c14 -39 37 -73 69 -101c65 0 108 17 128 51v35c4 9 5 18 5 27
c-9 46 -32 68 -68 68c-6 -3 -10 -2 -11 3z" />
    <glyph glyph-name="semicolon" unicode=";" horiz-adv-x="557" 
d="M249 949c-32 -14 -55 -42 -69 -84c14 -39 37 -73 69 -101c65 0 108 17 128 51v50l-98 84h-30zM237 206c-39 -23 -59 -45 -59 -67c0 -15 40 -63 118 -143c0 -30 -32 -83 -98 -159v-17h10l29 17c62 45 108 135 138 269c-30 67 -70 100 -118 100h-20z" />
    <glyph glyph-name="semicolon" unicode="&#x37e;" horiz-adv-x="557" 
d="M249 949c-32 -14 -55 -42 -69 -84c14 -39 37 -73 69 -101c65 0 108 17 128 51v50l-98 84h-30zM237 206c-39 -23 -59 -45 -59 -67c0 -15 40 -63 118 -143c0 -30 -32 -83 -98 -159v-17h10l29 17c62 45 108 135 138 269c-30 67 -70 100 -118 100h-20z" />
    <glyph glyph-name="less" unicode="&#x3c;" 
d="M944 1325l-196 -101c-201 -117 -434 -293 -699 -527l20 -25c178 -156 456 -342 835 -558c14 0 30 13 47 38v38l-326 190c-108 59 -214 144 -318 254c0 12 12 29 34 51c90 88 196 170 318 247c168 99 256 171 265 215v58l20 114v6z" />
    <glyph glyph-name="equal" unicode="=" 
d="M903 982c-20 -21 -58 -32 -116 -32h-143c-87 0 -181 -5 -281 -16l-228 27h-11c-26 0 -40 -7 -42 -22l16 -144l-5 -32l10 -11h5c28 29 49 43 64 43h90l228 10h222c110 -6 179 -15 207 -26h11l5 16l-5 21v6c0 107 -9 160 -27 160zM903 671c-20 -21 -58 -32 -116 -32h-143
c-87 0 -181 -5 -281 -16l-228 27h-11c-26 0 -40 -7 -42 -22l16 -144l-5 -32l10 -11h5c28 29 49 43 64 43h90l228 10h222c110 -6 179 -15 207 -26h11l5 16l-5 21v6c0 107 -9 160 -27 160z" />
    <glyph glyph-name="greater" unicode="&#x3e;" 
d="M52 73l196 101c202 118 435 293 699 527l-20 25c-177 156 -455 342 -835 558c-14 0 -29 -12 -47 -38v-38l326 -190c108 -58 214 -143 318 -254c0 -11 -11 -28 -34 -51c-90 -87 -196 -169 -318 -247c-167 -98 -255 -170 -265 -215v-58l-20 -114v-6z" />
    <glyph glyph-name="question" unicode="?" horiz-adv-x="800" 
d="M375 1452h-15c-226 -38 -340 -123 -340 -257c0 -31 31 -55 91 -71c38 0 91 21 158 61l-11 52l-35 -21h-25c-24 0 -36 12 -36 36v5c0 58 65 99 193 123h66l51 -5c81 -26 121 -149 121 -369c0 -164 -38 -247 -116 -247h-46c-76 24 -136 60 -178 108h-15
c-16 -87 -25 -174 -25 -262v-205l-31 -133l11 -16c125 13 187 27 187 41v11c-44 52 -66 101 -66 149c6 195 16 292 31 292h10c78 -30 130 -46 157 -46c34 0 68 7 102 20c105 53 157 175 157 365c0 106 -40 199 -122 277c-78 62 -169 92 -274 92zM284 113
c-40 0 -67 -25 -81 -77c12 -24 25 -36 40 -36c29 0 54 24 76 72c-3 28 -15 41 -35 41z" />
    <glyph glyph-name="at" unicode="@" horiz-adv-x="2019" 
d="M1153 1535c-229 0 -414 -51 -556 -155c-356 -277 -534 -580 -534 -908v-81c0 -54 19 -131 57 -230c82 -154 193 -262 335 -324c79 -46 207 -79 385 -99c338 0 608 92 812 274c200 216 299 444 299 684v49c-62 272 -150 447 -264 523c-164 178 -342 267 -534 267zM241 615
c0 256 107 479 321 671c102 77 206 121 313 131h57c195 0 366 -70 513 -212c214 -207 321 -410 321 -609l-22 -267c-11 -103 -70 -207 -178 -311c-73 -84 -201 -144 -384 -181h-157c-166 0 -308 38 -428 112c-237 162 -356 384 -356 666zM1086 1258l-187 -26
c-44 0 -66 -20 -66 -61v-30l4 -27h18c54 48 92 72 116 72h8c0 -11 -42 -135 -128 -371c-133 -372 -216 -584 -249 -636c-49 -16 -77 -28 -85 -34v-8l9 -15l76 4h257l14 7l-5 12c-53 14 -80 33 -80 57l9 60c67 243 114 364 142 364l254 7c56 -208 84 -341 84 -401v-4l-4 -30
c0 -6 -19 -22 -58 -50v-3c2 -8 14 -12 36 -12h84l58 -3l49 3h35v12l-13 15c-39 0 -76 42 -111 125c-20 95 -47 198 -80 310c0 16 -25 111 -76 285c-33 214 -70 340 -111 378zM939 694c68 210 114 323 138 337h5c30 -62 61 -173 93 -333v-8l-89 -4h-138z" />
    <glyph glyph-name="A" unicode="A" horiz-adv-x="1266" 
d="M732 1457l-239 -34c-56 0 -85 -26 -85 -79v-40l6 -34h22c69 62 118 93 148 93h12c0 -14 -55 -175 -165 -482c-170 -484 -277 -760 -319 -827c-63 -21 -99 -36 -108 -44v-10l11 -20l97 5h330l17 10l-6 15c-68 19 -102 43 -102 73l11 79c86 316 147 473 183 473l324 10
c72 -270 108 -444 108 -522v-5l-6 -40c0 -7 -24 -28 -74 -64v-4c3 -10 18 -15 46 -15h108l74 -5l62 5h46v15l-17 19c-50 0 -97 55 -142 163c-26 124 -61 258 -103 403c0 20 -32 144 -96 370c-42 279 -90 443 -143 492zM545 723c87 274 146 420 176 439h6
c38 -82 78 -226 119 -434v-9l-114 -5h-176z" />
    <glyph glyph-name="B" unicode="B" horiz-adv-x="1164" 
d="M39 1468h-5c-36 0 -54 -40 -54 -121v-21c0 -25 6 -39 18 -42h17c46 78 85 116 119 116h17l6 -5l7 -100l-7 -473l13 -740v-5h-13c-46 0 -80 11 -100 32c-13 49 -25 73 -36 73h-6c-16 0 -24 -47 -24 -142v-26l78 -26c422 6 633 15 633 26c281 70 421 195 421 373v79
c0 48 -21 109 -65 183c-45 92 -128 165 -249 221v5c76 84 113 167 113 247c0 128 -61 224 -184 288c-68 39 -301 58 -699 58zM371 1395v5l190 -11c114 -32 171 -133 171 -304c0 -62 -25 -125 -76 -189c-36 -31 -125 -47 -267 -47c-24 0 -36 39 -36 115l12 420v5zM371 780
l266 11c106 0 175 -108 207 -325v-42c-31 -192 -70 -289 -118 -289c0 -36 -120 -57 -361 -63v131z" />
    <glyph glyph-name="C" unicode="C" horiz-adv-x="984" 
d="M466 1448c-85 -5 -168 -32 -248 -80c-145 -100 -218 -347 -218 -742v-53c0 -45 14 -116 42 -212c105 -240 248 -361 430 -361c63 0 140 7 230 21c158 70 236 129 236 175l-37 37h-11c-129 -98 -258 -148 -388 -148h-18c-16 0 -48 16 -96 48c-50 63 -78 127 -85 191
c-36 75 -67 282 -91 620c34 298 133 446 296 446h54c81 0 166 -39 254 -117h7c104 91 156 140 157 148v16l-6 6l-158 -32h-90z" />
    <glyph glyph-name="D" unicode="D" horiz-adv-x="1184" 
d="M36 1456c-18 0 -30 -7 -36 -21v-10l5 -5c64 0 117 -74 159 -224l-5 -166l10 -650l-5 -26h-67l-5 6l-31 -32v-15c18 -30 49 -61 93 -94l5 -192v-5c0 -24 48 -37 143 -37c31 6 46 20 46 42l-5 5v68h15c152 -83 264 -125 338 -125c82 0 157 26 226 78
c150 181 225 411 225 691c0 236 -61 428 -184 577c-94 80 -181 119 -261 119c-46 0 -99 -19 -159 -57c-124 -96 -192 -145 -205 -145h-10v156c0 42 -25 62 -77 62h-215zM323 1139c144 144 253 221 327 229h36c58 0 123 -62 195 -187c48 -130 71 -230 71 -302v-78
c0 -63 -8 -153 -25 -270c-74 -322 -167 -483 -277 -483h-20c-52 0 -122 25 -210 73c-68 24 -103 77 -103 161l11 540v5z" />
    <glyph glyph-name="E" unicode="E" horiz-adv-x="1180" 
d="M269 1452h-86c-122 -52 -183 -96 -183 -134v-16l17 -5c63 42 101 62 115 62h17l6 -88l-6 -672l-17 -284c0 -182 -32 -282 -98 -300c0 -14 46 -21 138 -21l579 6l172 -16l29 5c122 0 183 42 183 124c-2 49 -12 73 -29 73h-5c-87 -72 -165 -112 -235 -119h-121
c-176 0 -312 4 -407 10c-11 0 -17 45 -17 134v31c0 168 6 347 17 538c0 45 20 67 58 67h240l23 -5l40 -57h12l11 73v72c0 18 -5 28 -17 31c-15 0 -46 -17 -92 -52l-229 5l-29 6c-11 0 -20 138 -28 413v10l11 11h12l51 -11c189 -134 302 -201 338 -201l29 5
c116 105 188 196 218 274v10h-23c-53 -79 -103 -119 -149 -119h-63l-34 6c-192 90 -341 134 -448 134z" />
    <glyph glyph-name="F" unicode="F" horiz-adv-x="943" 
d="M158 1481c-90 0 -172 -53 -244 -159l6 -5c110 74 191 111 244 111c24 0 36 -51 36 -153l-12 -350l18 -508v-148c0 -127 -45 -215 -137 -265v-11l6 -5l71 5h185c120 0 179 9 179 27c0 7 -15 14 -47 21c-36 0 -55 48 -55 143v95l-11 482l6 143c44 18 88 26 132 26h47
c40 0 102 -8 185 -26c14 0 21 11 23 32c-6 40 -13 66 -23 79l-95 -32h-114c-76 0 -132 11 -167 32l12 286l12 11h12c148 -120 233 -180 256 -180c42 0 84 16 126 47c147 163 220 257 220 281h-12l-36 -11c-63 -91 -120 -137 -172 -137h-66l-101 26
c-236 96 -373 143 -412 143h-72z" />
    <glyph glyph-name="G" unicode="G" horiz-adv-x="1145" 
d="M453 1464c0 -4 -18 -8 -54 -11c-124 0 -231 -50 -322 -151l11 -9h16c101 66 158 98 172 98h5l-113 -187c-71 -193 -107 -367 -107 -521c0 -102 15 -204 43 -306c8 -66 58 -146 150 -240c117 -76 224 -115 322 -115c132 0 246 53 343 157h11v-57l11 -224v-47
c0 -120 -19 -190 -59 -208l-156 -52v-5l43 -11l38 5c208 48 311 159 311 333l-11 656l16 177c0 16 -30 24 -91 26h-43c-134 -20 -243 -31 -327 -31h-11c-21 0 -42 7 -64 21c-24 48 -41 72 -49 73h-10l-11 -84l5 -62c0 -36 25 -61 75 -73l49 10c152 62 254 93 305 93h6
l-22 -431c0 -32 -21 -62 -64 -89c-46 -72 -114 -109 -204 -109h-107l-70 21c-171 96 -257 364 -257 806c0 127 20 231 59 313c35 108 58 161 69 161h16c58 0 135 -41 231 -125c91 -110 157 -166 199 -166c24 0 57 9 101 26c115 116 181 218 199 306v11h-11l-5 -5
c-52 -100 -107 -151 -166 -151h-33l-32 6c-216 114 -352 171 -407 171z" />
    <glyph glyph-name="H" unicode="H" horiz-adv-x="1102" 
d="M962 1419c-102 -18 -153 -35 -153 -51c24 -20 35 -59 35 -115c0 -258 -8 -388 -25 -388h-414c-16 215 -25 364 -25 448v25c0 14 10 31 29 51v10l-34 5h-64l-59 5c-92 -74 -152 -111 -178 -111h-74v-16l5 -5c0 -22 53 -34 158 -34h5l5 -429l-5 -328
c0 -305 -28 -458 -84 -458c-23 -2 -35 -7 -35 -15v-5c0 -16 53 -26 158 -31l252 36v5c-36 32 -54 64 -54 96l14 433l-10 221l405 11h5l-15 -359v-247c0 -59 12 -139 35 -241c41 -81 100 -157 177 -227l15 5v5c-49 114 -74 200 -74 257v15c0 770 14 1199 40 1286l-5 30l5 30
c0 8 15 24 44 46v10c0 9 -26 19 -79 30z" />
    <glyph glyph-name="I" unicode="I" horiz-adv-x="468" 
d="M375 1423l-36 -5c-172 0 -258 -13 -258 -40c10 -17 22 -29 36 -35c32 0 48 -163 48 -491c-14 -428 -26 -685 -37 -771c0 -12 -19 -37 -58 -75c8 -16 17 -25 26 -25c43 17 82 25 116 25h100c15 0 52 -18 111 -55h5c0 16 -22 50 -68 100c-21 0 -32 146 -32 436v155l11 521
v15c0 67 4 110 10 130l68 90c-8 14 -22 22 -42 25z" />
    <glyph glyph-name="J" unicode="J" horiz-adv-x="517" 
d="M463 1432c-214 0 -321 -11 -321 -35l55 -35c22 0 32 -85 32 -256v-160c0 -504 -29 -818 -87 -943l-142 -291v-15h9c106 103 196 207 271 311c50 74 84 181 101 321c17 0 29 333 36 998c0 30 20 58 60 85z" />
    <glyph glyph-name="K" unicode="K" horiz-adv-x="1123" 
d="M748 1448c-26 -8 -39 -15 -39 -20l22 -21c56 0 83 -46 83 -138c0 -122 -40 -229 -121 -323c-190 -126 -304 -189 -341 -189h-6v486c0 103 -5 161 -16 174v6l-77 -11l-110 16c-95 -3 -143 -13 -143 -31c110 -92 165 -156 165 -194v-159c0 -486 -5 -771 -17 -855
c0 -80 -36 -137 -110 -173v-16l11 -9h44l72 -5l77 5h126c19 0 30 5 33 15v5c-7 14 -16 20 -27 20c-29 18 -44 60 -44 128v143c8 226 19 338 33 338c126 90 222 147 286 169h5c173 -88 259 -197 259 -327v-88c-42 -161 -117 -292 -226 -394c6 -16 19 -25 39 -25h11
c238 6 357 19 357 41v5c-62 28 -103 62 -121 102c63 163 94 277 94 343c-11 88 -28 151 -50 189c-56 105 -150 187 -280 246l5 20c173 116 259 227 259 333c-20 85 -38 127 -55 127c0 24 -66 47 -198 67z" />
    <glyph glyph-name="L" unicode="L" horiz-adv-x="1021" 
d="M322 1432l-24 -15l-273 5l-29 -5v-10c7 -13 15 -20 24 -20c45 -32 67 -93 67 -181l-14 -1078c0 -24 -24 -58 -72 -100c0 -18 16 -28 48 -30l216 -10l561 15c106 0 158 32 158 96v20c0 27 -4 49 -14 65h-5c-107 -73 -261 -110 -461 -110c-107 0 -184 5 -230 15
c-22 0 -33 235 -33 704c12 376 25 564 38 564c36 20 58 39 67 55v10l-9 10h-15z" />
    <glyph glyph-name="M" unicode="M" horiz-adv-x="1225" 
d="M54 1473c-28 0 -43 -10 -43 -32h3c0 -39 21 -59 62 -59c34 0 51 -60 51 -181c-10 -686 -22 -1030 -36 -1030c0 -66 -30 -118 -91 -155v-11l4 -5c36 -4 57 -10 61 -16l58 5h55l130 -5c22 7 33 14 33 21c-10 26 -32 55 -66 86c-8 0 -15 153 -21 459v26c0 145 5 309 14 491
l15 -5c60 -75 133 -194 221 -358c28 -49 65 -131 112 -245h4c36 96 92 224 166 384c87 162 162 277 225 347h11l-4 -91v-32l8 -469v-272l-8 -107c-20 -80 -42 -153 -65 -219v-5l65 16l149 -6l7 11c0 6 -12 21 -36 43c-36 0 -54 249 -54 747v475l7 16c46 35 90 78 134 128v16
l-80 21c-44 -11 -73 -25 -87 -42c-56 -21 -146 -140 -268 -358c-116 -227 -179 -343 -188 -347c-142 236 -223 366 -243 390c-134 246 -236 368 -305 368z" />
    <glyph glyph-name="N" unicode="N" horiz-adv-x="1119" 
d="M77 1460c-51 -40 -77 -74 -77 -100l10 -11h4c12 0 23 6 34 16h5c78 -24 116 -51 116 -79l24 -809c-7 -278 -17 -417 -29 -417l-48 -32v-11l24 -42l39 21l173 -5h82c26 0 42 9 49 26c0 6 -17 17 -53 32c-22 0 -40 208 -54 624l5 52v265l5 21v5c10 0 52 -44 126 -132
c127 -187 231 -390 313 -608c62 -197 104 -296 126 -296h10c21 0 35 11 43 32l10 1163c15 50 49 136 101 259l-10 10h-164c-42 -2 -63 -9 -63 -21v-5c46 -20 68 -78 68 -175l-10 -465l15 -386h-10l-5 6c-33 99 -78 206 -135 322l-367 497c-94 162 -210 243 -347 243h-10z
" />
    <glyph glyph-name="O" unicode="O" horiz-adv-x="1025" 
d="M568 1440l-59 -20c-153 0 -295 -112 -426 -338c-64 -168 -96 -340 -96 -516l48 -250c15 -94 65 -180 149 -260c0 -21 77 -45 230 -72h26c74 0 143 9 208 26c105 54 187 132 245 235c61 183 91 329 91 439c0 87 -10 186 -32 296c-31 164 -90 288 -176 373
c-40 42 -109 71 -208 87zM216 566c0 254 9 402 27 445c40 138 72 220 96 245c0 34 61 65 181 92h43c25 0 44 -6 58 -20c42 0 74 -39 96 -118c19 0 40 -151 64 -455l-5 -183c0 -246 -32 -392 -96 -440c-18 -54 -96 -82 -234 -82h-27c-96 24 -144 50 -144 77
c-39 0 -59 131 -59 393v46z" />
    <glyph glyph-name="P" unicode="P" horiz-adv-x="984" 
d="M633 1423c-100 0 -248 -26 -442 -80h-55c-26 0 -66 24 -119 70h-13l-4 -5l21 -116c18 -40 50 -60 98 -60h55l13 -20c-6 -536 -11 -833 -17 -890c0 -160 -14 -254 -43 -282c-30 -16 -46 -27 -46 -35v-5c2 -6 9 -13 21 -20c3 10 44 17 123 20h144l22 5v10l-5 5
c-53 25 -80 60 -80 106l12 563l5 15h4c82 -20 145 -30 191 -30h81l34 5c110 30 183 66 220 110c66 104 98 193 98 267v15c0 96 -34 178 -102 246c-79 71 -151 106 -216 106zM323 800l12 457c0 42 78 79 234 111h51l42 -5c91 -52 136 -158 136 -317c0 -44 -7 -86 -21 -126
c-27 -127 -127 -191 -301 -191h-17c-20 0 -66 24 -136 71z" />
    <glyph glyph-name="Q" unicode="Q" horiz-adv-x="1086" 
d="M598 1428c-186 0 -342 -91 -467 -273c-83 -165 -125 -333 -125 -504v-61c0 -238 96 -415 288 -530c44 -41 116 -62 217 -62c72 0 154 26 245 78h10l6 -36v-62c0 -129 31 -227 92 -293c0 -32 84 -64 250 -98c70 0 112 29 125 87c0 54 -21 101 -65 139h-11l-5 -5l5 -62v-20
c-7 -48 -29 -72 -65 -72h-33c-81 0 -142 165 -184 494c0 20 24 62 70 128c69 166 103 299 103 401v124c0 132 -41 264 -125 396c-58 85 -168 162 -331 231zM234 657c0 172 17 321 49 447c38 165 107 247 206 247h82c36 0 83 -22 141 -67c76 -127 114 -328 114 -602v-113
c-7 -128 -20 -197 -38 -205h-11c-82 100 -155 149 -217 149c-68 0 -111 -49 -130 -149v-11c45 -88 94 -133 146 -133h6l16 15c-28 30 -43 57 -43 82c0 29 11 50 32 62h11l33 -5c87 -41 130 -82 130 -124v-5c-43 -106 -97 -159 -163 -159h-141c-50 0 -87 11 -109 31
c-76 136 -114 256 -114 360v180z" />
    <glyph glyph-name="R" unicode="R" horiz-adv-x="1016" 
d="M-21 1423c-8 0 -16 -29 -24 -87h5c0 -56 23 -95 67 -117l107 5c18 0 29 -95 33 -286l-19 -581v-189c0 -10 -9 -32 -29 -66c-42 -26 -79 -56 -111 -92c0 -6 10 -13 29 -20l323 10l53 -16c15 0 25 9 29 26h-4v10c-76 74 -118 129 -126 163v454c0 18 34 26 101 26h49l72 -31
c129 -46 193 -160 193 -341v-113l-19 -285v-41c22 -163 96 -245 222 -245l43 5c81 38 121 80 121 128c0 72 -29 107 -87 107l-34 -10c23 -35 34 -59 34 -72v-15c0 -42 -16 -68 -48 -77h-19c-22 0 -48 46 -78 138c-22 261 -40 423 -53 485c0 154 -43 278 -130 372v10
c66 21 109 38 130 51c110 82 164 169 164 260v82c0 36 -4 72 -14 107c-75 157 -176 235 -304 235c-47 0 -110 -7 -188 -21c-155 -40 -250 -61 -285 -61h-121c-25 17 -52 48 -82 92zM331 1301c50 34 122 51 218 51h106l29 -6c97 -50 145 -142 145 -275l-10 -92
c-59 -166 -131 -250 -217 -250h-97c-89 0 -150 9 -183 26l-5 117z" />
    <glyph glyph-name="S" unicode="S" horiz-adv-x="1102" 
d="M1026 1473l-29 -35c0 -83 -62 -136 -188 -160h-29l-47 5c-204 94 -354 140 -452 140c-70 -10 -117 -20 -140 -30c-60 -35 -100 -77 -118 -125v-5h12c60 60 117 90 170 90h59c0 -6 -45 -48 -135 -125c-53 -51 -92 -142 -117 -274l17 -80c51 -93 114 -140 188 -140l94 20
c160 87 276 130 346 130h35c94 -44 140 -115 140 -215v-75l-11 -110c-28 -126 -60 -209 -94 -249c-54 -120 -151 -180 -293 -180h-12c-39 0 -76 7 -111 20c-62 0 -107 79 -135 235c0 70 12 132 35 184c0 10 -4 15 -12 15h-11l-36 -15c-61 -27 -112 -82 -152 -164
c21 -89 50 -152 88 -190c0 -34 96 -80 287 -140c151 0 278 15 381 45c204 90 305 269 305 539l-6 90c-48 184 -150 275 -305 275h-29c-130 -30 -243 -45 -340 -45h-100c-31 5 -47 12 -47 20c-54 0 -82 49 -82 145l6 69c49 120 116 180 200 180h5l41 -10
c203 -133 336 -200 399 -200c59 0 112 29 158 85c26 0 54 75 82 225c0 37 -5 55 -17 55z" />
    <glyph glyph-name="T" unicode="T" horiz-adv-x="1119" 
d="M747 1419c-474 -8 -711 -14 -711 -20c-24 0 -36 -58 -36 -176c8 -94 18 -141 32 -141h9c14 55 32 99 54 131c32 88 95 131 189 131h99c24 0 47 -23 67 -71l-9 -342l5 -111v-161l-5 -493c0 -44 -22 -99 -67 -166v-5c0 -13 48 -20 144 -20h13c124 0 185 7 185 20
c0 8 -12 29 -36 61c-24 0 -38 156 -41 467c6 390 12 615 18 675c0 84 18 136 54 156h86c80 -14 137 -39 171 -76c48 -85 83 -139 103 -161h5l18 15l-5 176l9 91l-31 15l-288 5h-32z" />
    <glyph glyph-name="U" unicode="U" horiz-adv-x="1000" 
d="M1005 1423v-5c-136 0 -204 -8 -204 -25v-5c7 -12 18 -20 32 -25c29 0 43 -90 43 -270c0 -400 -16 -647 -48 -739c-64 -180 -183 -270 -355 -270h-21l-38 5c-82 28 -124 130 -124 305c8 329 19 622 33 879l5 35c47 35 70 57 70 65c-7 24 -20 35 -38 35l-16 -5
c-229 -10 -344 -20 -344 -30c61 -54 91 -131 91 -230v-335l-16 -519c0 -18 13 -48 38 -90c91 -143 200 -215 328 -215h54c198 0 340 119 424 355c24 0 38 323 43 969c11 16 47 45 108 85c-26 20 -47 30 -65 30z" />
    <glyph glyph-name="V" unicode="V" horiz-adv-x="1070" 
d="M259 1419l-248 -5v-5h-11v-5l100 -81c74 -292 157 -555 249 -791c127 -354 201 -532 222 -532c24 23 75 114 153 274c212 416 317 712 317 887c0 70 -21 134 -63 192c-15 44 -75 66 -180 66c-27 0 -43 -6 -48 -20v-10c4 -9 27 -24 69 -46c60 -50 90 -162 90 -334
c0 -82 -17 -171 -53 -269c-75 -192 -138 -311 -190 -355h-11l-137 360c-98 323 -148 512 -148 568v25l5 25c43 17 64 29 64 36c-6 14 -18 20 -37 20h-143z" />
    <glyph glyph-name="W" unicode="W" horiz-adv-x="1225" 
d="M289 1436l-289 -21v-25c40 -18 64 -35 72 -51v-31l-41 -1293l26 -10c68 0 188 117 360 349c110 168 173 261 191 277l268 -380c138 -167 234 -251 288 -251l26 10v21l-41 1292l5 26c42 20 64 33 67 41v20l-289 21c-20 -7 -30 -14 -30 -21l61 -51c22 0 37 -299 47 -897
v-139l-5 -5h-6c-100 88 -170 170 -211 246c-89 123 -134 193 -134 210c9 82 59 211 150 385v15c-8 21 -32 31 -72 31h-6l-30 -10l5 -77v-15c-11 -58 -40 -132 -88 -221c-26 27 -57 102 -93 226v15l5 77l-30 10h-6c-40 0 -64 -10 -72 -30v-16c90 -176 140 -300 150 -374v-5
c0 -22 -36 -82 -108 -180c-64 -106 -143 -200 -237 -282l-11 10v134c0 197 9 467 26 810c0 58 28 104 82 138c0 8 -10 15 -30 21z" />
    <glyph glyph-name="X" unicode="X" horiz-adv-x="1221" 
d="M517 1399c-289 -4 -434 -9 -434 -15v-20c66 -18 124 -55 173 -111c80 -126 152 -279 216 -458c23 -31 34 -51 34 -61v-10l-56 -100c-87 -196 -189 -383 -305 -559c0 -8 -48 -45 -145 -111v-5l44 -10l317 40v10c-52 44 -78 76 -78 96c0 16 17 61 51 136
c135 269 209 403 222 403h11l6 -5c156 -285 233 -470 233 -554l-6 -20c-36 -19 -57 -33 -61 -41v-10l6 -5l250 5h28l150 -5v5h11v15c0 12 -20 20 -61 26c-72 39 -118 94 -139 166c-49 60 -99 159 -150 297c-107 191 -161 303 -161 337v5l5 30l211 353c34 46 91 93 173 141
v10l-11 15c-215 -10 -323 -23 -323 -40l17 -20c48 -9 72 -18 72 -26v-15c-6 -30 -14 -45 -22 -45c-102 -196 -160 -295 -172 -297c-12 6 -64 106 -156 302l11 40c0 10 37 42 111 96v5z" />
    <glyph glyph-name="Y" unicode="Y" horiz-adv-x="759" 
d="M871 1395v-5c-174 -20 -262 -36 -262 -49v-5c0 -9 20 -17 58 -25c26 -2 39 -14 39 -35c0 -34 -27 -90 -82 -168c-105 -168 -171 -252 -199 -252h-5c-6 2 -46 68 -121 198c-113 174 -170 266 -170 277v15c42 4 63 11 63 19c0 9 -14 17 -43 25v-5l-39 -5
c-187 -2 -281 -11 -281 -25v-9l5 -5c44 -12 100 -47 169 -104c108 -174 204 -348 286 -520l-5 -104l-4 -400c0 -118 -16 -186 -49 -203c0 -16 31 -25 92 -25h10l126 5l24 -10l24 25v5c-51 34 -77 99 -77 193c10 262 20 438 29 529c68 102 149 238 242 406
c55 106 118 184 189 232v10c0 6 -6 11 -19 15z" />
    <glyph glyph-name="Z" unicode="Z" horiz-adv-x="1217" 
d="M329 1419l-46 -15c-124 -100 -186 -185 -186 -256v-5c7 -10 66 -36 176 -78l10 15c-33 40 -50 92 -50 155c0 30 21 46 61 48h60c74 0 136 -9 187 -29c101 -16 151 -28 151 -34c-49 -39 -111 -97 -187 -174c-126 -138 -234 -286 -322 -446c-84 -156 -146 -339 -187 -547
v-24c0 -24 15 -38 45 -44l71 25c47 104 121 155 222 155h111c34 -8 50 -17 50 -25c21 0 120 -88 298 -266c115 -126 214 -189 297 -189l91 24c71 56 106 107 106 155c0 80 -35 144 -106 194h-5c-47 0 -89 -37 -126 -111c14 -48 29 -73 45 -73l91 48h20c15 -7 24 -15 26 -24
c-22 -45 -56 -68 -101 -68h-51c-17 0 -39 7 -65 20c-80 18 -206 114 -379 290c-80 133 -153 199 -221 199c-37 0 -81 -17 -132 -53h-15v9c48 210 159 420 333 630c183 154 318 262 404 324c113 60 173 99 181 117c0 14 -18 23 -55 29l-51 -10c-150 -48 -261 -73 -333 -73
h-116c-19 0 -59 10 -121 30c-110 52 -171 77 -181 77z" />
    <glyph glyph-name="bracketleft" unicode="[" horiz-adv-x="758" 
d="M605 1384c0 38 -23 59 -69 64h-155c-49 0 -74 -12 -74 -37l-5 -134v-359c0 -624 17 -941 50 -952l154 -11h49c40 0 60 20 60 59v11c-9 22 -21 32 -35 32l-89 -6c-30 0 -45 102 -45 305c-6 0 -10 111 -10 332v112c2 386 11 578 25 578l129 -5l15 5v6z" />
    <glyph glyph-name="backslash" unicode="\" horiz-adv-x="569" 
d="M100 1424c-90 10 -150 22 -182 36h-6l-10 -15c61 -55 97 -114 109 -176c78 -291 201 -666 369 -1125c16 -37 23 -63 23 -77l-23 -41v-5c0 -14 23 -21 69 -21h66l56 10v11c-52 58 -79 91 -79 98c-43 94 -92 224 -148 392c-50 122 -98 251 -142 387
c-86 248 -129 397 -129 449v20l27 41v16z" />
    <glyph glyph-name="bracketright" unicode="]" horiz-adv-x="758" 
d="M234 1452c-46 -5 -69 -26 -69 -64v-6l15 -5l129 5c15 0 23 -192 25 -578v-112c0 -221 -3 -332 -10 -332c0 -203 -15 -305 -45 -305l-89 6c-14 0 -25 -10 -35 -32v-11c0 -39 20 -59 60 -59h49l154 11c34 11 50 328 50 952v359l-5 134c0 25 -24 37 -74 37h-155z" />
    <glyph glyph-name="asciicircum" unicode="^" 
d="M498 1219l-14 -10c-114 -195 -249 -473 -405 -833c0 -6 9 -13 27 -20l5 5c99 4 148 12 148 24c114 298 206 500 275 608h14l153 -289c80 -194 129 -294 148 -299h23c15 0 24 5 27 15v5c-222 492 -356 757 -401 794z" />
    <glyph glyph-name="underscore" unicode="_" horiz-adv-x="1024" 
d="M0 -100v-60h1024v60h-1024z" />
    <glyph glyph-name="quoteleft" unicode="`" horiz-adv-x="1024" 
d="M90 1419c-51 25 -88 37 -111 37c-10 0 -23 -17 -39 -51c0 -36 187 -153 559 -350h8l8 5v14c-70 44 -212 159 -425 345z" />
    <glyph glyph-name="a" unicode="a" horiz-adv-x="782" 
d="M399 748c-45 0 -68 -30 -68 -90v-63c-222 -200 -333 -387 -333 -560v-32l117 -16c138 0 271 46 401 137h13c16 -4 35 -27 55 -68l-43 -43v-10l25 -5l24 5h25l148 10v11c-83 66 -139 137 -167 211c0 17 21 29 62 37l86 -5v5c-33 70 -74 125 -123 164h-6
c-20 -70 -41 -105 -62 -105c-27 24 -70 123 -129 295v64l43 37v5c0 11 -22 16 -68 16zM374 415h25c50 -98 74 -156 74 -174v-6l-6 -21c-111 -105 -199 -158 -265 -158h-19l-12 10v43l6 26c0 26 66 119 197 280z" />
    <glyph glyph-name="b" unicode="b" horiz-adv-x="861" 
d="M58 1444c-38 -8 -58 -15 -58 -21v-5l32 -36c22 0 33 -399 33 -1197c0 -50 -13 -113 -39 -187c3 -10 20 -16 51 -16h175l77 10v11c-26 26 -39 45 -39 57v5h13c105 -41 228 -62 368 -62c62 0 127 30 194 88v5l-13 11h-13l-97 -21h-19v10c52 104 77 186 77 245v36
c-48 205 -147 307 -296 307h-52c-39 0 -95 -24 -168 -72h-19l-7 166v42l20 551l51 52v5l-148 11h-58zM271 523c0 46 35 68 103 68c134 0 201 -60 201 -182v-89c0 -158 -34 -248 -104 -270h-32c-112 56 -168 101 -168 135v338z" />
    <glyph glyph-name="c" unicode="c" horiz-adv-x="711" 
d="M667 747l-418 -27c-166 -59 -249 -178 -249 -357v-103l7 -49c74 -140 182 -211 323 -211h80c35 0 62 4 81 11c137 40 205 79 205 119h-7c-64 -36 -135 -54 -213 -54h-36c-27 0 -69 11 -125 32c-54 31 -81 109 -81 233c0 183 54 297 162 341c59 0 91 -27 95 -81h15
c122 80 183 125 183 135z" />
    <glyph glyph-name="d" unicode="d" horiz-adv-x="806" 
d="M532 1421c-30 0 -53 -10 -69 -31v-10c0 -5 16 -15 46 -31l-23 -692v-5h-5c-54 41 -102 61 -143 61c-40 0 -81 -5 -121 -15c-130 -39 -202 -171 -217 -395l6 -77c50 -136 142 -205 274 -205h17c35 0 98 19 189 56h6v-5l-6 -26c-38 -18 -57 -29 -57 -35
c3 -10 18 -16 46 -16h149l97 -5c0 10 4 15 11 15h29l6 -5l5 5c-5 15 -14 25 -28 31c-30 16 -46 64 -46 144v77l6 477l-6 138l23 231c0 148 19 247 57 297c-14 14 -44 21 -92 21h-154zM177 411l6 51c37 103 98 154 183 154l86 -16c38 0 57 -92 57 -277l-6 -123
c0 -61 -47 -104 -143 -128h-22c-107 0 -161 93 -161 277v62z" />
    <glyph glyph-name="e" unicode="e" horiz-adv-x="767" 
d="M725 747c-22 -7 -68 -12 -139 -16l-264 5c-52 -6 -86 -13 -102 -22c-146 -58 -220 -182 -220 -370v-28c0 -30 17 -88 51 -174c50 -94 163 -142 337 -142c142 0 247 48 315 142l-37 22c-104 -69 -184 -104 -241 -104h-37c-16 0 -47 13 -95 38c-34 24 -51 82 -51 175v54
c0 9 15 15 44 17h29c34 0 70 -5 110 -17l14 17v38c0 27 -7 52 -22 76c-63 -25 -107 -38 -131 -38h-22l-30 22v38c35 142 91 212 169 212h29c46 0 97 -29 154 -87c108 67 161 107 161 120v17z" />
    <glyph glyph-name="f" unicode="f" horiz-adv-x="534" 
d="M242 1421c-48 -38 -109 -143 -183 -316c52 -187 77 -396 77 -626v-148l-24 -132c-21 -94 -58 -156 -112 -184c0 -5 10 -10 29 -15l183 5h71c30 0 64 5 100 15v21l-29 35c-22 0 -37 192 -47 576l82 20h59l35 -20h6l12 10v82l-12 61h-6c-50 -37 -105 -56 -165 -56
c-20 0 -35 83 -47 249v112c0 46 14 80 41 102h12l136 -97h12c59 12 126 71 200 179v25h-6c-81 -57 -140 -86 -177 -86h-17l-53 15c-80 40 -134 98 -160 173h-17z" />
    <glyph glyph-name="g" unicode="g" horiz-adv-x="727" 
d="M573 755l-103 -11v-10c16 -18 23 -38 23 -59v-48h-17c-62 54 -121 80 -177 80l-39 -5c-171 -44 -257 -158 -257 -342v-16l6 -69c52 -192 149 -288 290 -288c90 0 164 34 223 102h11l6 -27v-171c0 -80 -23 -151 -69 -213l-216 43c-54 0 -98 -19 -131 -59v-5
c39 -3 100 -39 182 -107l6 5c251 59 376 150 376 272v160l-51 688l34 53v11c0 9 -11 14 -34 16h-63zM180 334l11 128c29 110 80 165 154 165h46c30 0 64 -16 102 -48c0 -88 12 -229 34 -421v-5c0 -24 -49 -49 -148 -75h-57c-78 0 -125 66 -142 197v59z" />
    <glyph glyph-name="h" unicode="h" horiz-adv-x="625" 
d="M113 1417c-75 0 -113 -15 -113 -46l38 -52l53 -1279l-32 -36c2 -7 11 -14 27 -21l64 10h113c27 0 41 6 43 16l-32 31c-18 0 -27 179 -27 536v21h27l32 -5c108 -76 161 -174 161 -294l-38 -274c0 -30 25 -46 75 -46h33c28 0 45 9 53 26v31c-2 10 -16 15 -43 15h-26v21
c54 131 80 232 80 304v93c-24 148 -85 222 -182 222c-30 0 -87 -10 -172 -31c-7 31 -11 72 -11 124v77c0 124 9 270 27 438c0 52 29 78 86 78v5c0 10 -37 22 -113 36h-123z" />
    <glyph glyph-name="i" unicode="i" horiz-adv-x="400" 
d="M224 999c-33 0 -60 -25 -81 -75c22 -46 49 -69 81 -69c31 0 54 29 69 85c-22 40 -45 59 -69 59zM143 711c-45 0 -68 -5 -68 -17l37 -42l-6 -155v-428c0 -13 -10 -29 -31 -48v-10c50 -7 118 -11 205 -11h56l13 11l-32 26c-20 0 -31 65 -31 193v213c0 157 13 235 38 235
s37 4 37 11c0 11 -29 18 -87 22h-131z" />
    <glyph glyph-name="j" unicode="j" horiz-adv-x="398" 
d="M213 975c-34 0 -59 -23 -73 -70v-15c2 -10 21 -21 57 -35c46 26 68 48 68 65c0 22 -17 41 -52 55zM275 730h-5l-5 -5l-104 -5c-58 0 -88 -10 -88 -30c18 0 28 -183 31 -549v-175c-14 -150 -49 -225 -104 -225h-26c-24 0 -53 19 -89 55h-15c-7 -1 -14 -9 -21 -25v-15
c48 -86 105 -130 172 -130c35 8 66 24 93 50c122 169 182 289 182 360l-15 299l5 210c0 85 19 137 57 155c0 8 -22 18 -68 30z" />
    <glyph glyph-name="k" unicode="k" horiz-adv-x="711" 
d="M34 1441l-11 -11c38 -69 56 -117 56 -144v-181l-28 -907v-139c0 -12 -17 -34 -51 -64c0 -8 25 -15 74 -21c144 6 215 15 215 27c-38 20 -57 52 -57 96v245c0 28 48 54 142 80l68 -43c61 -63 91 -120 91 -170v-54c0 -38 -15 -86 -46 -144c0 -14 12 -21 34 -21
c106 0 159 9 159 27l-17 16h-40l-28 5c34 88 51 143 51 165c0 88 -49 183 -147 283c76 78 113 147 113 208c0 32 -70 48 -210 48c-14 0 -26 -7 -34 -21v-5l102 -43v-22c0 -76 -71 -144 -215 -202h-17l-6 5l29 928l34 32c0 11 -21 16 -63 16h-34c-72 0 -127 4 -164 11z" />
    <glyph glyph-name="l" unicode="l" horiz-adv-x="361" 
d="M215 1421l-215 -26v-16c34 0 50 -172 50 -518v-325l11 -293v-68c0 -93 -13 -161 -39 -204l17 -5c0 5 15 10 44 16l105 -6l115 16h6c0 16 -9 26 -28 32c-36 0 -55 414 -55 1240v37c0 22 11 47 33 73v16c-15 21 -30 31 -44 31z" />
    <glyph glyph-name="m" unicode="m" horiz-adv-x="1074" 
d="M428 747h-5c-80 0 -149 -33 -207 -99l-18 15c-14 39 -58 58 -134 58h-32l-32 -5v-16c56 -29 83 -116 83 -261v-131l4 -209c-10 -25 -28 -49 -55 -73c54 -10 129 -16 226 -16l13 6l-36 47v256c0 175 6 272 18 292c16 46 85 68 207 68c37 -23 55 -75 55 -157
c0 -158 -33 -321 -101 -491c0 -14 14 -21 41 -21c169 0 253 9 253 27v5c-48 22 -80 50 -96 83v6c25 143 37 228 37 256v135c0 32 -7 74 -23 126v5c0 14 28 23 82 26h56c55 -42 82 -117 82 -225c0 -131 -26 -270 -78 -417c10 -21 31 -32 65 -32h50l23 -5l14 5l5 5
c89 24 133 39 133 47v6l-5 5c-64 32 -96 59 -96 83c22 123 32 228 32 314c0 55 -18 109 -55 162c-69 74 -143 110 -221 110c-46 0 -83 -10 -110 -32h-19c-42 28 -94 42 -156 42z" />
    <glyph glyph-name="n" unicode="n" horiz-adv-x="822" 
d="M517 759c-70 0 -163 -20 -280 -62h-8l-174 40c-46 -14 -84 -34 -114 -62v-6c0 -14 48 -27 144 -39c23 0 36 -90 38 -270l-8 -101v-147c0 -31 -37 -61 -113 -90v-5c4 -11 19 -17 45 -17h53l273 11v11c-45 18 -68 77 -68 175l8 399c10 56 45 84 106 84h30
c81 0 129 -39 144 -118v-67c0 -104 -43 -261 -129 -473c0 -14 46 -22 137 -22h159l38 6c0 12 -7 25 -23 39c-55 22 -85 37 -91 45v11c66 170 99 296 99 377v17l-8 73c0 92 -86 155 -258 191z" />
    <glyph glyph-name="o" unicode="o" horiz-adv-x="763" 
d="M312 755c-33 0 -65 -8 -97 -26c-143 -90 -215 -214 -215 -372c0 -26 18 -82 54 -166c90 -127 198 -191 322 -191c205 0 323 121 355 362v26c0 134 -50 241 -150 320c-48 18 -125 33 -232 47h-37zM183 424c0 100 13 163 37 191c24 59 70 88 140 88h38
c115 -54 172 -135 172 -243v-165c-32 -158 -80 -238 -145 -238h-22c-60 0 -101 7 -123 21c-64 39 -97 120 -97 243v103z" />
    <glyph glyph-name="p" unicode="p" horiz-adv-x="743" 
d="M206 778c-122 -76 -200 -114 -234 -114v-6l41 -26c48 0 71 -20 71 -62l-10 -489c0 -208 -23 -322 -71 -344v-5h20c34 8 51 15 51 21c48 0 90 31 127 93c17 0 31 125 41 375c-8 0 -17 89 -26 266v41c64 104 122 156 173 156h36c48 0 78 -97 92 -291v-68
c0 -90 -34 -135 -102 -135h-66c-22 0 -52 14 -92 42l-10 -11v-10c100 -80 188 -120 264 -120c23 2 47 15 72 37c88 90 132 180 132 270v26c0 61 -5 106 -15 135c-46 143 -121 214 -224 214c-67 0 -150 -52 -250 -156h-10l-5 26v26l5 83z" />
    <glyph glyph-name="q" unicode="q" horiz-adv-x="885" 
d="M579 826c-13 0 -26 -35 -39 -105h-11c-68 30 -142 54 -223 72c-20 0 -56 -13 -106 -39c-100 -94 -150 -192 -150 -293v-11l6 -111c58 -184 144 -276 256 -276c20 0 85 24 195 72h17l5 -6c12 -101 23 -164 34 -188c90 -106 187 -160 289 -160c12 0 17 4 17 11l-33 33
c-70 39 -106 93 -106 161v259l5 360l6 5c74 32 116 56 128 72v11c0 12 -22 20 -67 22c-91 16 -162 53 -212 111h-11zM256 345v61c12 202 44 307 95 315h44c58 0 106 -29 145 -89v-16l-11 -393c-47 -51 -88 -77 -122 -77h-67c-56 48 -84 115 -84 199z" />
    <glyph glyph-name="r" unicode="r" horiz-adv-x="538" 
d="M83 751h-63l-5 -5l29 -82v-464c0 -78 -14 -148 -44 -212v-6l5 -5l59 16h63c76 0 113 6 113 17v5c-22 39 -34 79 -34 120v38l-5 131l29 164c84 120 155 179 211 179h53l5 -5l15 5v11l-5 6c-62 36 -98 64 -108 82h-4l-157 -148h-20l-10 11v28c0 19 14 52 40 98l-10 11z" />
    <glyph glyph-name="s" unicode="s" horiz-adv-x="581" 
d="M231 786c-126 0 -201 -67 -226 -203c0 -26 14 -64 42 -112c4 -26 63 -62 178 -107c100 -38 149 -122 149 -252l-66 -16h-35c-54 11 -91 27 -113 48c-8 79 -22 118 -42 118h-6l-214 -203v-6l6 -5l125 32h18c126 -53 203 -80 232 -80c34 0 75 7 124 21
c88 33 131 88 131 166v22c0 38 -6 75 -18 112c-38 89 -114 133 -226 133c-82 0 -140 40 -172 118v16c5 13 23 24 54 32c30 0 86 -8 166 -26c147 34 220 73 220 117c0 50 -39 75 -119 75v-11l42 -37v-16l-18 -16h-36c-115 54 -180 80 -196 80z" />
    <glyph glyph-name="t" unicode="t" horiz-adv-x="467" 
d="M87 1007c-38 0 -67 -9 -87 -29c0 -4 6 -7 17 -7c17 0 25 -24 25 -72v-36c0 -92 -10 -288 -30 -590v-3c0 -48 20 -95 59 -141c44 -86 116 -129 216 -129h16c81 16 121 34 121 54c0 8 -2 11 -8 11h-4l-42 -29h-25c-38 0 -75 10 -112 29c-33 27 -50 111 -50 251v116l4 122
c0 53 13 79 37 79h46c23 0 65 -9 125 -29h4l4 11l-4 119v3h-12c0 -26 -48 -39 -146 -39h-37l-4 43v147c0 52 18 87 54 105v3c0 8 -15 11 -46 11h-121z" />
    <glyph glyph-name="u" unicode="u" horiz-adv-x="676" 
d="M11 755l-11 -11c26 -22 39 -45 39 -69v-364l12 -113c48 -132 133 -198 254 -198h5c63 0 119 22 169 64c67 -39 120 -59 158 -59l23 6v5c-8 14 -20 21 -34 21c-45 26 -68 118 -68 274v5l6 262c0 72 25 122 73 150c0 12 -24 20 -73 22l-118 -16v-11c30 -29 45 -102 45 -220
v-257l-6 -69c-70 -82 -120 -123 -152 -123c-68 0 -102 73 -102 219v214l6 123c0 56 23 97 68 124v10l-23 6l-62 -6h-56z" />
    <glyph glyph-name="v" unicode="v" horiz-adv-x="707" 
d="M625 763c-93 -10 -140 -23 -140 -37v-10c90 -23 135 -62 135 -116v-63c0 -30 -3 -53 -11 -69c-54 -164 -112 -279 -172 -347h-6c-34 38 -100 191 -198 458v26c0 36 29 75 86 116v10l-167 21c-77 0 -143 -19 -199 -57c0 -7 16 -14 48 -21c71 -54 155 -244 253 -569
c0 -70 45 -105 134 -105h6c33 0 56 7 70 21c147 231 220 405 220 521v47c0 69 -19 127 -59 174z" />
    <glyph glyph-name="w" unicode="w" horiz-adv-x="1098" 
d="M154 767c-25 -14 -76 -30 -154 -48v-16l5 -6c65 -32 97 -60 97 -86c-21 -123 -32 -230 -32 -321c0 -71 30 -139 88 -204c72 -50 135 -75 191 -75c48 0 85 11 112 32h18c0 -14 48 -29 144 -43h19c82 0 152 34 209 102l19 -16c14 -39 59 -59 135 -59h32l33 5v16
c-56 30 -84 120 -84 268v124l-4 225c17 39 35 62 55 70c0 12 -76 19 -228 21l-13 -5l37 -48v-252c0 -123 -3 -214 -10 -274c0 -71 -72 -107 -218 -107c-37 24 -56 77 -56 161c0 162 34 330 102 504c0 14 -10 21 -32 21c-176 0 -265 -9 -265 -27v-5c50 -22 82 -51 97 -86v-5
c-24 -147 -37 -235 -37 -263v-139c0 -32 8 -75 23 -129v-5c0 -14 -27 -23 -83 -27h-56c-56 44 -84 121 -84 230c0 136 27 279 79 429c-9 22 -31 33 -65 33h-51z" />
    <glyph glyph-name="x" unicode="x" horiz-adv-x="731" 
d="M140 771l-36 -5c-53 0 -80 -51 -80 -153v-22c0 -17 7 -27 19 -31h6l6 5c43 71 77 106 103 106h13l18 -11c64 -42 109 -110 134 -206v-10l-12 -69c-66 -143 -133 -236 -201 -280h-19l13 69l-13 10c-25 -16 -55 -62 -91 -137v-11c0 -12 29 -21 85 -26c77 0 144 48 201 143
c55 126 86 189 92 190h6c85 -222 168 -333 250 -333c49 11 73 25 73 42c-22 46 -52 96 -91 148l-165 354v26c16 64 51 95 104 95h42l61 -15l25 5v16c-56 46 -103 68 -141 68h-97c-5 -38 -21 -73 -49 -105h-12c-109 92 -190 137 -244 137z" />
    <glyph glyph-name="y" unicode="y" horiz-adv-x="751" 
d="M161 747c-114 -2 -172 -11 -172 -27v-5l12 -11h55c31 0 48 -5 50 -16v-11l-50 -264l13 -103c44 -136 132 -205 264 -205l147 11l12 -11v-43l-12 -97c-63 -107 -122 -161 -178 -161h-61l-43 32c-12 62 -25 92 -37 92c-10 0 -19 -12 -25 -38l12 -65
c36 -93 103 -140 203 -140h67c30 0 52 4 68 11c111 58 166 126 166 205v5l-19 264c0 193 7 364 19 512c0 29 23 43 67 43v17l-31 5c-188 -4 -282 -16 -282 -38v-5c17 0 25 -3 25 -11c45 0 67 -161 67 -485v-11c-17 -25 -46 -38 -86 -38l-67 17c-65 39 -98 114 -98 226
c0 111 23 219 67 323l-6 17z" />
    <glyph glyph-name="z" unicode="z" horiz-adv-x="633" 
d="M45 798l-10 -11v-164c0 -18 5 -30 15 -34c52 91 122 136 210 136h20c53 0 79 -5 79 -17c-11 -38 -87 -193 -229 -463l-130 -237h5l5 -6h5l70 23h75l60 -6l244 -96l30 6c37 52 55 107 55 163c0 20 -5 31 -15 34c-28 -45 -68 -68 -120 -68l-65 6l-35 -6l-89 23v11
c60 175 188 399 384 672v11c-1 8 -9 16 -25 23l-80 -11l-100 5l-309 -17z" />
    <glyph glyph-name="braceleft" unicode="{" 
d="M665 1598l-14 13h-123c-80 0 -130 -70 -148 -211c0 -46 30 -218 89 -514v-27c0 -33 -26 -86 -79 -158v-13c53 -64 79 -122 79 -172l-59 -461c0 -166 43 -260 127 -284c57 -22 100 -33 128 -33l20 20v13c0 8 -28 28 -84 59c-26 31 -39 75 -39 132c0 61 9 156 25 284v99
c0 91 -36 196 -109 316l-34 40v6c99 151 148 265 148 343l-55 304v39c8 110 35 165 79 165h5l34 -13v7z" />
    <glyph glyph-name="bar" unicode="|" 
d="M427 1577v-1995h160v1995h-160z" />
    <glyph glyph-name="braceright" unicode="}" 
d="M365 1611l-14 -13l10 -46v-7l34 13h5c45 0 71 -55 79 -165v-39l-55 -304c0 -78 50 -192 148 -343v-6l-34 -40c-72 -120 -109 -225 -109 -316v-99c17 -128 25 -223 25 -284c0 -57 -13 -101 -39 -132c-56 -31 -84 -51 -84 -59v-13l20 -20c29 0 72 11 128 33
c85 24 127 118 127 284l-59 461c0 50 27 108 79 172v13c-52 72 -79 125 -79 158v27c60 296 89 468 89 514c-18 141 -67 211 -148 211h-123z" />
    <glyph glyph-name="asciitilde" unicode="~" 
d="M908 946c-9 0 -14 -15 -14 -45c-22 -117 -62 -176 -122 -176l-36 4c-270 123 -419 184 -449 184c-70 0 -128 -36 -172 -110l-41 -196l23 -16c12 0 18 10 18 28c51 118 117 176 199 176h46c30 0 76 -22 140 -66c126 -111 207 -167 245 -167c21 5 45 19 72 41
c73 116 109 216 109 298z" />
    <glyph glyph-name="exclamdown" unicode="&#xa1;" horiz-adv-x="672" 
d="M308 1l51 -5h15c49 0 79 66 90 196c0 203 -36 533 -110 990l-5 5h-51l-10 -10v-6l5 -174c-40 -228 -60 -459 -60 -694c0 -145 25 -246 75 -302zM268 1420c0 -24 19 -45 55 -63c25 0 42 21 51 63c0 18 -15 35 -46 53c-40 -14 -60 -32 -60 -53z" />
    <glyph glyph-name="cent" unicode="&#xa2;" horiz-adv-x="1139" 
d="M863 1489c-86 -13 -129 -31 -129 -53c0 -73 -41 -196 -123 -368c0 -49 -41 -74 -124 -74c-213 -84 -320 -211 -320 -379c0 -100 66 -182 197 -245c-53 -190 -98 -321 -135 -394v-5c0 -6 10 -11 30 -16c62 11 99 22 111 32c0 124 31 250 93 378c90 0 191 29 302 85
c181 121 271 197 271 229l-6 32h-12c-23 0 -66 -28 -130 -85c-163 -118 -294 -184 -394 -197h-7v11c0 26 13 83 37 170c65 203 104 304 118 304h12c22 -8 49 -35 80 -80c17 0 38 34 62 101v5h-7l-49 -37c-19 0 -46 22 -80 64v21l31 80c73 224 141 352 203 384v10zM377 573
c0 42 4 70 12 85c44 174 96 261 154 261h6c0 -28 -22 -93 -68 -197c-42 -144 -70 -220 -86 -229c-12 0 -18 20 -18 59v21z" />
    <glyph glyph-name="sterling" unicode="&#xa3;" 
d="M215 1444v-5c-86 -16 -129 -66 -129 -150c0 -43 33 -91 99 -144c79 -39 123 -65 132 -78c54 -135 81 -230 81 -284v-5c-62 -6 -106 -15 -132 -25l-30 30h-9c-36 -41 -55 -74 -55 -98v-10l8 -10h9l60 26h158c20 0 56 -106 107 -320c49 -103 73 -162 73 -176v-5
c-168 -79 -278 -119 -330 -119h-60c-31 0 -47 14 -47 42v10l5 5c86 19 128 33 128 41l-17 16c-154 -6 -231 -17 -231 -31c42 -110 104 -165 184 -165h30c50 0 102 9 158 26c120 69 186 103 197 103h17c45 -50 105 -102 179 -155c52 18 81 32 86 41c43 0 70 52 81 155
c0 84 -47 132 -141 145c-16 0 -53 -17 -111 -52h-9l-21 26c-65 220 -98 352 -98 397v16h145c13 0 26 -10 38 -31h5c27 0 57 45 90 134l-18 15h-4l-4 -5c-36 -27 -110 -41 -222 -41h-60l-60 258v20l4 6c152 0 271 47 355 139c48 27 89 92 124 196c-6 18 -16 26 -30 26
l-197 10l-17 -15v-5c82 -38 124 -69 124 -93l-4 -31c-81 -110 -189 -165 -325 -165h-43l-21 5c-44 141 -84 229 -120 263c0 23 -44 45 -132 67zM176 1279c5 42 15 62 30 62c53 -70 82 -123 86 -160v-21l-5 -5c-74 28 -111 66 -111 114v10zM736 180c8 21 45 35 111 41h22
c34 -8 51 -34 51 -77c0 -52 -12 -78 -38 -78h-5c-46 0 -93 35 -141 103v11z" />
    <glyph glyph-name="currency" unicode="&#xa4;" 
d="M200 1153c-74 -32 -113 -53 -118 -64v-25c91 -48 136 -93 136 -134v-5c-59 -52 -89 -110 -89 -173c10 -64 22 -102 36 -114c0 -28 36 -81 106 -158l-5 -30c-59 -73 -89 -114 -89 -124c0 -22 30 -43 89 -64l23 10c35 93 69 152 101 178l136 -20l160 45h24l17 -10
c74 -118 121 -178 142 -178c30 0 65 17 107 49v10c-87 87 -142 155 -166 203v10c44 60 65 116 65 168c0 60 -29 138 -88 233v5l41 40c44 0 65 18 65 54c-60 53 -102 79 -124 79l-30 -20c-25 -67 -49 -110 -71 -128c-82 26 -145 39 -189 39l-136 -15c-18 0 -32 5 -42 15
c-50 83 -83 124 -101 124zM360 841c4 44 12 65 24 65h18c43 0 92 -13 148 -40c75 -11 112 -52 112 -124v-64c0 -69 -29 -120 -89 -154h-47c-110 78 -166 164 -166 258v59z" />
    <glyph glyph-name="yen" unicode="&#xa5;" horiz-adv-x="1262" 
d="M374 1231h-160c-103 0 -155 -10 -155 -31l114 -102c156 -146 273 -275 351 -389c24 -14 36 -62 36 -145l-26 -5h-82c-102 0 -173 -35 -212 -106c0 -21 5 -33 15 -35h6c134 59 222 88 263 88h21l10 -9v-181h-145l-31 22h-5c-89 -61 -134 -105 -134 -132l21 -18h5l20 4
c54 39 132 58 233 58h36v-128c0 -70 -17 -111 -52 -124v-4c0 -8 56 -17 166 -27h36c81 3 126 12 134 27v13c-20 7 -31 13 -31 17c-38 0 -57 76 -57 226v4h93l37 -26h5c12 7 57 58 134 154v14l-5 4h-5c-64 -36 -148 -64 -253 -84l-11 9v164c0 7 11 11 31 13h98l73 -9h15
l93 102v8l-15 14h-11c-48 -32 -134 -49 -258 -49h-15c-8 0 -13 14 -16 40c0 40 61 149 181 327c75 122 135 194 181 216l98 53v14l-62 9h-140l-98 -9v-18c44 -16 75 -34 93 -53c0 -20 -20 -57 -62 -110c-75 -128 -146 -227 -212 -297c-26 0 -98 92 -217 274
c-70 84 -107 136 -113 155v13c48 18 72 30 72 36v4z" />
    <glyph glyph-name="brokenbar" unicode="&#xa6;" 
d="M427 371v-789h160v789h-160zM427 1578v-789h160v789h-160z" />
    <glyph glyph-name="section" unicode="&#xa7;" 
d="M645 1441c-38 0 -67 -4 -89 -13c-151 -62 -227 -139 -227 -230c0 -63 46 -166 138 -309v-7c-26 -59 -108 -147 -244 -263c-59 -24 -89 -46 -89 -66c11 -40 38 -86 81 -138c93 -103 153 -182 179 -236c157 -182 235 -312 235 -388c-8 -44 -46 -66 -113 -66h-49
c-22 9 -38 22 -49 39v79l-16 13h-8c-38 -29 -57 -64 -57 -105v-20c27 -109 124 -164 292 -164h49c162 80 243 155 243 224c0 86 -86 195 -259 328c-103 66 -155 110 -155 132v6c170 141 313 231 431 270v26c-98 70 -180 133 -244 191c-108 58 -162 183 -162 375l8 92
c49 106 119 158 211 158h8c38 0 76 -24 114 -73v-59l-98 -98v-7h25c108 52 162 98 162 138l-16 33c-91 92 -191 138 -301 138zM288 507c70 58 110 86 122 86c88 96 140 144 154 144c28 0 80 -39 154 -118c-70 -42 -170 -121 -300 -237h-16l-114 106v19z" />
    <glyph glyph-name="dieresis" unicode="&#xa8;" horiz-adv-x="1024" 
d="M693 1358c-60 -39 -90 -67 -90 -84c0 -75 40 -118 118 -129h21l62 68v8c0 44 -37 89 -111 137zM263 1346c-41 -28 -62 -54 -62 -76c19 -80 49 -121 90 -121c28 0 58 23 90 68v8c0 39 -39 79 -118 121z" />
    <glyph glyph-name="copyright" unicode="&#xa9;" horiz-adv-x="1674" 
d="M965 1453c-181 0 -327 -42 -438 -128c-280 -227 -421 -476 -421 -746v-66c0 -45 15 -108 45 -189c64 -127 152 -216 264 -266c62 -38 163 -66 303 -82c266 0 479 75 639 225c158 178 236 365 236 562v41c-48 224 -118 367 -208 429c-129 147 -269 220 -420 220zM246 697
c0 210 85 394 253 552c80 63 163 99 247 107h45c153 0 288 -58 404 -174c168 -170 252 -337 252 -501l-17 -219c-9 -85 -56 -170 -140 -256c-58 -69 -159 -118 -303 -148h-123c-130 0 -243 31 -337 92c-187 132 -281 315 -281 547zM802 1003c0 -6 -13 -10 -39 -10
c-94 -84 -141 -180 -141 -286c0 -57 8 -105 23 -143c48 -119 122 -179 224 -179c128 0 254 77 376 230l-22 -5c-104 -95 -200 -143 -287 -143h-50l-22 5c-75 38 -113 115 -113 230v5c0 150 28 225 84 225h12l112 -51c12 2 17 16 17 40v6c0 41 -7 61 -23 61h-5l-45 -10h-23z
" />
    <glyph glyph-name="ordfeminine" unicode="&#xaa;" horiz-adv-x="648" 
d="M381 1395l-120 -16c-28 0 -43 -12 -43 -38v-19l4 -16h11c34 30 59 44 74 44h6c0 -6 -27 -83 -83 -229c-85 -230 -138 -362 -160 -394c-31 -10 -49 -17 -54 -21v-4l6 -10l48 2h166l8 5l-3 7c-34 10 -51 21 -51 35l5 38c44 150 74 225 92 225l163 5
c36 -129 54 -212 54 -249v-2l-3 -19c0 -4 -12 -14 -37 -31v-2c2 -4 9 -7 23 -7h54l37 -2l31 2h23v7l-9 9c-24 0 -48 26 -71 78c-13 59 -30 123 -51 192c0 10 -16 68 -48 176c-22 133 -46 211 -72 234zM287 1046c44 130 73 200 88 209h3c20 -39 40 -108 60 -207v-4l-57 -3
h-88z" />
    <glyph glyph-name="guillemotleft" unicode="&#xab;" horiz-adv-x="944" 
d="M733 818c-27 0 -46 -5 -58 -17l-192 -303v-6c34 -43 130 -125 288 -246c16 0 26 6 29 17v11l-29 40c-115 118 -173 181 -173 189l14 46c119 150 178 234 178 252v6zM430 812v-5c-77 -11 -116 -28 -116 -52c0 -28 -72 -117 -216 -269v-6c7 -12 45 -39 115 -80l246 -200
l14 6v5c0 26 -75 119 -226 281v6c131 167 197 268 197 303v6z" />
    <glyph glyph-name="logicalnot" unicode="&#xac;" 
d="M106 847v-203l-24 -77l18 -7c0 7 17 14 49 21c0 24 211 52 632 84h6v-140c0 -30 -24 -86 -73 -168v-14l18 -7l85 49c98 19 146 33 146 42v7c-21 42 -35 63 -43 63l7 259c0 19 -8 31 -25 35l-85 -7h-480c-124 0 -195 21 -212 63h-19z" />
    <glyph glyph-name="registered" unicode="&#xae;" horiz-adv-x="1674" 
d="M1027 1456h-122c-211 -30 -399 -110 -563 -239c-187 -114 -281 -340 -281 -680v-11c0 -36 8 -73 22 -111c0 -72 39 -152 116 -239c144 -131 265 -197 364 -197h260c269 42 403 78 403 106c92 42 182 123 270 245c92 175 138 336 138 483l-11 96
c-66 227 -122 340 -166 340c-59 79 -202 148 -430 207zM238 638c0 176 68 362 204 558c161 135 314 202 458 202h66c46 0 143 -48 293 -144c122 -130 182 -262 182 -398v-75c0 -236 -59 -414 -177 -536c-99 -138 -235 -208 -408 -208h-116c-117 10 -231 65 -342 165
c-106 128 -160 266 -160 415v21zM911 1084c-34 0 -124 -23 -270 -69h-28c-46 39 -75 58 -88 58l-17 -21c0 -58 33 -104 99 -138c26 -6 39 -24 39 -53v-175l-5 -239l-56 -27v-11c2 -7 12 -14 28 -21l61 5h27l72 -10c19 3 28 8 28 16l-50 133v175l105 -11c52 0 77 -21 77 -64
v-10l-28 -170l11 -64c46 -69 105 -119 177 -149c28 0 42 6 44 16c-22 27 -42 41 -60 43c-33 18 -50 69 -50 154l5 101c0 28 -12 76 -38 143c0 7 19 14 55 22c63 48 94 99 94 154c-11 50 -24 84 -39 101c-73 74 -137 111 -193 111zM745 765h-5l5 138c0 64 17 96 50 96h17
c100 -24 149 -66 149 -127v-16c0 -57 -26 -93 -78 -107h-77z" />
    <glyph glyph-name="macron" unicode="&#xaf;" horiz-adv-x="670" 
d="M625 1494c-15 -16 -44 -24 -88 -24h-108c-66 0 -136 -4 -212 -12l-172 20h-8c-20 0 -30 -5 -32 -16l12 -108l-4 -24l8 -8h4c21 22 37 32 48 32h68l172 8h168c83 -5 135 -12 156 -20h8l4 12l-4 16v4c0 80 -6 120 -20 120z" />
    <glyph glyph-name="degree" unicode="&#xb0;" horiz-adv-x="674" 
d="M325 1484l-117 -31c-80 -47 -140 -138 -179 -274l16 -94c64 -140 139 -211 225 -211h55l93 8c151 94 226 201 226 320c0 142 -106 236 -319 282zM270 1375h109c32 -7 53 -75 63 -204l-8 -39c0 -130 -54 -195 -164 -195c-36 23 -54 59 -54 109v86c0 36 18 117 54 243z" />
    <glyph glyph-name="plusminus" unicode="&#xb1;" 
d="M578 1223l-43 -25h-127l-37 -5v-15c0 -6 6 -10 16 -10c53 -14 79 -40 79 -79v-243c0 -23 -42 -35 -127 -35c-136 0 -219 9 -249 25h-5l5 -64l-5 -100l5 -29h11c10 0 17 12 21 34c0 24 115 35 344 35h6c0 -121 9 -214 26 -278l-10 -29l-302 -50h-85l-5 -15l5 -30l-5 -64
c2 -16 7 -25 15 -25h6c6 0 17 12 32 35c297 43 493 64 588 64h100c17 0 42 -14 75 -44h15l6 14l-6 5v65l11 69l-16 15h-10c-24 -29 -104 -44 -239 -44h-111v327l106 5h159l32 -10c26 -52 42 -79 47 -79h6l5 5l-5 54l5 75v54l-5 25c-44 -23 -108 -35 -191 -35h-170
c-10 80 -16 177 -16 293c0 28 20 56 59 84v20z" />
    <glyph glyph-name="twosuperior" unicode="&#xb2;" 
d="M464 1493l-76 -19c-44 -22 -67 -50 -67 -84l3 -16c21 -46 46 -69 75 -69c20 4 34 9 40 16c0 10 -3 20 -11 29l-15 -13c-9 0 -14 6 -14 16v7c0 27 28 40 82 40h48c63 -18 94 -50 94 -95v-5c0 -28 -23 -88 -70 -178c-54 -92 -96 -156 -125 -190h-3c-43 16 -73 23 -90 23h-9
c-47 0 -77 -35 -89 -105v-8c8 -51 34 -77 78 -77c16 0 37 11 65 31c27 36 43 54 48 54l11 -6c86 -74 153 -111 201 -111l48 8c47 27 70 49 70 66c0 35 -39 66 -118 93c-9 -1 -14 -4 -14 -8v-5l3 -3c32 -12 48 -29 48 -50c0 -19 -17 -29 -51 -29c-56 0 -111 34 -165 100
c0 5 26 47 78 127c50 65 96 160 138 286c0 22 -2 41 -8 58c-34 78 -103 117 -205 117zM288 826c16 37 34 55 55 55h20c14 0 22 -2 23 -8v-2c-13 -20 -33 -40 -60 -59h-16c-14 0 -21 3 -22 8v6z" />
    <glyph glyph-name="threesuperior" unicode="&#xb3;" 
d="M452 1488h-38c-76 -24 -115 -52 -115 -83c0 -34 32 -56 94 -68c15 0 30 8 45 22v8l-69 -3c-12 0 -21 4 -25 10v8c8 34 30 50 66 50h60c72 -26 108 -59 108 -98c0 -59 -27 -95 -81 -108c-74 -8 -111 -16 -111 -23v-8c113 -42 188 -73 226 -93c58 -48 87 -93 87 -134
c0 -28 -4 -50 -14 -65c-14 -59 -55 -89 -125 -89l-38 3c-54 0 -98 20 -132 58c0 22 5 42 13 60c26 13 39 21 39 23v5l-21 5l-21 -5l-35 5l-21 -2c-28 -8 -42 -24 -42 -48l4 -20c25 -72 117 -109 275 -109l35 5c107 51 160 121 160 209l-10 31c-18 58 -61 109 -129 151
c-60 21 -91 33 -91 36c89 52 133 95 133 128l-4 28c-24 74 -99 111 -223 111z" />
    <glyph glyph-name="acute" unicode="&#xb4;" horiz-adv-x="1024" 
d="M685 1444c-24 0 -59 -9 -105 -28l-100 -134c-118 -126 -177 -203 -177 -231l14 -8h13c88 78 172 140 250 187c84 75 134 135 150 181c-19 20 -34 31 -45 33z" />
    <glyph glyph-name="mu" unicode="&#xb5;" horiz-adv-x="951" 
d="M845 1202c-98 0 -148 -8 -148 -25v-13l12 -21c25 0 47 -59 66 -178l-8 -364v-270c0 -82 -9 -140 -29 -174c-23 -58 -75 -88 -155 -88c-59 0 -106 14 -140 42c-48 41 -73 75 -73 101c-20 0 -35 164 -46 491c0 86 7 186 21 300c0 84 24 142 70 174c0 9 -11 16 -33 21
c0 -9 -63 -16 -189 -21l-69 8c-42 -2 -66 -7 -74 -13v-4l57 -72c9 -54 26 -268 50 -643c19 -192 28 -380 28 -562v-140c0 -64 -5 -110 -16 -139v-4l8 -13l49 21l78 -4c66 2 98 8 98 17v4c-38 8 -57 13 -57 17c-31 0 -50 144 -57 431v5l4 4h4c56 -56 116 -85 180 -85
c135 0 222 34 262 102h8v-17c0 -18 -9 -38 -28 -59v-9c2 -8 10 -13 24 -13h107l12 9c-27 40 -41 66 -41 76v943c0 45 15 80 45 106c25 6 37 14 37 25c0 18 -19 29 -57 34z" />
    <glyph glyph-name="paragraph" unicode="&#xb6;" horiz-adv-x="1098" 
d="M481 1440c-162 0 -275 -18 -340 -56c-74 -78 -112 -149 -112 -213v-45c0 -88 40 -159 120 -213c0 -16 83 -28 248 -36c16 0 24 -25 24 -76l8 -588h-4c-26 -114 -44 -172 -56 -172c-32 -8 -48 -17 -48 -26v-10c0 -15 38 -23 112 -25c25 10 53 15 84 15h24l64 -15l24 15
c0 22 -16 38 -48 46c-21 0 -32 276 -32 826c4 301 9 451 16 451c0 21 43 31 128 31l148 -5l12 -5l12 -999v-5c0 -144 -12 -233 -36 -269c-38 -18 -58 -29 -60 -35v-10c2 -10 13 -16 32 -16h96c70 0 104 7 104 21c-48 46 -74 95 -80 147v1090l4 86c24 0 49 -8 76 -26
c22 -52 37 -81 44 -86l16 15l-8 66l8 92c-1 10 -9 19 -24 25l-116 -5h-152zM161 1126c0 56 15 110 44 162c22 58 92 86 208 86l8 -10v-137l-4 -279l-148 26c-61 0 -97 46 -108 136v16z" />
    <glyph glyph-name="periodcentered" unicode="&#xb7;" horiz-adv-x="508" 
d="M249 834h-6c-82 -50 -124 -114 -124 -193c0 -39 33 -67 98 -85c108 33 162 82 162 147c-48 88 -91 131 -130 131z" />
    <glyph glyph-name="periodcentered" unicode="&#x2219;" horiz-adv-x="508" 
d="M249 834h-6c-82 -50 -124 -114 -124 -193c0 -39 33 -67 98 -85c108 33 162 82 162 147c-48 88 -91 131 -130 131z" />
    <glyph glyph-name="cedilla" unicode="&#xb8;" horiz-adv-x="1024" 
d="M539 29c-40 -2 -72 -11 -95 -28l-39 -188l11 -17c66 45 127 67 184 67h11c49 0 73 -24 73 -72v-61c-51 -66 -98 -100 -140 -100h-44c-26 0 -60 17 -101 50h-5l-6 -5c6 -46 57 -80 151 -100c149 30 223 60 223 89c28 0 50 54 67 160c-34 104 -90 155 -167 155l-84 -11h-17
v17c0 28 -7 42 -22 44z" />
    <glyph glyph-name="onesuperior" unicode="&#xb9;" 
d="M488 1493l-6 -5c-32 -56 -63 -89 -91 -98c-50 -8 -76 -13 -76 -17v-3c17 -18 43 -32 79 -42l64 12h6l3 -7l-3 -469c0 -18 -18 -36 -55 -55v-2c0 -3 5 -6 14 -8l27 3c10 0 15 -2 17 -8l24 5h76l26 5l26 -2l9 2v5l-18 15c-21 0 -32 166 -32 496c0 68 3 118 9 150
c-12 16 -25 23 -41 23h-58z" />
    <glyph glyph-name="ordmasculine" unicode="&#xba;" horiz-adv-x="718" 
d="M358 1496l-117 -31c-80 -47 -140 -138 -179 -274l16 -94c64 -140 139 -211 225 -211h55l93 8c151 94 226 201 226 320c0 142 -106 236 -319 282zM303 1387h109c32 -7 53 -75 63 -204l-8 -39c0 -130 -54 -195 -164 -195c-36 23 -54 59 -54 109v86c0 36 18 117 54 243z" />
    <glyph glyph-name="guillemotright" unicode="&#xbb;" horiz-adv-x="944" 
d="M243 805c-11 12 -30 17 -58 17l-57 -11v-6c0 -18 60 -102 178 -252l14 -46c0 -8 -57 -71 -173 -189l-29 -40v-11c4 -11 13 -17 29 -17c158 121 254 203 288 246v6zM488 811v5l-14 -5v-6c1 -35 67 -136 197 -303v-6c-150 -162 -226 -255 -226 -281v-5l14 -6l246 200
c70 41 109 68 115 80v6c-144 152 -216 241 -216 269c0 24 -38 41 -116 52z" />
    <glyph glyph-name="onequarter" unicode="&#xbc;" horiz-adv-x="1499" 
d="M294 1431l-15 -16c0 -54 -34 -101 -102 -139v-11l10 -10h9c14 0 35 11 64 31h15l4 -93l5 -451v-5l-5 -6c-32 -8 -48 -16 -48 -25v-6c2 -10 15 -15 39 -15h34l39 10h44l93 11v20c-32 0 -49 82 -49 244v238l-10 145c0 49 -16 73 -49 73h-53zM1126 1431
c-88 -17 -154 -26 -196 -26h-10l-68 10l-10 -10l24 -36v-11c0 -18 -22 -82 -68 -191c-156 -307 -295 -596 -416 -866l-112 -212c0 -33 -34 -61 -103 -83c4 -20 32 -31 83 -31l20 5c170 10 254 18 254 26l-39 47v77c0 26 22 97 64 213l220 487l264 492c16 37 57 65 122 83
c-6 18 -16 26 -29 26zM1346 742l-59 -26h-44l-93 15l-15 -5l15 -46v-52l-5 -218c-55 -34 -88 -52 -98 -52h-4v32l14 139v94c-18 69 -50 103 -98 103c-52 -12 -78 -36 -78 -72c8 -52 30 -78 64 -78l39 21v10l-34 31v5c8 22 21 32 39 32h5l9 -11v-31c0 -11 -4 -23 -14 -36v-16
c0 -32 -19 -152 -59 -362c0 -20 8 -32 24 -37l15 5c84 101 138 151 162 151h9v-166c0 -95 -17 -152 -53 -171v-5c0 -14 20 -21 58 -21h162c17 0 32 6 44 16l-5 15l-15 5c-42 0 -63 13 -63 37v25c0 96 5 189 14 280h15l39 -20c20 0 35 12 44 36l-10 21c-58 20 -88 32 -88 36
v21c0 43 5 86 15 129c0 72 21 120 63 145v16z" />
    <glyph glyph-name="onehalf" unicode="&#xbd;" horiz-adv-x="1499" 
d="M1082 1423c-78 0 -132 -12 -164 -36l4 -51c0 -22 -9 -48 -27 -77c-81 -225 -144 -375 -190 -450c-105 -204 -240 -450 -404 -738c0 -6 -20 -24 -62 -56v-10c0 -6 9 -13 27 -21c16 7 54 12 115 15c78 -3 133 -10 164 -20l22 5v21c-32 12 -49 28 -49 46
c0 73 43 199 129 379c196 412 314 654 355 727c23 87 76 167 159 240v11c-1 10 -13 15 -35 15h-44zM399 1413l-102 -16c-12 -68 -33 -115 -62 -143c-12 0 -18 -3 -18 -10v-16l22 -5l49 5h4l-8 -476c-42 -22 -64 -37 -67 -46v-10c0 -6 15 -13 44 -21l76 11h9
c61 0 108 -5 141 -16l14 5v6l-14 20c-50 0 -75 19 -75 56l13 584l5 15c-4 38 -14 57 -31 57zM1059 706c-83 0 -132 -47 -146 -143c12 -58 32 -87 62 -87c39 0 64 12 76 36v5l-9 10h-40v20c0 38 24 62 71 72h35c74 -21 111 -50 111 -87v-36c-44 -163 -81 -252 -111 -266
l-146 56l-58 -15c-53 -40 -80 -86 -80 -138c0 -25 5 -47 14 -67c0 -30 25 -46 75 -46c31 0 77 26 138 77h22c50 -51 94 -77 133 -77h31c61 0 99 28 115 82c0 34 -25 80 -75 138h-14v-20c18 -33 27 -60 27 -82v-5h-9c-14 0 -54 29 -120 87c67 111 103 203 107 276v5
c-44 137 -114 205 -209 205zM882 127c0 28 14 41 40 41h44c27 -6 40 -15 40 -25c-8 -16 -39 -27 -93 -31h-31v15z" />
    <glyph glyph-name="threequarters" unicode="&#xbe;" horiz-adv-x="1499" 
d="M1218 1432l-98 -21l-251 6l-33 -6v-15c32 -15 47 -25 47 -31v-30c0 -38 -68 -194 -205 -467c-182 -376 -291 -586 -327 -630c-67 -157 -131 -236 -191 -236v-16c0 -5 8 -10 23 -15c0 10 42 17 126 21l159 -11c16 5 23 10 23 16v15c-37 10 -56 19 -56 26v10l65 133
c214 394 371 709 471 943c57 126 108 208 154 246c75 20 112 35 112 47h-5l-9 10zM374 1396c-72 0 -120 -53 -144 -159c0 -44 22 -74 65 -92c38 15 56 35 56 61l-37 -10v31c0 38 14 56 42 56h23c41 -4 61 -21 61 -51v-31c0 -16 -12 -36 -38 -61v-16c47 -62 70 -103 70 -123
c0 -92 -21 -138 -65 -138h-70l-18 20v16c0 25 22 56 65 92v5l-24 5h-4c-31 0 -56 -37 -75 -112c0 -36 35 -65 103 -88l56 16c81 36 121 97 121 184v26c0 50 -26 96 -79 138v11c16 22 26 53 32 92c-18 86 -56 128 -112 128h-28zM1242 719c-48 -16 -85 -25 -112 -25l-51 5
l-19 -5l19 -77l-10 -190c-2 -61 -27 -92 -74 -92h-5c0 33 10 106 28 220c-10 86 -34 129 -70 129h-5c-35 0 -55 -22 -60 -67l14 -21h14l14 41l4 6h19c19 -10 28 -36 28 -77c0 -70 -28 -179 -84 -328l23 -26h19c52 34 87 51 103 51h18v-36l-9 -92c-12 -68 -29 -110 -51 -128
v-15l14 -6c0 6 22 11 65 16l112 -10l23 20l-23 31v159l4 138l5 5c23 0 59 -15 107 -46l5 5v5c0 49 -35 78 -107 87c0 110 20 215 60 313l-9 10h-9z" />
    <glyph glyph-name="questiondown" unicode="&#xbf;" horiz-adv-x="748" 
d="M416 0h15c227 38 340 124 340 257c0 32 -30 55 -91 71c-38 0 -90 -20 -158 -61l11 -52l35 21h25c24 0 36 -12 36 -36v-5c0 -57 -64 -98 -193 -123h-66l-51 5c-80 27 -121 150 -121 369c0 165 39 247 116 247h46c77 -24 136 -60 178 -108h15c17 88 25 175 25 262v205
l31 133l-11 16c-124 -12 -187 -26 -187 -41v-11c44 -51 66 -101 66 -149c-5 -194 -15 -292 -31 -292h-10c-77 31 -129 46 -157 46c-34 0 -68 -6 -102 -20c-104 -52 -157 -174 -157 -365c0 -106 41 -198 122 -277c78 -61 170 -92 274 -92zM507 1339c40 0 67 26 81 77
c-11 24 -24 36 -40 36c-28 0 -54 -24 -76 -72c4 -27 15 -41 35 -41z" />
    <glyph glyph-name="Agrave" unicode="&#xc0;" horiz-adv-x="1258" 
d="M732 1457l-239 -34c-56 0 -85 -26 -85 -79v-40l6 -34h22c69 62 118 93 148 93h12c0 -14 -55 -175 -165 -482c-170 -484 -277 -760 -319 -827c-63 -21 -99 -36 -108 -44v-10l11 -20l97 5h330l17 10l-6 15c-68 19 -102 43 -102 73l11 79c86 316 147 473 183 473l324 10
c72 -270 108 -444 108 -522v-5l-6 -40c0 -7 -24 -28 -74 -64v-4c3 -10 18 -15 46 -15h108l74 -5l62 5h46v15l-17 19c-50 0 -97 55 -142 163c-26 124 -61 258 -103 403c0 20 -32 144 -96 370c-42 279 -90 443 -143 492zM545 723c87 274 146 420 176 439h6
c38 -82 78 -226 119 -434v-9l-114 -5h-176zM494 1674c-22 14 -39 20 -50 20c-4 0 -9 -9 -17 -28c0 -19 84 -82 251 -189h3l4 3v7c-32 24 -95 87 -191 187z" />
    <glyph glyph-name="Aacute" unicode="&#xc1;" horiz-adv-x="1262" 
d="M732 1457l-239 -34c-56 0 -85 -26 -85 -79v-40l6 -34h22c69 62 118 93 148 93h12c0 -14 -55 -175 -165 -482c-170 -484 -277 -760 -319 -827c-63 -21 -99 -36 -108 -44v-10l11 -20l97 5h330l17 10l-6 15c-68 19 -102 43 -102 73l11 79c86 316 147 473 183 473l324 10
c72 -270 108 -444 108 -522v-5l-6 -40c0 -7 -24 -28 -74 -64v-4c3 -10 18 -15 46 -15h108l74 -5l62 5h46v15l-17 19c-50 0 -97 55 -142 163c-26 124 -61 258 -103 403c0 20 -32 144 -96 370c-42 279 -90 443 -143 492zM545 723c87 274 146 420 176 439h6
c38 -82 78 -226 119 -434v-9l-114 -5h-176zM926 1685c-10 0 -27 -6 -50 -20c-95 -100 -159 -163 -191 -187v-7l4 -3h3c168 107 251 170 251 189c-7 19 -13 28 -17 28z" />
    <glyph glyph-name="Acircumflex" unicode="&#xc2;" horiz-adv-x="1270" 
d="M705 1767c-42 -42 -66 -72 -72 -89c-37 -87 -68 -142 -94 -166v-3c10 -18 20 -28 28 -28c32 7 52 14 58 22c39 73 67 118 83 135h3c41 -112 71 -169 89 -169l19 22v3c-19 28 -40 75 -64 141c-23 88 -38 132 -44 132h-6zM729 1466l-239 -34c-56 0 -85 -26 -85 -79v-40
l6 -34h22c69 62 118 93 148 93h12c0 -14 -55 -175 -165 -482c-170 -484 -277 -760 -319 -827c-63 -21 -99 -36 -108 -44v-10l11 -20l97 5h330l17 10l-6 15c-68 19 -102 43 -102 73l11 79c86 316 147 473 183 473l324 10c72 -270 108 -444 108 -522v-5l-6 -40
c0 -7 -24 -28 -74 -64v-4c3 -10 18 -15 46 -15h108l74 -5l62 5h46v15l-17 19c-50 0 -97 55 -142 163c-26 124 -61 258 -103 403c0 20 -32 144 -96 370c-42 279 -90 443 -143 492zM542 732c87 274 146 420 176 439h6c38 -82 78 -226 119 -434v-9l-114 -5h-176z" />
    <glyph glyph-name="Atilde" unicode="&#xc3;" horiz-adv-x="1262" 
d="M881 1718c-4 0 -7 -9 -7 -28c-11 -73 -31 -110 -61 -110l-18 2c-135 77 -210 115 -225 115c-35 0 -64 -22 -86 -68l-21 -123l12 -10c6 0 9 6 9 18c26 74 59 110 99 110h23c15 0 39 -14 71 -42c63 -69 104 -104 122 -104c11 3 23 12 36 26c37 72 55 134 55 186zM732 1457
l-239 -34c-56 0 -85 -26 -85 -79v-40l6 -34h22c69 62 118 93 148 93h12c0 -14 -55 -175 -165 -482c-170 -484 -277 -760 -319 -827c-63 -21 -99 -36 -108 -44v-10l11 -20l97 5h330l17 10l-6 15c-68 19 -102 43 -102 73l11 79c86 316 147 473 183 473l324 10
c72 -270 108 -444 108 -522v-5l-6 -40c0 -7 -24 -28 -74 -64v-4c3 -10 18 -15 46 -15h108l74 -5l62 5h46v15l-17 19c-50 0 -97 55 -142 163c-26 124 -61 258 -103 403c0 20 -32 144 -96 370c-42 279 -90 443 -143 492zM545 723c87 274 146 420 176 439h6
c38 -82 78 -226 119 -434v-9l-114 -5h-176z" />
    <glyph glyph-name="Adieresis" unicode="&#xc4;" horiz-adv-x="1262" 
d="M806 1689c-58 -34 -87 -58 -87 -73c0 -66 38 -103 113 -113h21l59 60v7c0 38 -35 77 -106 119zM552 1672c-39 -25 -59 -47 -59 -67c18 -70 47 -105 86 -105c27 0 56 20 87 59v7c0 34 -38 70 -114 106zM732 1457l-239 -34c-56 0 -85 -26 -85 -79v-40l6 -34h22
c69 62 118 93 148 93h12c0 -14 -55 -175 -165 -482c-170 -484 -277 -760 -319 -827c-63 -21 -99 -36 -108 -44v-10l11 -20l97 5h330l17 10l-6 15c-68 19 -102 43 -102 73l11 79c86 316 147 473 183 473l324 10c72 -270 108 -444 108 -522v-5l-6 -40c0 -7 -24 -28 -74 -64v-4
c3 -10 18 -15 46 -15h108l74 -5l62 5h46v15l-17 19c-50 0 -97 55 -142 163c-26 124 -61 258 -103 403c0 20 -32 144 -96 370c-42 279 -90 443 -143 492zM545 723c87 274 146 420 176 439h6c38 -82 78 -226 119 -434v-9l-114 -5h-176z" />
    <glyph glyph-name="Aring" unicode="&#xc5;" horiz-adv-x="1266" 
d="M732 1461l-239 -34c-56 0 -85 -26 -85 -79v-40l6 -34h22c69 62 118 93 148 93h12c0 -14 -55 -175 -165 -482c-170 -484 -277 -760 -319 -827c-63 -21 -99 -36 -108 -44v-10l11 -20l97 5h330l17 10l-6 15c-68 19 -102 43 -102 73l11 79c86 316 147 473 183 473l324 10
c72 -270 108 -444 108 -522v-5l-6 -40c0 -7 -24 -28 -74 -64v-4c3 -10 18 -15 46 -15h108l74 -5l62 5h46v15l-17 19c-50 0 -97 55 -142 163c-26 124 -61 258 -103 403c0 20 -32 144 -96 370c-42 279 -90 443 -143 492zM545 727c87 274 146 420 176 439h6
c38 -82 78 -226 119 -434v-9l-114 -5h-176zM704 1768l-60 -15c-40 -22 -71 -65 -91 -129l8 -44c32 -66 71 -100 115 -100h28l47 4c77 44 115 95 115 151c0 67 -54 111 -162 133zM676 1717h55c16 -4 27 -36 32 -97l-4 -18c0 -61 -27 -92 -83 -92c-18 11 -28 28 -28 51v41
c0 17 10 55 28 115z" />
    <glyph glyph-name="AE" unicode="&#xc6;" horiz-adv-x="1614" 
d="M759 1468c-302 -10 -454 -25 -454 -46c-37 0 -59 -51 -67 -153l6 -15h16c86 85 134 127 144 127h22l-182 -830c-42 -160 -81 -273 -117 -337c-11 -64 -53 -125 -127 -183v-11c4 -10 15 -15 33 -15h172l177 5v5l6 5v11c-52 24 -78 48 -78 71c0 42 10 88 28 138
c52 265 89 397 111 397h11l133 -5l33 10c26 0 47 -5 61 -15l-6 -530l-11 -87l39 -5h521l288 -5c37 45 55 89 55 133v25c0 18 -7 30 -22 36l-67 -56c-46 -48 -179 -72 -398 -72c-76 0 -141 11 -194 31l-17 642v15l11 31l249 5h111l6 -5l44 -56c8 2 15 10 22 25l-11 62l6 81
l-6 15l-88 -30l-311 5l-22 5c-18 0 -27 124 -27 372l5 51h17c126 -118 215 -178 266 -178h27c122 38 183 143 183 316l-6 15h-11c-50 -74 -99 -112 -149 -112h-67l-77 10zM626 1376l44 -5l17 -622c0 -6 -63 -11 -189 -15l-33 15c0 35 13 89 39 163c52 310 93 464 122 464z
" />
    <glyph glyph-name="Ccedilla" unicode="&#xc7;" horiz-adv-x="1053" 
d="M499 1456c-332 0 -499 -281 -499 -843c4 -60 14 -124 30 -191c20 -102 73 -192 159 -269c90 -77 208 -129 353 -155c6 -100 14 -150 24 -150c76 35 143 52 201 52c49 0 75 -22 79 -67v-57c-8 -44 -47 -67 -115 -67h-67l-110 26c-20 0 -38 -8 -55 -26v-10h6l6 -6
c55 -20 144 -34 268 -41h6l86 5c98 0 146 40 146 119c-17 121 -62 181 -134 181l-201 -16c-16 0 -25 11 -25 31v42c74 9 121 21 140 36c151 100 226 164 226 191c0 19 -8 31 -25 36c-22 -14 -38 -29 -48 -46c-141 -100 -275 -150 -402 -150l-61 16c-62 22 -109 67 -140 134
c-64 166 -97 320 -97 460v295l6 62c18 99 34 161 48 186c50 117 123 175 220 175h36c87 0 180 -53 280 -160h12c88 77 151 127 189 150l-24 21h-19c-83 -41 -142 -62 -176 -62l-37 5c-110 62 -181 93 -213 93h-73z" />
    <glyph glyph-name="Egrave" unicode="&#xc8;" horiz-adv-x="1151" 
d="M269 1452h-86c-122 -52 -183 -96 -183 -134v-16l17 -5c63 42 101 62 115 62h17l6 -88l-6 -672l-17 -284c0 -182 -32 -282 -98 -300c0 -14 46 -21 138 -21l579 6l172 -16l29 5c122 0 183 42 183 124c-2 49 -12 73 -29 73h-5c-87 -72 -165 -112 -235 -119h-121
c-176 0 -312 4 -407 10c-11 0 -17 45 -17 134v31c0 168 6 347 17 538c0 45 20 67 58 67h240l23 -5l40 -57h12l11 73v72c0 18 -5 28 -17 31c-15 0 -46 -17 -92 -52l-229 5l-29 6c-11 0 -20 138 -28 413v10l11 11h12l51 -11c189 -134 302 -201 338 -201l29 5
c116 105 188 196 218 274v10h-23c-53 -79 -103 -119 -149 -119h-63l-34 6c-192 90 -341 134 -448 134zM359 1652c-22 14 -39 20 -50 20c-4 0 -9 -9 -17 -28c0 -19 84 -82 251 -189h3l4 3v7c-32 24 -95 87 -191 187z" />
    <glyph glyph-name="Eacute" unicode="&#xc9;" horiz-adv-x="1151" 
d="M668 1694c-10 0 -27 -6 -50 -20c-95 -100 -159 -163 -191 -187v-7l4 -3h3c168 107 251 170 251 189c-7 19 -13 28 -17 28zM269 1452h-86c-122 -52 -183 -96 -183 -134v-16l17 -5c63 42 101 62 115 62h17l6 -88l-6 -672l-17 -284c0 -182 -32 -282 -98 -300
c0 -14 46 -21 138 -21l579 6l172 -16l29 5c122 0 183 42 183 124c-2 49 -12 73 -29 73h-5c-87 -72 -165 -112 -235 -119h-121c-176 0 -312 4 -407 10c-11 0 -17 45 -17 134v31c0 168 6 347 17 538c0 45 20 67 58 67h240l23 -5l40 -57h12l11 73v72c0 18 -5 28 -17 31
c-15 0 -46 -17 -92 -52l-229 5l-29 6c-11 0 -20 138 -28 413v10l11 11h12l51 -11c189 -134 302 -201 338 -201l29 5c116 105 188 196 218 274v10h-23c-53 -79 -103 -119 -149 -119h-63l-34 6c-192 90 -341 134 -448 134z" />
    <glyph glyph-name="Ecircumflex" unicode="&#xca;" horiz-adv-x="1151" 
d="M524 1752c-42 -42 -66 -72 -72 -89c-37 -87 -68 -142 -94 -166v-3c10 -18 20 -28 28 -28c32 7 52 14 58 22c39 73 67 118 83 135h3c41 -112 71 -169 89 -169l19 22v3c-19 28 -40 75 -64 141c-23 88 -38 132 -44 132h-6zM269 1452h-86c-122 -52 -183 -96 -183 -134v-16
l17 -5c63 42 101 62 115 62h17l6 -88l-6 -672l-17 -284c0 -182 -32 -282 -98 -300c0 -14 46 -21 138 -21l579 6l172 -16l29 5c122 0 183 42 183 124c-2 49 -12 73 -29 73h-5c-87 -72 -165 -112 -235 -119h-121c-176 0 -312 4 -407 10c-11 0 -17 45 -17 134v31
c0 168 6 347 17 538c0 45 20 67 58 67h240l23 -5l40 -57h12l11 73v72c0 18 -5 28 -17 31c-15 0 -46 -17 -92 -52l-229 5l-29 6c-11 0 -20 138 -28 413v10l11 11h12l51 -11c189 -134 302 -201 338 -201l29 5c116 105 188 196 218 274v10h-23c-53 -79 -103 -119 -149 -119h-63
l-34 6c-192 90 -341 134 -448 134z" />
    <glyph glyph-name="Edieresis" unicode="&#xcb;" horiz-adv-x="1151" 
d="M269 1452h-86c-122 -52 -183 -96 -183 -134v-16l17 -5c63 42 101 62 115 62h17l6 -88l-6 -672l-17 -284c0 -182 -32 -282 -98 -300c0 -14 46 -21 138 -21l579 6l172 -16l29 5c122 0 183 42 183 124c-2 49 -12 73 -29 73h-5c-87 -72 -165 -112 -235 -119h-121
c-176 0 -312 4 -407 10c-11 0 -17 45 -17 134v31c0 168 6 347 17 538c0 45 20 67 58 67h240l23 -5l40 -57h12l11 73v72c0 18 -5 28 -17 31c-15 0 -46 -17 -92 -52l-229 5l-29 6c-11 0 -20 138 -28 413v10l11 11h12l51 -11c189 -134 302 -201 338 -201l29 5
c116 105 188 196 218 274v10h-23c-53 -79 -103 -119 -149 -119h-63l-34 6c-192 90 -341 134 -448 134zM655 1659c-58 -34 -87 -58 -87 -73c0 -66 38 -103 113 -113h21l59 60v7c0 38 -35 77 -106 119zM401 1642c-39 -25 -59 -47 -59 -67c18 -70 47 -105 86 -105
c27 0 56 20 87 59v7c0 34 -38 70 -114 106z" />
    <glyph glyph-name="Igrave" unicode="&#xcc;" horiz-adv-x="497" 
d="M375 1423l-36 -5c-172 0 -258 -13 -258 -40c10 -17 22 -29 36 -35c32 0 48 -163 48 -491c-14 -428 -26 -685 -37 -771c0 -12 -19 -37 -58 -75c8 -16 17 -25 26 -25c43 17 82 25 116 25h100c15 0 52 -18 111 -55h5c0 16 -22 50 -68 100c-21 0 -32 146 -32 436v155l11 521
v15c0 67 4 110 10 130l68 90c-8 14 -22 22 -42 25zM73 1675c-22 14 -39 20 -50 20c-4 0 -9 -9 -17 -28c0 -19 84 -82 251 -189h3l4 3v7c-32 24 -95 87 -191 187z" />
    <glyph glyph-name="Iacute" unicode="&#xcd;" horiz-adv-x="490" 
d="M375 1423l-36 -5c-172 0 -258 -13 -258 -40c10 -17 22 -29 36 -35c32 0 48 -163 48 -491c-14 -428 -26 -685 -37 -771c0 -12 -19 -37 -58 -75c8 -16 17 -25 26 -25c43 17 82 25 116 25h100c15 0 52 -18 111 -55h5c0 16 -22 50 -68 100c-21 0 -32 146 -32 436v155l11 521
v15c0 67 4 110 10 130l68 90c-8 14 -22 22 -42 25zM459 1695c-10 0 -27 -6 -50 -20c-95 -100 -159 -163 -191 -187v-7l4 -3h3c168 107 251 170 251 189c-7 19 -13 28 -17 28z" />
    <glyph glyph-name="Icircumflex" unicode="&#xce;" horiz-adv-x="490" 
d="M375 1423l-36 -5c-172 0 -258 -13 -258 -40c10 -17 22 -29 36 -35c32 0 48 -163 48 -491c-14 -428 -26 -685 -37 -771c0 -12 -19 -37 -58 -75c8 -16 17 -25 26 -25c43 17 82 25 116 25h100c15 0 52 -18 111 -55h5c0 16 -22 50 -68 100c-21 0 -32 146 -32 436v155l11 521
v15c0 67 4 110 10 130l68 90c-8 14 -22 22 -42 25zM276 1759c-42 -42 -66 -72 -72 -89c-37 -87 -68 -142 -94 -166v-3c10 -18 20 -28 28 -28c32 7 52 14 58 22c39 73 67 118 83 135h3c41 -112 71 -169 89 -169l19 22v3c-19 28 -40 75 -64 141c-23 88 -38 132 -44 132h-6z
" />
    <glyph glyph-name="Idieresis" unicode="&#xcf;" horiz-adv-x="505" 
d="M375 1423l-36 -5c-172 0 -258 -13 -258 -40c10 -17 22 -29 36 -35c32 0 48 -163 48 -491c-14 -428 -26 -685 -37 -771c0 -12 -19 -37 -58 -75c8 -16 17 -25 26 -25c43 17 82 25 116 25h100c15 0 52 -18 111 -55h5c0 16 -22 50 -68 100c-21 0 -32 146 -32 436v155l11 521
v15c0 67 4 110 10 130l68 90c-8 14 -22 22 -42 25zM346 1666c-58 -34 -87 -58 -87 -73c0 -66 38 -103 113 -113h21l59 60v7c0 38 -35 77 -106 119zM92 1649c-39 -25 -59 -47 -59 -67c18 -70 47 -105 86 -105c27 0 56 20 87 59v7c0 34 -38 70 -114 106z" />
    <glyph glyph-name="Eth" unicode="&#xd0;" horiz-adv-x="1368" 
d="M279 1464c-55 0 -88 -19 -98 -57c0 -7 31 -12 93 -16c59 -34 88 -79 88 -135v-47l-11 -411c0 -24 -79 -36 -237 -36c-36 0 -74 -46 -114 -140v-11l15 -5l321 26l10 -10l10 -255h-10l-46 16c-26 -8 -42 -19 -47 -32l98 -83c-3 -115 -10 -202 -20 -260c0 -11 24 -20 72 -26
l31 5c62 0 93 25 93 73l-5 52v26l5 5l15 -5c164 -124 295 -187 393 -187h20c83 0 164 38 243 114c100 137 150 274 150 411v193c0 261 -38 451 -114 571c-89 126 -187 188 -294 188c-62 0 -117 -10 -165 -32c-146 -86 -225 -130 -238 -130l-10 11v88l-5 52
c0 32 -57 47 -171 47h-72zM522 1199c85 73 176 109 273 109c235 0 352 -182 352 -546c0 -228 -22 -403 -68 -525c-67 -128 -129 -192 -185 -192h-68c-15 0 -29 7 -41 20c-124 54 -219 112 -284 172l5 78v250l5 62h26l114 -16c56 62 106 107 150 135v6l-11 15
c-116 11 -183 20 -201 26c0 -6 -17 -10 -52 -10c-8 0 -13 11 -15 31v385z" />
    <glyph glyph-name="Ntilde" unicode="&#xd1;" horiz-adv-x="1082" 
d="M77 1460c-51 -40 -77 -74 -77 -100l10 -11h4c12 0 23 6 34 16h5c78 -24 116 -51 116 -79l24 -809c-7 -278 -17 -417 -29 -417l-48 -32v-11l24 -42l39 21l173 -5h82c26 0 42 9 49 26c0 6 -17 17 -53 32c-22 0 -40 208 -54 624l5 52v265l5 21v5c10 0 52 -44 126 -132
c127 -187 231 -390 313 -608c62 -197 104 -296 126 -296h10c21 0 35 11 43 32l10 1163c15 50 49 136 101 259l-10 10h-164c-42 -2 -63 -9 -63 -21v-5c46 -20 68 -78 68 -175l-10 -465l15 -386h-10l-5 6c-33 99 -78 206 -135 322l-367 497c-94 162 -210 243 -347 243h-10z
M819 1644c-4 0 -7 -9 -7 -28c-11 -73 -31 -110 -61 -110l-18 2c-135 77 -210 115 -225 115c-35 0 -64 -22 -86 -68l-21 -123l12 -10c6 0 9 6 9 18c26 74 59 110 99 110h23c15 0 39 -14 71 -42c63 -69 104 -104 122 -104c11 3 23 12 36 26c37 72 55 134 55 186z" />
    <glyph glyph-name="Ograve" unicode="&#xd2;" horiz-adv-x="1041" 
d="M568 1440l-59 -20c-153 0 -295 -112 -426 -338c-64 -168 -96 -340 -96 -516l48 -250c15 -94 65 -180 149 -260c0 -21 77 -45 230 -72h26c74 0 143 9 208 26c105 54 187 132 245 235c61 183 91 329 91 439c0 87 -10 186 -32 296c-31 164 -90 288 -176 373
c-40 42 -109 71 -208 87zM216 566c0 254 9 402 27 445c40 138 72 220 96 245c0 34 61 65 181 92h43c25 0 44 -6 58 -20c42 0 74 -39 96 -118c19 0 40 -151 64 -455l-5 -183c0 -246 -32 -392 -96 -440c-18 -54 -96 -82 -234 -82h-27c-96 24 -144 50 -144 77
c-39 0 -59 131 -59 393v46zM363 1661c-22 14 -39 20 -50 20c-4 0 -9 -9 -17 -28c0 -19 84 -82 251 -189h3l4 3v7c-32 24 -95 87 -191 187z" />
    <glyph glyph-name="Oacute" unicode="&#xd3;" horiz-adv-x="1045" 
d="M568 1440l-59 -20c-153 0 -295 -112 -426 -338c-64 -168 -96 -340 -96 -516l48 -250c15 -94 65 -180 149 -260c0 -21 77 -45 230 -72h26c74 0 143 9 208 26c105 54 187 132 245 235c61 183 91 329 91 439c0 87 -10 186 -32 296c-31 164 -90 288 -176 373
c-40 42 -109 71 -208 87zM216 566c0 254 9 402 27 445c40 138 72 220 96 245c0 34 61 65 181 92h43c25 0 44 -6 58 -20c42 0 74 -39 96 -118c19 0 40 -151 64 -455l-5 -183c0 -246 -32 -392 -96 -440c-18 -54 -96 -82 -234 -82h-27c-96 24 -144 50 -144 77
c-39 0 -59 131 -59 393v46zM778 1672c-10 0 -27 -6 -50 -20c-95 -100 -159 -163 -191 -187v-7l4 -3h3c168 107 251 170 251 189c-7 19 -13 28 -17 28z" />
    <glyph glyph-name="Ocircumflex" unicode="&#xd4;" horiz-adv-x="1041" 
d="M568 1440l-59 -20c-153 0 -295 -112 -426 -338c-64 -168 -96 -340 -96 -516l48 -250c15 -94 65 -180 149 -260c0 -21 77 -45 230 -72h26c74 0 143 9 208 26c105 54 187 132 245 235c61 183 91 329 91 439c0 87 -10 186 -32 296c-31 164 -90 288 -176 373
c-40 42 -109 71 -208 87zM216 566c0 254 9 402 27 445c40 138 72 220 96 245c0 34 61 65 181 92h43c25 0 44 -6 58 -20c42 0 74 -39 96 -118c19 0 40 -151 64 -455l-5 -183c0 -246 -32 -392 -96 -440c-18 -54 -96 -82 -234 -82h-27c-96 24 -144 50 -144 77
c-39 0 -59 131 -59 393v46zM554 1745c-42 -42 -66 -72 -72 -89c-37 -87 -68 -142 -94 -166v-3c10 -18 20 -28 28 -28c32 7 52 14 58 22c39 73 67 118 83 135h3c41 -112 71 -169 89 -169l19 22v3c-19 28 -40 75 -64 141c-23 88 -38 132 -44 132h-6z" />
    <glyph glyph-name="Otilde" unicode="&#xd5;" horiz-adv-x="1045" 
d="M568 1440l-59 -20c-153 0 -295 -112 -426 -338c-64 -168 -96 -340 -96 -516l48 -250c15 -94 65 -180 149 -260c0 -21 77 -45 230 -72h26c74 0 143 9 208 26c105 54 187 132 245 235c61 183 91 329 91 439c0 87 -10 186 -32 296c-31 164 -90 288 -176 373
c-40 42 -109 71 -208 87zM216 566c0 254 9 402 27 445c40 138 72 220 96 245c0 34 61 65 181 92h43c25 0 44 -6 58 -20c42 0 74 -39 96 -118c19 0 40 -151 64 -455l-5 -183c0 -246 -32 -392 -96 -440c-18 -54 -96 -82 -234 -82h-27c-96 24 -144 50 -144 77
c-39 0 -59 131 -59 393v46zM746 1690c-4 0 -7 -9 -7 -28c-11 -73 -31 -110 -61 -110l-18 2c-135 77 -210 115 -225 115c-35 0 -64 -22 -86 -68l-21 -123l12 -10c6 0 9 6 9 18c26 74 59 110 99 110h23c15 0 39 -14 71 -42c63 -69 104 -104 122 -104c11 3 23 12 36 26
c37 72 55 134 55 186z" />
    <glyph glyph-name="Odieresis" unicode="&#xd6;" horiz-adv-x="1037" 
d="M568 1440l-59 -20c-153 0 -295 -112 -426 -338c-64 -168 -96 -340 -96 -516l48 -250c15 -94 65 -180 149 -260c0 -21 77 -45 230 -72h26c74 0 143 9 208 26c105 54 187 132 245 235c61 183 91 329 91 439c0 87 -10 186 -32 296c-31 164 -90 288 -176 373
c-40 42 -109 71 -208 87zM216 566c0 254 9 402 27 445c40 138 72 220 96 245c0 34 61 65 181 92h43c25 0 44 -6 58 -20c42 0 74 -39 96 -118c19 0 40 -151 64 -455l-5 -183c0 -246 -32 -392 -96 -440c-18 -54 -96 -82 -234 -82h-27c-96 24 -144 50 -144 77
c-39 0 -59 131 -59 393v46zM659 1652c-58 -34 -87 -58 -87 -73c0 -66 38 -103 113 -113h21l59 60v7c0 38 -35 77 -106 119zM405 1635c-39 -25 -59 -47 -59 -67c18 -70 47 -105 86 -105c27 0 56 20 87 59v7c0 34 -38 70 -114 106z" />
    <glyph glyph-name="multiply" unicode="&#xd7;" 
d="M734 1052c-10 -46 -23 -80 -40 -101c-115 -114 -179 -171 -192 -170c-17 2 -72 60 -166 172c-58 48 -83 97 -77 147l-10 1c-12 -4 -42 -32 -89 -86l-2 -13l15 -6l6 4l30 -4c112 -114 186 -203 220 -268c-4 -28 -58 -88 -162 -178c-46 -62 -98 -89 -155 -82l-1 -9
c50 -68 81 -103 93 -105l72 111c61 87 123 154 185 202l21 -3c66 -56 132 -121 199 -194c33 -20 54 -55 62 -105l5 -1l6 4c39 11 70 38 93 81l1 9c-62 24 -126 73 -190 148c-75 76 -112 121 -110 134l1 4l197 174l114 47l-111 86z" />
    <glyph glyph-name="Oslash" unicode="&#xd8;" horiz-adv-x="1061" 
d="M567 1444c-82 0 -166 -22 -252 -68c-119 -86 -196 -185 -231 -298c-56 -93 -84 -283 -84 -570l26 -142c99 -247 257 -371 473 -371h21c148 0 273 79 373 235c77 201 115 405 115 612c0 68 -24 179 -73 335c-104 178 -221 267 -352 267h-16zM210 602c0 317 32 531 95 643
c52 70 132 119 241 147h47c84 -22 126 -43 126 -63c-14 -47 -29 -84 -47 -110l-383 -622c-28 -59 -52 -89 -74 -89zM252 241c0 16 9 48 26 94l336 565c64 125 113 202 147 230c12 0 19 -96 21 -288c-17 -519 -87 -779 -210 -779h-110c-119 0 -189 60 -210 178z" />
    <glyph glyph-name="Ugrave" unicode="&#xd9;" horiz-adv-x="1000" 
d="M1005 1423v-5c-136 0 -204 -8 -204 -25v-5c7 -12 18 -20 32 -25c29 0 43 -90 43 -270c0 -400 -16 -647 -48 -739c-64 -180 -183 -270 -355 -270h-21l-38 5c-82 28 -124 130 -124 305c8 329 19 622 33 879l5 35c47 35 70 57 70 65c-7 24 -20 35 -38 35l-16 -5
c-229 -10 -344 -20 -344 -30c61 -54 91 -131 91 -230v-335l-16 -519c0 -18 13 -48 38 -90c91 -143 200 -215 328 -215h54c198 0 340 119 424 355c24 0 38 323 43 969c11 16 47 45 108 85c-26 20 -47 30 -65 30zM404 1654c-22 14 -39 20 -50 20c-4 0 -9 -9 -17 -28
c0 -19 84 -82 251 -189h3l4 3v7c-32 24 -95 87 -191 187z" />
    <glyph glyph-name="Uacute" unicode="&#xda;" horiz-adv-x="1000" 
d="M1005 1423v-5c-136 0 -204 -8 -204 -25v-5c7 -12 18 -20 32 -25c29 0 43 -90 43 -270c0 -400 -16 -647 -48 -739c-64 -180 -183 -270 -355 -270h-21l-38 5c-82 28 -124 130 -124 305c8 329 19 622 33 879l5 35c47 35 70 57 70 65c-7 24 -20 35 -38 35l-16 -5
c-229 -10 -344 -20 -344 -30c61 -54 91 -131 91 -230v-335l-16 -519c0 -18 13 -48 38 -90c91 -143 200 -215 328 -215h54c198 0 340 119 424 355c24 0 38 323 43 969c11 16 47 45 108 85c-26 20 -47 30 -65 30zM795 1641c-10 0 -27 -6 -50 -20c-95 -100 -159 -163 -191 -187
v-7l4 -3h3c168 107 251 170 251 189c-7 19 -13 28 -17 28z" />
    <glyph glyph-name="Ucircumflex" unicode="&#xdb;" horiz-adv-x="1000" 
d="M1005 1423v-5c-136 0 -204 -8 -204 -25v-5c7 -12 18 -20 32 -25c29 0 43 -90 43 -270c0 -400 -16 -647 -48 -739c-64 -180 -183 -270 -355 -270h-21l-38 5c-82 28 -124 130 -124 305c8 329 19 622 33 879l5 35c47 35 70 57 70 65c-7 24 -20 35 -38 35l-16 -5
c-229 -10 -344 -20 -344 -30c61 -54 91 -131 91 -230v-335l-16 -519c0 -18 13 -48 38 -90c91 -143 200 -215 328 -215h54c198 0 340 119 424 355c24 0 38 323 43 969c11 16 47 45 108 85c-26 20 -47 30 -65 30zM590 1734c-42 -42 -66 -72 -72 -89c-37 -87 -68 -142 -94 -166
v-3c10 -18 20 -28 28 -28c32 7 52 14 58 22c39 73 67 118 83 135h3c41 -112 71 -169 89 -169l19 22v3c-19 28 -40 75 -64 141c-23 88 -38 132 -44 132h-6z" />
    <glyph glyph-name="Udieresis" unicode="&#xdc;" horiz-adv-x="1000" 
d="M1005 1423v-5c-136 0 -204 -8 -204 -25v-5c7 -12 18 -20 32 -25c29 0 43 -90 43 -270c0 -400 -16 -647 -48 -739c-64 -180 -183 -270 -355 -270h-21l-38 5c-82 28 -124 130 -124 305c8 329 19 622 33 879l5 35c47 35 70 57 70 65c-7 24 -20 35 -38 35l-16 -5
c-229 -10 -344 -20 -344 -30c61 -54 91 -131 91 -230v-335l-16 -519c0 -18 13 -48 38 -90c91 -143 200 -215 328 -215h54c198 0 340 119 424 355c24 0 38 323 43 969c11 16 47 45 108 85c-26 20 -47 30 -65 30zM655 1659c-58 -34 -87 -58 -87 -73c0 -66 38 -103 113 -113h21
l59 60v7c0 38 -35 77 -106 119zM401 1642c-39 -25 -59 -47 -59 -67c18 -70 47 -105 86 -105c27 0 56 20 87 59v7c0 34 -38 70 -114 106z" />
    <glyph glyph-name="Yacute" unicode="&#xdd;" horiz-adv-x="1086" 
d="M1044 1399v-5c-174 -20 -262 -36 -262 -49v-5c0 -9 20 -17 58 -25c26 -2 39 -14 39 -35c0 -34 -27 -90 -82 -168c-105 -168 -171 -252 -199 -252h-5c-6 2 -46 68 -121 198c-113 174 -170 266 -170 277v15c42 4 63 11 63 19c0 9 -14 17 -43 25v-5l-39 -5
c-187 -2 -281 -11 -281 -25v-9l5 -5c44 -12 100 -47 169 -104c108 -174 204 -348 286 -520l-5 -104l-4 -400c0 -118 -16 -186 -49 -203c0 -16 31 -25 92 -25h10l126 5l24 -10l24 25v5c-51 34 -77 99 -77 193c10 262 20 438 29 529c68 102 149 238 242 406
c55 106 118 184 189 232v10c0 6 -6 11 -19 15zM763 1597c-10 0 -27 -6 -50 -20c-95 -100 -159 -163 -191 -187v-7l4 -3h3c168 107 251 170 251 189c-7 19 -13 28 -17 28z" />
    <glyph glyph-name="Thorn" unicode="&#xde;" horiz-adv-x="1319" 
d="M142 1415c-76 -9 -114 -21 -114 -35l64 -46c38 0 57 -93 57 -279l-14 -410l7 -441v-10c0 -92 -47 -163 -142 -213l14 -10l85 20h270l71 -5v5c48 0 71 5 71 15v6c-75 31 -113 117 -113 258v101c0 38 7 56 21 56h14c150 -37 302 -56 454 -56c48 0 96 7 142 21
c180 71 270 174 270 309c0 153 -68 274 -206 364c-46 24 -136 48 -270 71c-95 -2 -227 -29 -397 -81h-14l21 137c13 122 51 182 114 182v11c-10 8 -41 18 -93 30l-113 -15h-85zM419 974c112 61 230 91 355 91h21l36 -5c104 -44 156 -135 156 -273v-132l-36 -86
c-58 -81 -113 -122 -163 -122h-21c-140 0 -260 21 -362 61z" />
    <glyph glyph-name="germandbls" unicode="&#xdf;" horiz-adv-x="861" 
d="M389 1317c-140 -11 -226 -49 -256 -113c-30 0 -52 -236 -64 -708l5 -278l-5 -95c0 -63 -23 -104 -69 -122c0 -4 7 -9 20 -14l280 4c13 0 26 5 40 14l-5 15c-59 11 -89 42 -89 94c17 196 25 509 25 939v19c20 101 57 151 113 151h34c50 -8 74 -30 74 -66v-5
c-4 -25 -11 -38 -19 -38c-65 -109 -101 -211 -109 -307v-4l5 -5c0 -99 58 -176 173 -231c148 -60 221 -132 221 -217c0 -78 -9 -135 -29 -170c-72 -122 -137 -184 -197 -184h-15l-15 9c-8 64 -17 95 -25 95c-65 -72 -98 -125 -98 -161c0 -38 36 -70 108 -94
c69 0 141 33 217 99c82 90 123 189 123 297c0 47 -16 127 -49 241c-20 55 -84 130 -192 226c-56 30 -84 94 -84 194c0 22 28 91 84 207l-20 71c-64 92 -124 137 -182 137z" />
    <glyph glyph-name="agrave" unicode="&#xe0;" horiz-adv-x="774" 
d="M211 983c-22 14 -39 20 -50 20c-4 0 -9 -9 -17 -28c0 -19 84 -82 251 -189h3l4 3v7c-32 24 -95 87 -191 187zM399 748c-45 0 -68 -30 -68 -90v-63c-222 -200 -333 -387 -333 -560v-32l117 -16c138 0 271 46 401 137h13c16 -4 35 -27 55 -68l-43 -43v-10l25 -5l24 5h25
l148 10v11c-83 66 -139 137 -167 211c0 17 21 29 62 37l86 -5v5c-33 70 -74 125 -123 164h-6c-20 -70 -41 -105 -62 -105c-27 24 -70 123 -129 295v64l43 37v5c0 11 -22 16 -68 16zM374 415h25c50 -98 74 -156 74 -174v-6l-6 -21c-111 -105 -199 -158 -265 -158h-19l-12 10
v43l6 26c0 26 66 119 197 280z" />
    <glyph glyph-name="aacute" unicode="&#xe1;" horiz-adv-x="771" 
d="M635 992c-10 0 -27 -6 -50 -20c-95 -100 -159 -163 -191 -187v-7l4 -3h3c168 107 251 170 251 189c-7 19 -13 28 -17 28zM399 748c-45 0 -68 -30 -68 -90v-63c-222 -200 -333 -387 -333 -560v-32l117 -16c138 0 271 46 401 137h13c16 -4 35 -27 55 -68l-43 -43v-10l25 -5
l24 5h25l148 10v11c-83 66 -139 137 -167 211c0 17 21 29 62 37l86 -5v5c-33 70 -74 125 -123 164h-6c-20 -70 -41 -105 -62 -105c-27 24 -70 123 -129 295v64l43 37v5c0 11 -22 16 -68 16zM374 415h25c50 -98 74 -156 74 -174v-6l-6 -21c-111 -105 -199 -158 -265 -158h-19
l-12 10v43l6 26c0 26 66 119 197 280z" />
    <glyph glyph-name="acircumflex" unicode="&#xe2;" horiz-adv-x="774" 
d="M426 1092c-42 -42 -66 -72 -72 -89c-37 -87 -68 -142 -94 -166v-3c10 -18 20 -28 28 -28c32 7 52 14 58 22c39 73 67 118 83 135h3c41 -112 71 -169 89 -169l19 22v3c-19 28 -40 75 -64 141c-23 88 -38 132 -44 132h-6zM399 748c-45 0 -68 -30 -68 -90v-63
c-222 -200 -333 -387 -333 -560v-32l117 -16c138 0 271 46 401 137h13c16 -4 35 -27 55 -68l-43 -43v-10l25 -5l24 5h25l148 10v11c-83 66 -139 137 -167 211c0 17 21 29 62 37l86 -5v5c-33 70 -74 125 -123 164h-6c-20 -70 -41 -105 -62 -105c-27 24 -70 123 -129 295v64
l43 37v5c0 11 -22 16 -68 16zM374 415h25c50 -98 74 -156 74 -174v-6l-6 -21c-111 -105 -199 -158 -265 -158h-19l-12 10v43l6 26c0 26 66 119 197 280z" />
    <glyph glyph-name="atilde" unicode="&#xe3;" horiz-adv-x="894" 
d="M618 994c-4 0 -7 -9 -7 -28c-11 -73 -31 -110 -61 -110l-18 2c-135 77 -210 115 -225 115c-35 0 -64 -22 -86 -68l-21 -123l12 -10c6 0 9 6 9 18c26 74 59 110 99 110h23c15 0 39 -14 71 -42c63 -69 104 -104 122 -104c11 3 23 12 36 26c37 72 55 134 55 186zM399 748
c-45 0 -68 -30 -68 -90v-63c-222 -200 -333 -387 -333 -560v-32l117 -16c138 0 271 46 401 137h13c16 -4 35 -27 55 -68l-43 -43v-10l25 -5l24 5h25l148 10v11c-83 66 -139 137 -167 211c0 17 21 29 62 37l86 -5v5c-33 70 -74 125 -123 164h-6c-20 -70 -41 -105 -62 -105
c-27 24 -70 123 -129 295v64l43 37v5c0 11 -22 16 -68 16zM374 415h25c50 -98 74 -156 74 -174v-6l-6 -21c-111 -105 -199 -158 -265 -158h-19l-12 10v43l6 26c0 26 66 119 197 280z" />
    <glyph glyph-name="adieresis" unicode="&#xe4;" horiz-adv-x="774" 
d="M515 1007c-58 -34 -87 -58 -87 -73c0 -66 38 -103 113 -113h21l59 60v7c0 38 -35 77 -106 119zM261 990c-39 -25 -59 -47 -59 -67c18 -70 47 -105 86 -105c27 0 56 20 87 59v7c0 34 -38 70 -114 106zM399 748c-45 0 -68 -30 -68 -90v-63c-222 -200 -333 -387 -333 -560
v-32l117 -16c138 0 271 46 401 137h13c16 -4 35 -27 55 -68l-43 -43v-10l25 -5l24 5h25l148 10v11c-83 66 -139 137 -167 211c0 17 21 29 62 37l86 -5v5c-33 70 -74 125 -123 164h-6c-20 -70 -41 -105 -62 -105c-27 24 -70 123 -129 295v64l43 37v5c0 11 -22 16 -68 16z
M374 415h25c50 -98 74 -156 74 -174v-6l-6 -21c-111 -105 -199 -158 -265 -158h-19l-12 10v43l6 26c0 26 66 119 197 280z" />
    <glyph glyph-name="aring" unicode="&#xe5;" horiz-adv-x="778" 
d="M393 1074l-60 -15c-40 -22 -71 -65 -91 -129l8 -44c32 -66 71 -100 115 -100h28l47 4c77 44 115 95 115 151c0 67 -54 111 -162 133zM365 1023h55c16 -4 27 -36 32 -97l-4 -18c0 -61 -27 -92 -83 -92c-18 11 -28 28 -28 51v41c0 17 10 55 28 115zM399 748
c-45 0 -68 -30 -68 -90v-63c-222 -200 -333 -387 -333 -560v-32l117 -16c138 0 271 46 401 137h13c16 -4 35 -27 55 -68l-43 -43v-10l25 -5l24 5h25l148 10v11c-83 66 -139 137 -167 211c0 17 21 29 62 37l86 -5v5c-33 70 -74 125 -123 164h-6c-20 -70 -41 -105 -62 -105
c-27 24 -70 123 -129 295v64l43 37v5c0 11 -22 16 -68 16zM374 415h25c50 -98 74 -156 74 -174v-6l-6 -21c-111 -105 -199 -158 -265 -158h-19l-12 10v43l6 26c0 26 66 119 197 280z" />
    <glyph glyph-name="ae" unicode="&#xe6;" horiz-adv-x="1236" 
d="M374 415h25c50 -98 74 -156 74 -174v-6l-6 -21c-111 -105 -199 -158 -265 -158h-19l-12 10v43l6 26c0 26 66 119 197 280zM760 13c42 -8 89 -13 141 -13c142 0 247 48 315 142l-37 22c-104 -69 -184 -104 -241 -104h-37c-16 0 -47 13 -95 38c-34 24 -51 82 -51 175v54
c0 9 15 15 44 17h29c34 0 70 -5 110 -17l14 17v38c0 27 -7 52 -22 76c-63 -25 -107 -38 -131 -38h-22l-30 22v38c35 142 91 212 169 212h29c46 0 97 -29 154 -87c108 67 161 107 161 120v17l-22 5c-22 -7 -68 -12 -139 -16l-264 5c-52 -6 -86 -13 -102 -22
c-134 -53 -206 -161 -218 -323c-24 50 -55 129 -91 235v64l43 37v5c0 11 -22 16 -68 16c-45 0 -68 -30 -68 -90v-63c-222 -200 -333 -387 -333 -560v-32l117 -16c138 0 271 46 401 137h13c16 -4 35 -27 55 -68l-43 -43v-10l25 -5l24 5h25z" />
    <glyph glyph-name="ccedilla" unicode="&#xe7;" horiz-adv-x="680" 
d="M636 747l-394 -27c-156 -59 -235 -178 -235 -357v-103c0 -84 58 -159 173 -227c60 -18 90 -32 90 -43l-7 -38c9 -18 27 -27 55 -27h14l35 16c14 0 20 -3 20 -10v-17l-7 -5c-18 0 -27 -3 -27 -11c-41 0 -99 11 -173 33c-23 -8 -35 -32 -35 -71v-11l7 -5c19 0 40 11 62 32
h21l145 -32v5c74 0 111 20 111 60s-25 67 -76 81l-48 -5h-7v16h34c33 0 58 4 76 11c130 40 194 79 194 119h-7c-60 -36 -127 -54 -200 -54h-35c-25 0 -64 11 -118 32c-50 30 -76 108 -76 232c0 183 51 297 152 341c56 0 86 -27 90 -81h14c116 80 173 125 173 135z" />
    <glyph glyph-name="egrave" unicode="&#xe8;" horiz-adv-x="723" 
d="M248 1022c-22 14 -39 20 -50 20c-4 0 -9 -9 -17 -28c0 -19 84 -82 251 -189h3l4 3v7c-32 24 -95 87 -191 187zM725 747c-22 -7 -68 -12 -139 -16l-264 5c-52 -6 -86 -13 -102 -22c-146 -58 -220 -182 -220 -370v-28c0 -30 17 -88 51 -174c50 -94 163 -142 337 -142
c142 0 247 48 315 142l-37 22c-104 -69 -184 -104 -241 -104h-37c-16 0 -47 13 -95 38c-34 24 -51 82 -51 175v54c0 9 15 15 44 17h29c34 0 70 -5 110 -17l14 17v38c0 27 -7 52 -22 76c-63 -25 -107 -38 -131 -38h-22l-30 22v38c35 142 91 212 169 212h29
c46 0 97 -29 154 -87c108 67 161 107 161 120v17z" />
    <glyph glyph-name="eacute" unicode="&#xe9;" horiz-adv-x="723" 
d="M652 1026c-10 0 -27 -6 -50 -20c-95 -100 -159 -163 -191 -187v-7l4 -3h3c168 107 251 170 251 189c-7 19 -13 28 -17 28zM725 747c-22 -7 -68 -12 -139 -16l-264 5c-52 -6 -86 -13 -102 -22c-146 -58 -220 -182 -220 -370v-28c0 -30 17 -88 51 -174
c50 -94 163 -142 337 -142c142 0 247 48 315 142l-37 22c-104 -69 -184 -104 -241 -104h-37c-16 0 -47 13 -95 38c-34 24 -51 82 -51 175v54c0 9 15 15 44 17h29c34 0 70 -5 110 -17l14 17v38c0 27 -7 52 -22 76c-63 -25 -107 -38 -131 -38h-22l-30 22v38
c35 142 91 212 169 212h29c46 0 97 -29 154 -87c108 67 161 107 161 120v17z" />
    <glyph glyph-name="ecircumflex" unicode="&#xea;" horiz-adv-x="828" 
d="M449 1103c-42 -42 -66 -72 -72 -89c-37 -87 -68 -142 -94 -166v-3c10 -18 20 -28 28 -28c32 7 52 14 58 22c39 73 67 118 83 135h3c41 -112 71 -169 89 -169l19 22v3c-19 28 -40 75 -64 141c-23 88 -38 132 -44 132h-6zM725 747c-22 -7 -68 -12 -139 -16l-264 5
c-52 -6 -86 -13 -102 -22c-146 -58 -220 -182 -220 -370v-28c0 -30 17 -88 51 -174c50 -94 163 -142 337 -142c142 0 247 48 315 142l-37 22c-104 -69 -184 -104 -241 -104h-37c-16 0 -47 13 -95 38c-34 24 -51 82 -51 175v54c0 9 15 15 44 17h29c34 0 70 -5 110 -17l14 17
v38c0 27 -7 52 -22 76c-63 -25 -107 -38 -131 -38h-22l-30 22v38c35 142 91 212 169 212h29c46 0 97 -29 154 -87c108 67 161 107 161 120v17z" />
    <glyph glyph-name="edieresis" unicode="&#xeb;" horiz-adv-x="824" 
d="M480 979c-58 -34 -87 -58 -87 -73c0 -66 38 -103 113 -113h21l59 60v7c0 38 -35 77 -106 119zM226 962c-39 -25 -59 -47 -59 -67c18 -70 47 -105 86 -105c27 0 56 20 87 59v7c0 34 -38 70 -114 106zM725 747c-22 -7 -68 -12 -139 -16l-264 5c-52 -6 -86 -13 -102 -22
c-146 -58 -220 -182 -220 -370v-28c0 -30 17 -88 51 -174c50 -94 163 -142 337 -142c142 0 247 48 315 142l-37 22c-104 -69 -184 -104 -241 -104h-37c-16 0 -47 13 -95 38c-34 24 -51 82 -51 175v54c0 9 15 15 44 17h29c34 0 70 -5 110 -17l14 17v38c0 27 -7 52 -22 76
c-63 -25 -107 -38 -131 -38h-22l-30 22v38c35 142 91 212 169 212h29c46 0 97 -29 154 -87c108 67 161 107 161 120v17z" />
    <glyph glyph-name="igrave" unicode="&#xec;" horiz-adv-x="399" 
d="M58 1267c-22 14 -39 20 -50 20c-4 0 -9 -9 -17 -28c0 -19 84 -82 251 -189h3l4 3v7c-32 24 -95 87 -191 187zM239 991c-33 0 -60 -25 -81 -75c22 -46 49 -69 81 -69c31 0 54 29 69 85c-22 40 -45 59 -69 59zM158 703c-45 0 -68 -5 -68 -17l37 -42l-6 -155v-428
c0 -13 -10 -29 -31 -48v-10c50 -7 118 -11 205 -11h56l13 11l-32 26c-20 0 -31 65 -31 193v213c0 157 13 235 38 235s37 4 37 11c0 11 -29 18 -87 22h-131z" />
    <glyph glyph-name="iacute" unicode="&#xed;" horiz-adv-x="407" 
d="M411 1273c-10 0 -27 -6 -50 -20c-95 -100 -159 -163 -191 -187v-7l4 -3h3c168 107 251 170 251 189c-7 19 -13 28 -17 28zM224 1006c-33 0 -60 -25 -81 -75c22 -46 49 -69 81 -69c31 0 54 29 69 85c-22 40 -45 59 -69 59zM143 718c-45 0 -68 -5 -68 -17l37 -42l-6 -155
v-428c0 -13 -10 -29 -31 -48v-10c50 -7 118 -11 205 -11h56l13 11l-32 26c-20 0 -31 65 -31 193v213c0 157 13 235 38 235s37 4 37 11c0 11 -29 18 -87 22h-131z" />
    <glyph glyph-name="icircumflex" unicode="&#xee;" horiz-adv-x="395" 
d="M243 1330c-42 -42 -66 -72 -72 -89c-37 -87 -68 -142 -94 -166v-3c10 -18 20 -28 28 -28c32 7 52 14 58 22c39 73 67 118 83 135h3c41 -112 71 -169 89 -169l19 22v3c-19 28 -40 75 -64 141c-23 88 -38 132 -44 132h-6zM224 999c-33 0 -60 -25 -81 -75
c22 -46 49 -69 81 -69c31 0 54 29 69 85c-22 40 -45 59 -69 59zM143 711c-45 0 -68 -5 -68 -17l37 -42l-6 -155v-428c0 -13 -10 -29 -31 -48v-10c50 -7 118 -11 205 -11h56l13 11l-32 26c-20 0 -31 65 -31 193v213c0 157 13 235 38 235s37 4 37 11c0 11 -29 18 -87 22h-131z
" />
    <glyph glyph-name="idieresis" unicode="&#xef;" horiz-adv-x="391" 
d="M303 1267c-58 -34 -87 -58 -87 -73c0 -66 38 -103 113 -113h21l59 60v7c0 38 -35 77 -106 119zM49 1250c-39 -25 -59 -47 -59 -67c18 -70 47 -105 86 -105c27 0 56 20 87 59v7c0 34 -38 70 -114 106zM224 999c-33 0 -60 -25 -81 -75c22 -46 49 -69 81 -69
c31 0 54 29 69 85c-22 40 -45 59 -69 59zM143 711c-45 0 -68 -5 -68 -17l37 -42l-6 -155v-428c0 -13 -10 -29 -31 -48v-10c50 -7 118 -11 205 -11h56l13 11l-32 26c-20 0 -31 65 -31 193v213c0 157 13 235 38 235s37 4 37 11c0 11 -29 18 -87 22h-131z" />
    <glyph glyph-name="eth" unicode="&#xf0;" horiz-adv-x="739" 
d="M141 1263c-32 -35 -61 -84 -89 -147v-5l5 -6l58 6c38 0 74 -22 109 -66c-51 -68 -103 -127 -156 -179v-6c84 -65 125 -103 125 -114v-6c-128 -107 -193 -230 -193 -370v-16c0 -62 25 -135 73 -218c52 -64 137 -110 255 -136c74 0 140 11 198 33c129 72 193 187 193 343
v76c0 26 -8 61 -26 103c-44 120 -155 281 -333 485c33 66 83 98 151 98v5l-110 109h-5l-42 -27c-37 -65 -66 -98 -88 -98h-11l-73 65l-36 71h-5zM208 751v93c34 91 67 136 99 136h6l15 -11c82 -95 123 -160 125 -196zM167 381c0 92 11 161 31 207c34 88 119 131 255 131h21
c28 -32 42 -84 42 -158v-202c-33 -199 -66 -299 -99 -299h-68c-22 0 -51 8 -88 22c-62 34 -94 126 -94 277v22z" />
    <glyph glyph-name="ntilde" unicode="&#xf1;" horiz-adv-x="806" 
d="M643 1076c-4 0 -7 -9 -7 -28c-11 -73 -31 -110 -61 -110l-18 2c-135 77 -210 115 -225 115c-35 0 -64 -22 -86 -68l-21 -123l12 -10c6 0 9 6 9 18c26 74 59 110 99 110h23c15 0 39 -14 71 -42c63 -69 104 -104 122 -104c11 3 23 12 36 26c37 72 55 134 55 186zM517 759
c-70 0 -163 -20 -280 -62h-8l-174 40c-46 -14 -84 -34 -114 -62v-6c0 -14 48 -27 144 -39c23 0 36 -90 38 -270l-8 -101v-147c0 -31 -37 -61 -113 -90v-5c4 -11 19 -17 45 -17h53l273 11v11c-45 18 -68 77 -68 175l8 399c10 56 45 84 106 84h30c81 0 129 -39 144 -118v-67
c0 -104 -43 -261 -129 -473c0 -14 46 -22 137 -22h159l38 6c0 12 -7 25 -23 39c-55 22 -85 37 -91 45v11c66 170 99 296 99 377v17l-8 73c0 92 -86 155 -258 191z" />
    <glyph glyph-name="ograve" unicode="&#xf2;" horiz-adv-x="759" 
d="M178 1002c-22 14 -39 20 -50 20c-4 0 -9 -9 -17 -28c0 -19 84 -82 251 -189h3l4 3v7c-32 24 -95 87 -191 187zM312 755c-33 0 -65 -8 -97 -26c-143 -90 -215 -214 -215 -372c0 -26 18 -82 54 -166c90 -127 198 -191 322 -191c205 0 323 121 355 362v26
c0 134 -50 241 -150 320c-48 18 -125 33 -232 47h-37zM183 424c0 100 13 163 37 191c24 59 70 88 140 88h38c115 -54 172 -135 172 -243v-165c-32 -158 -80 -238 -145 -238h-22c-60 0 -101 7 -123 21c-64 39 -97 120 -97 243v103z" />
    <glyph glyph-name="oacute" unicode="&#xf3;" horiz-adv-x="759" 
d="M606 1021c-10 0 -27 -6 -50 -20c-95 -100 -159 -163 -191 -187v-7l4 -3h3c168 107 251 170 251 189c-7 19 -13 28 -17 28zM312 755c-33 0 -65 -8 -97 -26c-143 -90 -215 -214 -215 -372c0 -26 18 -82 54 -166c90 -127 198 -191 322 -191c205 0 323 121 355 362v26
c0 134 -50 241 -150 320c-48 18 -125 33 -232 47h-37zM183 424c0 100 13 163 37 191c24 59 70 88 140 88h38c115 -54 172 -135 172 -243v-165c-32 -158 -80 -238 -145 -238h-22c-60 0 -101 7 -123 21c-64 39 -97 120 -97 243v103z" />
    <glyph glyph-name="ocircumflex" unicode="&#xf4;" horiz-adv-x="759" 
d="M381 1117c-42 -42 -66 -72 -72 -89c-37 -87 -68 -142 -94 -166v-3c10 -18 20 -28 28 -28c32 7 52 14 58 22c39 73 67 118 83 135h3c41 -112 71 -169 89 -169l19 22v3c-19 28 -40 75 -64 141c-23 88 -38 132 -44 132h-6zM312 755c-33 0 -65 -8 -97 -26
c-143 -90 -215 -214 -215 -372c0 -26 18 -82 54 -166c90 -127 198 -191 322 -191c205 0 323 121 355 362v26c0 134 -50 241 -150 320c-48 18 -125 33 -232 47h-37zM183 424c0 100 13 163 37 191c24 59 70 88 140 88h38c115 -54 172 -135 172 -243v-165
c-32 -158 -80 -238 -145 -238h-22c-60 0 -101 7 -123 21c-64 39 -97 120 -97 243v103z" />
    <glyph glyph-name="otilde" unicode="&#xf5;" horiz-adv-x="759" 
d="M572 1042c-4 0 -7 -9 -7 -28c-11 -73 -31 -110 -61 -110l-18 2c-135 77 -210 115 -225 115c-35 0 -64 -22 -86 -68l-21 -123l12 -10c6 0 9 6 9 18c26 74 59 110 99 110h23c15 0 39 -14 71 -42c63 -69 104 -104 122 -104c11 3 23 12 36 26c37 72 55 134 55 186zM312 755
c-33 0 -65 -8 -97 -26c-143 -90 -215 -214 -215 -372c0 -26 18 -82 54 -166c90 -127 198 -191 322 -191c205 0 323 121 355 362v26c0 134 -50 241 -150 320c-48 18 -125 33 -232 47h-37zM183 424c0 100 13 163 37 191c24 59 70 88 140 88h38c115 -54 172 -135 172 -243v-165
c-32 -158 -80 -238 -145 -238h-22c-60 0 -101 7 -123 21c-64 39 -97 120 -97 243v103z" />
    <glyph glyph-name="odieresis" unicode="&#xf6;" horiz-adv-x="759" 
d="M462 999c-58 -34 -87 -58 -87 -73c0 -66 38 -103 113 -113h21l59 60v7c0 38 -35 77 -106 119zM208 982c-39 -25 -59 -47 -59 -67c18 -70 47 -105 86 -105c27 0 56 20 87 59v7c0 34 -38 70 -114 106zM312 755c-33 0 -65 -8 -97 -26c-143 -90 -215 -214 -215 -372
c0 -26 18 -82 54 -166c90 -127 198 -191 322 -191c205 0 323 121 355 362v26c0 134 -50 241 -150 320c-48 18 -125 33 -232 47h-37zM183 424c0 100 13 163 37 191c24 59 70 88 140 88h38c115 -54 172 -135 172 -243v-165c-32 -158 -80 -238 -145 -238h-22
c-60 0 -101 7 -123 21c-64 39 -97 120 -97 243v103z" />
    <glyph glyph-name="divide" unicode="&#xf7;" 
d="M513 1105c-46 0 -70 -19 -70 -58c6 -68 31 -102 76 -102c38 21 57 50 57 87c0 38 -21 62 -63 73zM901 865c-67 -63 -133 -95 -197 -95h-401c-88 0 -158 27 -210 80h-6l-13 -254c4 -34 11 -51 19 -51h13l32 22c0 37 189 76 566 116h82c30 0 73 -26 128 -80
c13 0 21 44 25 131c-5 88 -16 131 -32 131h-6zM507 531c-28 0 -58 -24 -90 -73v-22c0 -40 22 -67 64 -80c36 0 64 37 83 109c0 18 -15 40 -45 66h-12z" />
    <glyph glyph-name="oslash" unicode="&#xf8;" horiz-adv-x="747" 
d="M463 759c-181 0 -296 -35 -345 -107c-56 -54 -95 -140 -118 -258l11 -68c49 -206 153 -314 312 -326h54c58 0 105 6 140 17c140 70 210 191 210 365v23c0 58 -18 126 -54 202c-94 102 -164 152 -210 152zM199 270v163c16 180 71 270 167 270h49c40 -4 59 -16 59 -34v-17
c0 -12 -86 -149 -259 -410h-10zM248 112c0 26 22 61 64 107c104 175 171 276 200 304h5c11 0 16 -33 16 -101v-236l-11 -34c-28 -86 -81 -130 -161 -130h-11c-26 0 -60 30 -102 90z" />
    <glyph glyph-name="ugrave" unicode="&#xf9;" horiz-adv-x="668" 
d="M202 1011c-22 14 -39 20 -50 20c-4 0 -9 -9 -17 -28c0 -19 84 -82 251 -189h3l4 3v7c-32 24 -95 87 -191 187zM11 755l-11 -11c26 -22 39 -45 39 -69v-364l12 -113c48 -132 133 -198 254 -198h5c63 0 119 22 169 64c67 -39 120 -59 158 -59l23 6v5c-8 14 -20 21 -34 21
c-45 26 -68 118 -68 274v5l6 262c0 72 25 122 73 150c0 12 -24 20 -73 22l-118 -16v-11c30 -29 45 -102 45 -220v-257l-6 -69c-70 -82 -120 -123 -152 -123c-68 0 -102 73 -102 219v214l6 123c0 56 23 97 68 124v10l-23 6l-62 -6h-56z" />
    <glyph glyph-name="uacute" unicode="&#xfa;" horiz-adv-x="664" 
d="M600 1031c-10 0 -27 -6 -50 -20c-95 -100 -159 -163 -191 -187v-7l4 -3h3c168 107 251 170 251 189c-7 19 -13 28 -17 28zM11 755l-11 -11c26 -22 39 -45 39 -69v-364l12 -113c48 -132 133 -198 254 -198h5c63 0 119 22 169 64c67 -39 120 -59 158 -59l23 6v5
c-8 14 -20 21 -34 21c-45 26 -68 118 -68 274v5l6 262c0 72 25 122 73 150c0 12 -24 20 -73 22l-118 -16v-11c30 -29 45 -102 45 -220v-257l-6 -69c-70 -82 -120 -123 -152 -123c-68 0 -102 73 -102 219v214l6 123c0 56 23 97 68 124v10l-23 6l-62 -6h-56z" />
    <glyph glyph-name="ucircumflex" unicode="&#xfb;" horiz-adv-x="660" 
d="M383 1133c-42 -42 -66 -72 -72 -89c-37 -87 -68 -142 -94 -166v-3c10 -18 20 -28 28 -28c32 7 52 14 58 22c39 73 67 118 83 135h3c41 -112 71 -169 89 -169l19 22v3c-19 28 -40 75 -64 141c-23 88 -38 132 -44 132h-6zM11 755l-11 -11c26 -22 39 -45 39 -69v-364
l12 -113c48 -132 133 -198 254 -198h5c63 0 119 22 169 64c67 -39 120 -59 158 -59l23 6v5c-8 14 -20 21 -34 21c-45 26 -68 118 -68 274v5l6 262c0 72 25 122 73 150c0 12 -24 20 -73 22l-118 -16v-11c30 -29 45 -102 45 -220v-257l-6 -69c-70 -82 -120 -123 -152 -123
c-68 0 -102 73 -102 219v214l6 123c0 56 23 97 68 124v10l-23 6l-62 -6h-56z" />
    <glyph glyph-name="udieresis" unicode="&#xfc;" horiz-adv-x="660" 
d="M457 1038c-58 -34 -87 -58 -87 -73c0 -66 38 -103 113 -113h21l59 60v7c0 38 -35 77 -106 119zM203 1021c-39 -25 -59 -47 -59 -67c18 -70 47 -105 86 -105c27 0 56 20 87 59v7c0 34 -38 70 -114 106zM11 755l-11 -11c26 -22 39 -45 39 -69v-364l12 -113
c48 -132 133 -198 254 -198h5c63 0 119 22 169 64c67 -39 120 -59 158 -59l23 6v5c-8 14 -20 21 -34 21c-45 26 -68 118 -68 274v5l6 262c0 72 25 122 73 150c0 12 -24 20 -73 22l-118 -16v-11c30 -29 45 -102 45 -220v-257l-6 -69c-70 -82 -120 -123 -152 -123
c-68 0 -102 73 -102 219v214l6 123c0 56 23 97 68 124v10l-23 6l-62 -6h-56z" />
    <glyph glyph-name="yacute" unicode="&#xfd;" horiz-adv-x="714" 
d="M600 1012c-10 0 -27 -6 -50 -20c-95 -100 -159 -163 -191 -187v-7l4 -3h3c168 107 251 170 251 189c-7 19 -13 28 -17 28zM161 747c-114 -2 -172 -11 -172 -27v-5l12 -11h55c31 0 48 -5 50 -16v-11l-50 -264l13 -103c44 -136 132 -205 264 -205l147 11l12 -11v-43
l-12 -97c-63 -107 -122 -161 -178 -161h-61l-43 32c-12 62 -25 92 -37 92c-10 0 -19 -12 -25 -38l12 -65c36 -93 103 -140 203 -140h67c30 0 52 4 68 11c111 58 166 126 166 205v5l-19 264c0 193 7 364 19 512c0 29 23 43 67 43v17l-31 5c-188 -4 -282 -16 -282 -38v-5
c17 0 25 -3 25 -11c45 0 67 -161 67 -485v-11c-17 -25 -46 -38 -86 -38l-67 17c-65 39 -98 114 -98 226c0 111 23 219 67 323l-6 17z" />
    <glyph glyph-name="thorn" unicode="&#xfe;" horiz-adv-x="718" 
d="M78 1448c-41 -9 -62 -21 -62 -36l34 -47c21 0 31 -95 31 -285l-7 -420l4 -451v-10c0 -94 -26 -167 -78 -218l8 -10l46 21h148l39 -5v5c26 0 38 5 38 15v5c-41 32 -62 121 -62 265v103c0 38 4 57 12 57h8c82 -38 164 -57 248 -57c26 0 52 7 78 21c98 73 147 178 147 316
c0 156 -37 281 -113 373c-25 25 -74 49 -147 73c-52 -2 -124 -30 -217 -83h-8l12 140c7 125 28 187 62 187v10c-5 8 -22 19 -51 31l-62 -16h-46zM229 997c62 62 126 93 194 93h12l19 -5c57 -45 85 -138 85 -280v-134l-19 -88c-32 -83 -61 -125 -89 -125h-12
c-76 0 -142 21 -198 62z" />
    <glyph glyph-name="Ydieresis" unicode="&#xff;" horiz-adv-x="718" 
d="M476 1011c-58 -34 -87 -58 -87 -73c0 -66 38 -103 113 -113h21l59 60v7c0 38 -35 77 -106 119zM222 994c-39 -25 -59 -47 -59 -67c18 -70 47 -105 86 -105c27 0 56 20 87 59v7c0 34 -38 70 -114 106zM161 747c-114 -2 -172 -11 -172 -27v-5l12 -11h55c31 0 48 -5 50 -16
v-11l-50 -264l13 -103c44 -136 132 -205 264 -205l147 11l12 -11v-43l-12 -97c-63 -107 -122 -161 -178 -161h-61l-43 32c-12 62 -25 92 -37 92c-10 0 -19 -12 -25 -38l12 -65c36 -93 103 -140 203 -140h67c30 0 52 4 68 11c111 58 166 126 166 205v5l-19 264
c0 193 7 364 19 512c0 29 23 43 67 43v17l-31 5c-188 -4 -282 -16 -282 -38v-5c17 0 25 -3 25 -11c45 0 67 -161 67 -485v-11c-17 -25 -46 -38 -86 -38l-67 17c-65 39 -98 114 -98 226c0 111 23 219 67 323l-6 17z" />
    <glyph glyph-name="dotlessi" unicode="&#x131;" horiz-adv-x="501" 
d="M193 979l-9 -7c-46 -80 -88 -126 -128 -138c-72 -11 -108 -19 -108 -24v-5c24 -26 61 -45 112 -59l90 17h9l4 -10l-4 -661c0 -25 -26 -51 -78 -78v-3c0 -4 7 -8 20 -11l38 4c14 0 22 -3 24 -11l34 7h108l36 7l37 -3l13 3v7l-25 21c-30 0 -46 234 -46 700
c0 96 5 167 13 212c-17 22 -36 32 -58 32h-82z" />
    <glyph glyph-name="circumflex" unicode="&#x2c6;" horiz-adv-x="1024" 
d="M548 1452c-89 -53 -140 -90 -152 -111c-78 -109 -145 -178 -199 -207v-4c21 -23 41 -35 59 -35c68 8 108 17 122 27c83 92 142 148 176 169h6c86 -140 149 -211 187 -211l41 27v4c-41 35 -86 94 -135 176c-49 110 -80 165 -93 165h-12z" />
    <glyph glyph-name="caron" unicode="&#x2c7;" horiz-adv-x="1024" 
d="M396 1191c12 -20 63 -57 152 -111h12c13 0 44 55 93 165c49 83 94 142 135 176v4l-41 27c-38 0 -101 -70 -187 -211h-6c-34 22 -93 78 -176 169c-14 10 -54 19 -122 27c-18 0 -38 -11 -59 -35v-4c54 -28 121 -97 199 -207z" />
    <glyph glyph-name="firsttonechinese" unicode="&#x2c9;" horiz-adv-x="1024" 
d="M735 1330c-12 -12 -35 -18 -71 -18h-87c-52 0 -109 -3 -170 -9l-138 15h-6c-16 0 -24 -4 -26 -12l10 -83l-4 -18l7 -6h3c17 16 30 24 39 24h54l138 6h135c67 -4 109 -9 125 -15h7l3 9l-3 13v3c0 61 -5 91 -16 91z" />
    <glyph glyph-name="breve" unicode="&#x2d8;" horiz-adv-x="1024" 
d="M372 1107l97 -29h6c110 0 201 48 272 143c44 43 66 81 66 114c-5 18 -15 30 -30 37c-32 0 -49 -21 -49 -65c-28 -10 -48 -35 -60 -74c-64 -24 -110 -37 -139 -37c-126 0 -206 37 -241 111c-11 46 -31 69 -61 69c-16 -4 -28 -10 -36 -20v-9c34 -102 92 -182 175 -240z" />
    <glyph glyph-name="dotaccent" unicode="&#x2d9;" horiz-adv-x="1024" 
d="M498 1370h-5c-63 -40 -95 -93 -95 -157c0 -32 25 -55 75 -69c83 27 124 67 124 119c-36 72 -69 107 -99 107z" />
    <glyph glyph-name="ring" unicode="&#x2da;" horiz-adv-x="1024" 
d="M489 1448l-71 -19c-49 -29 -85 -85 -109 -168l10 -58c39 -86 85 -129 137 -129h33l57 5c92 58 138 123 138 196c0 88 -65 145 -195 173zM456 1381h66c20 -4 33 -46 39 -125l-5 -24c0 -79 -33 -119 -100 -119c-22 14 -33 36 -33 66v53c0 22 11 72 33 149z" />
    <glyph glyph-name="ogonek" unicode="&#x2db;" horiz-adv-x="1024" 
d="M513 17c-7 11 -27 3 -61 -23c-88 -131 -97 -245 -28 -341l3 -4c25 -35 63 -60 115 -75c74 -3 139 25 195 85c9 20 9 35 0 47c-10 16 -27 18 -50 8c-75 -4 -128 15 -158 56l-3 4c-34 48 -46 101 -36 159c24 45 33 71 28 77z" />
    <glyph glyph-name="tilde" unicode="&#x2dc;" horiz-adv-x="1024" 
d="M763 1417c-6 0 -9 -10 -9 -31c-13 -80 -38 -121 -75 -121l-22 3c-165 84 -257 126 -275 126c-43 0 -78 -25 -106 -75l-25 -135l14 -11c8 0 11 7 11 19c32 81 72 121 122 121h29c18 0 47 -15 86 -45c77 -76 127 -115 150 -115c13 4 28 13 44 28c45 80 67 149 67 205z" />
    <glyph glyph-name="hungarumlaut" unicode="&#x2dd;" horiz-adv-x="1024" 
d="M557 1457c-20 0 -50 -9 -89 -27l-85 -131c-100 -122 -151 -196 -151 -224l12 -8h11c75 76 146 136 213 182c71 73 113 132 127 176c-16 20 -28 30 -38 32zM776 1453c-20 0 -50 -9 -90 -27l-85 -130c-100 -122 -150 -197 -150 -225l12 -8h11c75 76 146 136 212 182
c72 73 114 132 128 176c-16 20 -29 30 -38 32z" />
    <glyph glyph-name="endash" unicode="&#x2013;" horiz-adv-x="1108" 
d="M56 419h996v120h-996v-120z" />
    <glyph glyph-name="emdash" unicode="&#x2014;" horiz-adv-x="2048" 
d="M0 419h2048v120h-2048v-120z" />
    <glyph glyph-name="quoteleft" unicode="&#x2018;" horiz-adv-x="557" 
d="M285 1023c52 0 93 51 123 152v17l-65 76v93c0 40 10 91 29 152c-16 34 -28 51 -36 51c-10 0 -15 -8 -15 -25c-55 -82 -103 -215 -144 -398v-25c36 -62 72 -93 108 -93z" />
    <glyph glyph-name="quoteright" unicode="&#x2019;" horiz-adv-x="557" 
d="M300 1564c-52 0 -93 -50 -123 -152v-17l65 -76v-93c0 -40 -9 -90 -29 -152c16 -34 28 -51 36 -51c10 0 15 9 15 25c56 83 104 216 144 398v25c-35 62 -71 93 -108 93z" />
    <glyph glyph-name="quotesinglbase" unicode="&#x201a;" horiz-adv-x="557" 
d="M293 267c-52 0 -93 -50 -123 -152v-17l65 -76v-93c0 -40 -9 -90 -29 -152c16 -34 28 -51 36 -51c10 0 15 9 15 25c56 83 104 216 144 398v25c-35 62 -71 93 -108 93z" />
    <glyph glyph-name="quotedblleft" unicode="&#x201c;" horiz-adv-x="910" 
d="M261 1023c52 0 93 51 123 152v17l-65 76v93c0 40 10 91 29 152c-16 34 -28 51 -36 51c-10 0 -15 -8 -15 -25c-55 -82 -103 -215 -144 -398v-25c36 -62 72 -93 108 -93zM584 1023c52 0 93 51 123 152v17l-65 76v93c0 40 10 91 29 152c-16 34 -28 51 -36 51
c-10 0 -15 -8 -15 -25c-55 -82 -103 -215 -144 -398v-25c36 -62 72 -93 108 -93z" />
    <glyph glyph-name="quotedblright" unicode="&#x201d;" horiz-adv-x="910" 
d="M599 1564c-52 0 -93 -50 -123 -152v-17l65 -76v-93c0 -40 -9 -90 -29 -152c16 -34 28 -51 36 -51c10 0 15 9 15 25c56 83 104 216 144 398v25c-35 62 -71 93 -108 93zM276 1564c-52 0 -93 -50 -123 -152v-17l65 -76v-93c0 -40 -9 -90 -29 -152c16 -34 28 -51 36 -51
c10 0 15 9 15 25c56 83 104 216 144 398v25c-35 62 -71 93 -108 93z" />
    <glyph glyph-name="quotedblbase" unicode="&#x201e;" horiz-adv-x="910" 
d="M634 255c-52 0 -93 -50 -123 -152v-17l65 -76v-93c0 -40 -9 -90 -29 -152c16 -34 28 -51 36 -51c10 0 15 9 15 25c56 83 104 216 144 398v25c-35 62 -71 93 -108 93zM311 255c-52 0 -93 -50 -123 -152v-17l65 -76v-93c0 -40 -9 -90 -29 -152c16 -34 28 -51 36 -51
c10 0 15 9 15 25c56 83 104 216 144 398v25c-35 62 -71 93 -108 93z" />
    <glyph glyph-name="dagger" unicode="&#x2020;" 
d="M496 1463c-32 -13 -87 -128 -167 -345c61 -142 91 -224 91 -246v-6l-129 6c-141 -28 -212 -50 -212 -66v-11c38 -39 98 -74 182 -104l30 6h68l76 5v-22c0 -40 -30 -160 -91 -361l106 -219c41 -146 69 -219 83 -219h16l128 438c-55 181 -83 287 -83 317v28l8 5l98 -16
c64 16 130 47 197 93v5c-67 59 -120 88 -159 88l-144 -16h-38v5c0 31 31 119 91 263c-78 248 -128 372 -151 372z" />
    <glyph glyph-name="daggerdbl" unicode="&#x2021;" 
d="M523 1386h-15c-90 -88 -147 -171 -173 -247l-248 -134v-20c84 -26 162 -59 233 -98h7l38 15l15 -15l-45 -93c80 -88 120 -141 120 -159v-15c0 -17 -27 -62 -82 -134l97 -165v-5l-30 5c-76 35 -121 52 -135 52c-41 -18 -116 -61 -226 -129v-5c0 -14 83 -45 248 -93h15
l76 36h37v-5c-40 -49 -60 -82 -60 -98v-36l-7 -5l60 -113c34 -99 56 -149 68 -149h15l7 5l113 262v6c-40 51 -60 82 -60 92v10h22l61 -20c186 51 278 85 278 103v5l-248 93h-8c-16 0 -41 -8 -75 -26h-8v26l45 133v5c-80 82 -120 130 -120 144c0 56 33 121 98 196l-45 103v10
h15l75 -21c101 46 169 85 203 119c-103 62 -163 92 -180 92l-83 -20h-8v5c0 14 21 57 61 129l-53 51c-44 68 -77 104 -98 108zM350 1129h15l15 -10v-11h-15l-15 11v10z" />
    <glyph glyph-name="bullet" unicode="&#x2022;" horiz-adv-x="1024" 
d="M514 1011h-16c-195 -106 -293 -245 -293 -415c0 -83 77 -144 231 -182c258 70 386 175 386 315c-114 188 -216 282 -308 282z" />
    <glyph glyph-name="ellipsis" unicode="&#x2026;" horiz-adv-x="2048" 
d="M1013 237c-70 0 -113 -51 -131 -153c0 -36 41 -64 121 -85c69 20 103 54 103 102c0 63 -21 108 -65 136h-28zM1795 237c-92 -10 -139 -49 -139 -119c0 -52 41 -86 121 -102c81 0 121 26 121 77c-17 96 -51 144 -103 144zM286 229c-93 -37 -140 -85 -140 -145v-8
c35 -45 78 -68 130 -68h38l56 51c-6 94 -34 150 -84 170z" />
    <glyph glyph-name="guilsinglleft" unicode="&#x2039;" horiz-adv-x="631" 
d="M516 790c-11 0 -44 -18 -98 -56c-86 -53 -187 -136 -304 -249v-9c54 -52 119 -105 195 -159l186 -124c10 0 19 9 27 25c0 17 -17 35 -52 53c-85 42 -165 102 -240 180v3l70 75c120 86 189 140 207 162v27c0 26 4 50 12 72h-3z" />
    <glyph glyph-name="guilsinglright" unicode="&#x203a;" horiz-adv-x="631" 
d="M218 734c-54 38 -86 56 -98 56h-3c8 -22 12 -46 12 -72v-27c19 -22 88 -76 207 -162l70 -75v-3c-74 -78 -154 -138 -240 -180c-34 -18 -52 -36 -52 -53c9 -16 18 -25 27 -25l186 124c76 54 141 107 195 159v9c-116 113 -218 196 -304 249z" />
    <glyph glyph-name="fraction" unicode="&#x2044;" horiz-adv-x="342" 
d="M739 1425c-53 -14 -157 -26 -311 -36v-16l46 -40v-20c0 -51 -73 -199 -220 -445c-74 -135 -155 -263 -242 -384c-94 -166 -178 -296 -252 -389c0 -7 -45 -39 -135 -97v-11l96 -10h112c79 0 118 7 118 21v5l-39 40c0 14 13 40 39 77c287 455 497 827 629 1116
c21 62 83 120 186 174l-17 15h-10z" />
    <glyph glyph-name="fraction" unicode="&#x2215;" horiz-adv-x="342" 
d="M739 1425c-53 -14 -157 -26 -311 -36v-16l46 -40v-20c0 -51 -73 -199 -220 -445c-74 -135 -155 -263 -242 -384c-94 -166 -178 -296 -252 -389c0 -7 -45 -39 -135 -97v-11l96 -10h112c79 0 118 7 118 21v5l-39 40c0 14 13 40 39 77c287 455 497 827 629 1116
c21 62 83 120 186 174l-17 15h-10z" />
    <glyph glyph-name="franc" unicode="&#x20a3;" horiz-adv-x="1291" 
d="M522 1409c-102 0 -192 -39 -270 -118l10 -10h5c82 40 129 59 143 59h5v-49c10 0 24 -261 41 -785c0 -22 -119 -34 -357 -34h-5c-9 0 -19 -49 -31 -148l5 -15h10l26 29c0 28 118 54 352 79l10 -237c0 -57 -30 -109 -92 -157v-10c0 -13 29 -21 87 -25l76 10h143l26 5v10
l-36 29c-30 0 -46 119 -46 356c0 16 12 24 36 24h71c101 0 164 -16 189 -49h15l26 138h-5v10h-11l-51 -20l-275 -5l-5 25v49l5 153c0 53 14 79 41 79l173 5l102 -10c12 0 20 25 26 74h-5l-6 30c0 10 -3 15 -10 15h-5c-38 -23 -65 -35 -81 -35h-220c-5 8 -15 155 -30 439v5
l5 5c22 0 52 -14 92 -44c154 -154 254 -241 300 -262c112 0 208 120 286 360l-25 25h-11c-76 -108 -149 -163 -219 -163h-46l-46 10c-198 102 -324 153 -377 153h-41z" />
    <glyph glyph-name="afii08941" unicode="&#x20a4;" 
d="M180 1291c5 42 15 62 30 62c53 -70 82 -123 86 -160v-21l-5 -5c-74 28 -111 66 -111 114v10zM740 192c8 21 45 35 111 41h22c34 -8 51 -34 51 -77c0 -52 -12 -78 -38 -78h-5c-46 0 -93 35 -141 103v11zM474 553c-21 -1 -43 -2 -66 -4l-172 13h-8c-20 0 -30 -3 -32 -11
l12 -72l-4 -17l8 -5h4c21 15 37 22 48 22h68l161 5c8 -30 17 -64 25 -101c49 -103 73 -162 73 -176v-5c-168 -79 -278 -119 -330 -119h-60c-31 0 -47 14 -47 42v10l5 5c86 19 128 33 128 41l-17 16c-154 -6 -231 -17 -231 -31c42 -110 104 -165 184 -165h30
c50 0 102 9 158 26c120 69 186 103 197 103h17c45 -50 105 -102 179 -155c52 18 81 32 86 41c43 0 70 52 81 155c0 84 -47 132 -141 145c-16 0 -53 -17 -111 -52h-9l-21 26l-55 194h38c83 -3 135 -8 156 -14h8l4 9l-4 10v3c0 54 -6 81 -20 81c-15 -10 -44 -16 -88 -16h-113
c-16 65 -24 108 -24 130v16h145c13 0 26 -10 38 -31h5c27 0 57 45 90 134l-18 15h-4l-4 -5c-36 -27 -110 -41 -222 -41h-60l-60 258v20l4 6c152 0 271 47 355 139c48 27 89 92 124 196c-6 18 -16 26 -30 26l-197 10l-17 -15v-5c82 -38 124 -69 124 -93l-4 -31
c-81 -110 -189 -165 -325 -165h-43l-21 5c-44 141 -84 229 -120 263c0 23 -44 45 -132 67v-5c-86 -16 -129 -66 -129 -150c0 -43 33 -91 99 -144c79 -39 123 -65 132 -78c54 -135 81 -230 81 -284v-5c-62 -6 -106 -15 -132 -25l-30 30h-9c-36 -41 -55 -74 -55 -98v-10l8 -10
h9l60 26h158c14 0 35 -50 63 -150z" />
    <glyph glyph-name="peseta" unicode="&#x20a7;" horiz-adv-x="2028" 
d="M98 1441l-19 -103c0 -50 36 -86 108 -107c16 0 23 -22 23 -67l5 -384c-14 -458 -26 -687 -37 -687c0 -32 -17 -54 -52 -67v-10c0 -24 43 -36 127 -36h23c50 0 89 9 117 25v16c-28 29 -42 49 -42 61v621c87 -21 164 -35 230 -41l75 10c13 0 19 -37 19 -113v-51l9 -16
c20 9 29 19 29 31c56 79 111 118 164 118h37v-620l-32 -41l4 -16l14 6c142 12 212 22 212 30v5c0 10 -11 17 -33 21c-18 0 -28 53 -28 159v348l9 113h52c62 0 132 -27 211 -82l37 -56h10c14 0 21 62 23 184l-42 11l-563 -5l-14 5v10c78 91 117 176 117 256
c0 42 -11 106 -33 190c-67 147 -151 220 -253 220c-64 0 -161 -10 -291 -30h-47c-39 0 -92 31 -160 92h-9zM361 1308c50 20 120 30 211 30h14c91 0 136 -109 136 -328l-14 -159c-56 -82 -106 -123 -150 -123h-66c-40 0 -88 12 -145 36zM1506 723l-5 -5
c-46 0 -81 -49 -103 -149c6 -21 14 -33 23 -36h10c18 62 43 93 75 93h37l14 -10v-11c-74 -55 -112 -120 -112 -195c0 -49 27 -83 80 -102l46 5c90 58 140 87 151 87h23c35 -14 52 -52 52 -113v-61c0 -33 -9 -76 -28 -128c-36 -65 -82 -98 -137 -98h-42c-10 5 -20 20 -28 46
c0 86 -23 129 -70 129c-28 0 -49 -25 -61 -77l4 -26c32 -82 90 -123 174 -123h136c144 51 216 133 216 246l-14 82c-36 113 -95 169 -178 169l-183 -25c-38 2 -57 11 -57 25v11c0 44 30 80 89 107h24l159 -41h10c76 0 123 26 141 77c0 23 -23 59 -71 108h-14l-5 -5
c-14 -85 -45 -128 -93 -128l-29 5c-104 96 -182 143 -234 143z" />
    <glyph glyph-name="Euro" unicode="&#x20ac;" 
d="M487 1464l-152 -49c-223 -116 -335 -358 -335 -728v-34c0 -37 25 -141 74 -312c0 -26 28 -82 83 -168c115 -115 220 -173 315 -173c51 0 125 22 222 64c78 47 146 70 202 70h9l79 -30v5l15 15c0 20 -41 64 -123 133c-63 -86 -155 -150 -276 -193l-59 10
c-53 0 -119 25 -197 74c-101 147 -152 274 -152 381v5c0 20 58 30 172 30h89l182 5c50 0 84 32 103 94l-20 20h-14l-10 -10l-148 -5h-142l-212 -15v30c0 60 7 113 20 158c0 16 143 25 428 29c50 0 93 33 128 99v20l-15 5l-35 -15c0 -19 -150 -29 -452 -29l-35 -5v24
c0 16 17 66 50 149c102 182 207 272 314 272h50c33 0 72 -11 118 -35c48 -46 79 -69 93 -69h10c52 43 95 86 128 129v4l-10 10h-10l-137 -69l-20 10c0 24 -110 56 -330 94z" />
    <glyph glyph-name="afii61352" unicode="&#x2116;" horiz-adv-x="2271" 
d="M300 1436c-58 -40 -87 -72 -87 -98l11 -11h5c12 0 25 6 38 16h5c87 -24 130 -50 130 -78l27 -790c-8 -272 -18 -408 -32 -408l-54 -31v-11l27 -41l43 21l195 -5h92c28 0 46 9 54 25c0 6 -20 17 -60 31c-25 0 -45 204 -59 610l5 52v258l6 21v5c11 0 58 -43 140 -129
c143 -183 260 -381 352 -594c70 -193 116 -290 140 -290h11c24 0 40 11 49 31l11 1137c17 49 55 133 113 253l-11 10h-183c-47 -2 -71 -8 -71 -20v-5c51 -19 76 -76 76 -171l-11 -455l16 -377h-10l-6 5c-37 97 -87 202 -151 316l-411 485c-106 159 -236 238 -390 238h-10z
M1771 1415c-22 -2 -33 -5 -33 -10c-94 0 -182 -58 -265 -176c-18 0 -42 -82 -70 -248c0 -85 29 -166 86 -243c82 -68 165 -103 249 -103h5c58 6 87 13 87 21c148 54 222 164 222 330c0 130 -25 225 -76 285c-74 82 -143 130 -205 144zM1565 899v196c25 148 74 222 146 222
l87 -15c72 -55 108 -152 108 -290c0 -58 -7 -119 -22 -181c-26 -72 -91 -108 -195 -108h-27c-64 20 -97 79 -97 176zM1495 516c-44 0 -78 -12 -103 -36v-5l5 -5c8 -55 25 -83 49 -83h11c24 18 55 26 92 26h357c64 0 124 -7 178 -21h6l5 26v26c0 48 -7 72 -22 72h-578z" />
    <glyph glyph-name="trademark" unicode="&#x2122;" horiz-adv-x="1563" 
d="M1464 1345c-41 -10 -93 -52 -156 -128c-54 -95 -86 -146 -96 -152h-12l-4 4c-95 160 -187 240 -276 240c-37 0 -64 -10 -80 -32v-8l12 -4l40 8h16c19 -154 28 -304 28 -452c0 -31 -5 -52 -16 -64c-18 -2 -28 -6 -28 -12c0 -4 7 -8 20 -12l96 4l36 -4l28 8v8l-20 16
c-9 0 -18 134 -28 400l4 24c20 0 46 -34 80 -104c41 -120 72 -186 92 -200l40 56c77 168 121 252 132 252h12l8 -56v-176c0 -100 -12 -156 -36 -168c-18 -18 -28 -33 -28 -44c0 -10 34 -16 100 -16h4c67 0 100 6 100 16v4l-32 32c-10 315 -19 472 -28 472l8 16
c32 5 48 10 48 16v16c0 15 -21 28 -64 40zM712 1301l-696 -8c-8 -2 -14 -8 -16 -16c9 -101 18 -152 28 -152c56 78 133 116 232 116h16c16 0 24 -64 24 -192v-136c0 -56 -4 -104 -12 -144c-24 -9 -36 -16 -36 -20c0 -12 35 -20 104 -24l56 8l92 -4v20c-34 0 -52 148 -52 444
v72l4 4c27 -4 40 -8 40 -12c144 -40 225 -78 244 -112c6 0 11 8 16 24l-8 112c0 8 -12 14 -36 20z" />
    <glyph glyph-name="partialdiff" unicode="&#x2202;" 
d="M636 1317c-99 92 -149 144 -149 158h-15l-5 -15c149 -238 223 -378 223 -418v-20c-79 0 -173 -24 -282 -72c-150 -90 -250 -193 -302 -310c-26 -72 -40 -128 -40 -168c0 -174 40 -286 119 -337c93 -88 177 -132 253 -132h59c130 0 234 55 312 163c35 0 75 112 119 336v26
c0 230 -97 493 -292 789zM725 930c15 0 27 -71 35 -214c0 -342 -84 -559 -253 -652c-12 -6 -31 -10 -55 -10h-59c-62 0 -107 55 -134 163l-5 97v66c0 116 47 253 139 412c76 92 170 138 282 138h50z" />
    <glyph glyph-name="Delta" unicode="&#x2206;" horiz-adv-x="1081" 
d="M530 1398c-2 10 -11 15 -26 15c-10 0 -29 -72 -58 -217l-157 -602c-75 -254 -120 -396 -134 -424c-53 -92 -80 -146 -80 -162v-5c0 -10 6 -15 18 -15l531 51h210l147 -21c36 5 54 12 54 21v5c0 8 -23 51 -71 131c-146 360 -240 611 -282 753zM780 155v-10l-156 10
l-393 -51h-4c0 13 21 72 62 177c111 438 175 677 192 718h5c6 0 29 -69 71 -208c40 -154 115 -366 223 -636z" />
    <glyph glyph-name="product" unicode="&#x220f;" horiz-adv-x="1515" 
d="M395 1460l-148 -7c-26 0 -39 -37 -39 -111c0 -234 11 -538 33 -910l-13 -491c0 -188 -60 -298 -181 -328c0 -18 11 -31 32 -39c2 12 75 21 220 26l232 -6c26 4 39 11 39 19v13l-45 66c-31 0 -57 251 -78 753v137l26 616l-7 131v7l717 -7l26 -7l-20 -1132l7 -341l-7 -79
c0 -56 -32 -99 -97 -131v-6c0 -10 11 -16 33 -20l122 13l226 -6l26 19l-13 20c-58 0 -96 27 -116 79c-38 0 -58 349 -58 1047l6 459l-19 170c0 31 -301 46 -904 46z" />
    <glyph glyph-name="summation" unicode="&#x2211;" horiz-adv-x="1206" 
d="M814 1413l-666 -13c-14 -4 -23 -13 -26 -26c38 -84 242 -362 612 -834v-13c-54 -75 -90 -119 -107 -131c-236 -336 -427 -594 -572 -775v-7c0 -12 31 -21 93 -26h293c368 24 552 41 552 52c94 29 140 86 140 170v6c-2 14 -20 20 -53 20h-34c-24 0 -66 -30 -126 -92
c0 -38 -210 -58 -632 -58v13c0 20 16 46 46 78c120 192 231 357 333 495c132 148 203 237 213 268l-20 45l-166 176c-214 272 -340 455 -379 548l13 13h60c232 0 387 -19 466 -59c24 -56 86 -85 186 -85h13c15 0 26 33 33 98v20c0 78 -86 117 -259 117h-13z" />
    <glyph glyph-name="minus" unicode="&#x2212;" 
d="M919 790c-20 -16 -61 -24 -122 -24h-149c-90 0 -188 -4 -292 -12l-238 20h-11c-27 0 -42 -5 -44 -16l17 -108l-6 -24l11 -8h6c28 22 50 32 66 32h94l237 8h232c115 -5 187 -12 215 -20h11l6 12l-6 16v4c0 80 -9 120 -27 120z" />
    <glyph glyph-name="radical" unicode="&#x221a;" horiz-adv-x="1062" 
d="M956 1669c-83 0 -136 -31 -158 -93c-101 -299 -244 -770 -429 -1413h-13c-14 18 -41 141 -79 368c-32 152 -95 228 -191 228c-57 -7 -86 -30 -86 -70c12 -82 27 -123 46 -123l66 18c55 0 95 -111 119 -333c26 -138 64 -221 112 -251h13c63 0 111 18 145 53
c168 628 282 1030 343 1208c0 92 33 169 99 233l79 -6l20 128c0 30 -28 48 -86 53z" />
    <glyph glyph-name="infinity" unicode="&#x221e;" horiz-adv-x="1275" 
d="M278 1050c-30 -5 -56 -12 -76 -21c-84 -61 -127 -133 -127 -217c0 -18 6 -45 16 -81c82 -182 187 -274 315 -274c45 0 105 23 181 69c43 38 69 57 79 57l48 -27c95 -52 174 -81 238 -87h35c21 5 58 27 111 66c68 110 102 196 102 256v9c0 62 -30 121 -92 175
c0 20 -52 37 -156 51c-64 0 -146 -45 -248 -136c-59 -64 -92 -96 -98 -96h-7l-133 139c-30 49 -93 88 -188 117zM116 845c0 15 3 26 7 33c0 30 25 51 73 61h12c76 0 185 -81 325 -244v-6c-38 -56 -96 -85 -175 -85h-19c-34 0 -81 14 -143 40c-53 50 -80 102 -80 156v45z
M739 668v6c116 140 227 210 331 210h19c43 0 67 -16 73 -48c0 -53 -16 -104 -48 -153c-64 -58 -115 -88 -152 -88h-80c-75 21 -123 45 -143 73z" />
    <glyph glyph-name="integral" unicode="&#x222b;" horiz-adv-x="665" 
d="M625 1709c-61 -37 -92 -62 -92 -76c-72 -70 -128 -174 -170 -313c-26 0 -76 -389 -149 -1168c-28 -176 -53 -264 -74 -264h-5l-74 28c-28 0 -48 -25 -61 -77c14 -83 37 -125 70 -125c57 0 118 121 184 361c32 159 90 509 174 1050c54 268 92 405 114 410l35 -14
c56 28 83 69 83 125v7c0 31 -11 50 -35 56z" />
    <glyph glyph-name="approxequal" unicode="&#x2248;" 
d="M222 980h-42c-54 -32 -94 -85 -121 -157l11 -61l63 13c116 72 186 108 210 108h47c18 0 85 -38 199 -115l153 -114c86 66 151 158 194 278v6l-16 18l-31 -18c-51 -88 -98 -133 -142 -133l-42 6c-246 113 -407 169 -483 169zM358 702l-52 -12
c-100 -90 -161 -168 -184 -236v-12c2 -8 10 -16 26 -24c68 9 145 57 231 145h32l31 -6c160 -84 250 -127 268 -127c68 0 141 49 221 145v6l-16 24c-101 -60 -178 -90 -231 -90l-63 12c-139 117 -227 175 -263 175z" />
    <glyph glyph-name="lessequal" unicode="&#x2264;" horiz-adv-x="1137" 
d="M826 1161c-157 -141 -325 -265 -503 -371l-252 -97v-11c4 -9 91 -29 260 -59c191 -20 403 -118 637 -296h8c32 13 47 29 47 48c0 18 -44 55 -134 113c-78 48 -198 103 -362 167v6c28 25 81 54 158 86c220 156 330 266 330 328h-8c0 50 -60 79 -181 86zM1015 90l-881 -16
c-26 0 -44 -28 -55 -86c4 -18 12 -27 23 -27h16l47 11c0 22 184 32 551 32h173c35 0 82 -9 142 -27c11 0 29 24 55 70v5l-8 6c-42 15 -63 26 -63 32z" />
    <glyph glyph-name="greaterequal" unicode="&#x2265;" horiz-adv-x="1149" 
d="M331 327c158 141 325 265 503 371l252 97v11c-4 10 -90 29 -260 59c-190 20 -403 119 -637 296h-8c-31 -12 -47 -28 -47 -48c0 -17 45 -55 134 -113c78 -48 199 -103 362 -167v-6c-28 -24 -80 -53 -158 -86c-220 -156 -330 -265 -330 -328h8c0 -50 61 -78 181 -86z
M1023 74l-881 16c0 -6 -21 -17 -63 -32l-8 -6v-5c26 -46 45 -70 55 -70c60 18 108 27 142 27h173c368 0 551 -10 551 -32l47 -11h16c12 0 19 9 23 27c-10 58 -29 86 -55 86z" />
    <glyph glyph-name="uniF001" unicode="&#xf001;" horiz-adv-x="1073" 
 />
    <glyph glyph-name="uniF001" unicode="&#xfb01;" horiz-adv-x="1073" 
 />
    <glyph glyph-name="uniF002" unicode="&#xf002;" horiz-adv-x="1081" 
 />
    <glyph glyph-name="uniF002" unicode="&#xfb02;" horiz-adv-x="1081" 
 />
  </font>
</defs>
</svg>
